<?xml version="1.0" encoding="utf-8"?>
<!-- Generator: Adobe Illustrator 23.0.4, SVG Export Plug-In . SVG Version: 6.00 Build 0)  -->
<svg version="1.1" id="Layer_1" xmlns="http://www.w3.org/2000/svg" xmlns:xlink="http://www.w3.org/1999/xlink" x="0px" y="0px"
	 viewBox="0 0 480 139" style="enable-background:new 0 0 480 139;" xml:space="preserve">
<style type="text/css">
	.st0{fill:none;}
	.st1{fill:#FFFFFF;}
	.st2{font-family:'Raleway Thin';}
	.st3{font-size:57px;}
	.st4{font-size:54px;}
	.st5{fill:#0B72B9;}
	.st6{fill:none;stroke:#000000;stroke-width:3;stroke-miterlimit:10;}
</style>
<polygon points="448.07,-1 438.45,16.24 430.09,31.2 369.93,139 -1,139 -1,-1 "/>
<rect x="-1" y="139" class="st0" width="479.92" height="0.01"/>
<text transform="matrix(1 0 0 1 261.994 65.233)" class="st1 st2 st3">Arc</text>
<text transform="matrix(1 0 0 1 17.6922 112.015)" class="st1 st2 st4">Development</text>
<polyline class="st0" points="382.44,116.43 430.09,31.2 438.45,16.24 "/>
<polyline class="st0" points="369.83,139 369.82,139.01 362,153 "/>
<g>
	<g>
		<path class="st5" d="M438.76,15.76l-56.42,100.91c-12.52-10.83-20.45-26.82-20.45-44.67c0-32.58,26.42-59,59-59
			C427.12,13,433.13,13.97,438.76,15.76z"/>
		<path d="M479.89,72c0,32.58-26.42,59-59,59c-14.73,0-28.21-5.4-38.55-14.33l56.42-100.91C462.61,23.33,479.89,45.65,479.89,72z"/>
	</g>
	<g id="Group_186" transform="translate(30.153 11.413)">
		<g id="Group_185">
			<g id="Words">
				<path id="Path_57" class="st6" d="M411.46,90.63"/>
				<path id="Path_58" class="st6" d="M391.26,71.22"/>
				<path id="Path_59" class="st1" d="M405.05,14.4l-0.09,80.38l-7.67-0.01l0.06-52.25l-29.4,52.21l-7.94-0.01L405.05,14.4z"/>
			</g>
		</g>
	</g>
</g>
<polyline class="st0" points="457,-17 448.07,-1 438.45,16.24 430.09,31.2 369.93,139 369.92,139.01 361,155 "/>
</svg>
