<svg id="Layer_1" data-name="Layer 1" xmlns="http://www.w3.org/2000/svg" viewBox="0 0 1920 1080"><defs><style>.cls-3{fill:#7e8789}.cls-6,.cls-7{stroke:#000;stroke-linecap:round;stroke-miterlimit:10;fill:none}.cls-6{stroke-width:5px}.cls-7{stroke-width:3px}</style></defs><path fill="#fbb03b" d="M0 0h1920v1080H0z"/><path d="M1132 245h15v628h-15zM1225 245h15v628h-15zM1324 245h17v628h-17zM1425 245h15v628h-15zM1524 245h17v628h-17z"/><path d="M1187 348v526h423V348zm85 503h-48v-48h48zm0-144h-48v-48h48zm0-144h-48v-48h48zm0-144h-48v-48h48zm100 432h-48v-48h48zm0-144h-48v-48h48zm0-144h-48v-48h48zm0-144h-48v-48h48zm100 432h-48v-48h48zm0-144h-48v-48h48zm0-144h-48v-48h48zm0-144h-48v-48h48zm100 432h-48v-48h48zm0-144h-48v-48h48zm0-144h-48v-48h48zm0-144h-48v-48h48z" fill="#b3b3b3"/><path class="cls-3" d="M1102 445h508v12h-508zM1102 585h508v12h-508zM1102 725h508v12h-508z"/><path fill="#999" d="M1688 856l-78 18V348l75 31 3 477z"/><path transform="rotate(-180 874.94 860.46)" d="M691.75 846.76h366.38v27.4H691.75z"/><path transform="rotate(-180 874.94 833.84)" d="M753.59 820.14h242.69v27.4H753.59z"/><path transform="rotate(-180 874.94 806.44)" d="M816.22 792.74h117.43v27.4H816.22z"/><path stroke-width="22" stroke="#000" stroke-linecap="round" stroke-miterlimit="10" d="M1192 305.01H675.31"/><path class="cls-6" d="M1177.91 311.28v120.56M1158.73 311.67v120.56M905.08 406.39h-64.2M905.08 454.15h-64.2M905.08 501.91h-64.2M905.08 549.66h-64.2M905.86 597.42h-64.19M905.08 645.95h-64.2M905.86 694.49h-64.19M905.08 742.25h-64.2M905.86 792.35l-61.85-47.76M840.88 792.35l62.63-47.76M840.88 741.46l61.07-44.62M840.88 693.71l64.2-47.76M843.23 644.39l61.07-44.63M843.23 595.85l61.07-44.62M842.45 548.88l61.06-44.63M842.45 501.12l61.06-44.62M842.45 452.58l61.06-44.62M905.08 741.46l-61.07-44.62M903.51 692.14l-61.06-44.62M903.51 644.39l-61.06-44.63M903.51 596.63l-61.06-44.62M904.3 548.88l-61.07-44.63M904.3 501.12l-61.07-44.62M905.08 454.15l-64.2-47.76"/><path class="cls-7" d="M852.45 285.83l40.89-29.87M894.9 286.62l-43.06-31.32M853.24 253.74l40.88-29.88M894.9 254.52l-42.71-31.71M853.24 220.85l40.88-29.87M851.84 190.26h43.24M851.84 223.14h43.24M851.84 255.24h43.24M895.38 287.4v-96.84M851.54 287.4v-96.84M895.29 222.03l-42.66-31.71"/><path class="cls-6" d="M905.86 401.7v390.65M840.88 401.7v390.65"/><path d="M829.53 305.8v98.64h87.68V305.8zm9.4 18.78h68.89v46.19h-68.89z"/><path transform="rotate(-180 873.37 291.315)" d="M838.93 286.22h68.89v10.18h-68.89z"/><path class="cls-6" d="M894.12 191.11l271.65 107.25M671 305.4l180.06-114.29"/><path transform="rotate(-180 722.28 361.38)" d="M674.13 313.23h96.29v96.29h-96.29z"/><path d="M1182.61 437.32c-.79 7.94-6.56 18.58-7 19.57-.78 1.57-1.57 3.13-3.91 3.13h-6.27c-1.56 0-5.48-5.48-7-9.39s-3.92-9.4-3.13-14.88 3.13-13.31 11.74-13.31c6.26 0 9.39 2.23 11 3.86a17.77 17.77 0 0 1 3.91 6.32 10.58 10.58 0 0 1 .66 4.7z"/><path d="M1168.51 460v4.33s-13.7-.81-13.7 12.5c0 3.92 1.57 7 7 8.61 4.76 1.37 12.53-1.54 12.53-5.48" stroke-width="7" fill="none" stroke="#000" stroke-linecap="round" stroke-miterlimit="10"/></svg>