<svg xmlns="http://www.w3.org/2000/svg" width="750" height="1334"><defs><style>.cls-2{fill:#fff}.cls-3{fill:#f2f2f2}.cls-4{fill:none;stroke:#ccc;stroke-miterlimit:10}.cls-6{fill:#ccc}</style></defs><path fill="#29abe2" d="M0 0h750v1334H0z" id="Background_Color" data-name="Background Color"/><g id="Dominos"><path class="cls-2" d="M576.285 984.253l1.469-218.945-52.41-14.205v200.333l50.941 32.817z"/><path class="cls-3" d="M614 981.314V762.859l-36.246 2.449-1.469 218.945L614 981.314z"/><path class="cls-4" d="M540.538 867.351l35.033 7.545"/><path d="M541.614 928.522c-.174-3.932-1.654-7.894-3.275-7.823s-2.771 4.151-2.597 8.083 1.325 8.967 2.946 8.895 3.1-5.223 2.926-9.155z"/><path fill="#e6e6e6" d="M614 762.859l-53.389-15.185-35.267 3.429 52.41 14.205L614 762.859z"/><path class="cls-2" d="M492.527 981.804l48.001-226.782-48.001-7.348-43.104 209.64 43.104 24.49z"/><path class="cls-3" d="M530.732 985.723l45.517-220.342-35.721-10.359-48.001 226.782 38.205 3.919z"/><path class="cls-4" d="M478.077 866.943l35.267 6.368"/><path d="M499.833 891.298c.72-3.869.176-8.064-1.42-8.36s-3.638 3.415-4.358 7.285-.739 9.034.857 9.331 4.2-4.387 4.921-8.256zM466.519 933.686c.425-3.913-.436-8.055-2.05-8.23s-3.369 3.682-3.794 7.595-.051 9.064 1.562 9.24 3.857-4.693 4.282-8.606zM522.854 784.03c.72-3.87-.113-8.118-2.068-8.482s-4.293 3.294-5.013 7.163-.533 9.073 1.422 9.437 4.939-4.25 5.66-8.118zM510.12 843.297c.72-3.87.175-8.064-1.42-8.361s-3.64 3.416-4.36 7.285-.738 9.034.858 9.332 4.2-4.387 4.921-8.256zM498.853 776.683c.72-3.87-.112-8.118-2.068-8.482s-4.292 3.294-5.013 7.163-.533 9.073 1.423 9.437 4.938-4.25 5.658-8.118zM486.118 835.95c.72-3.87.176-8.064-1.42-8.361s-3.638 3.416-4.358 7.285-.739 9.034.857 9.331 4.201-4.386 4.921-8.255z"/><path class="cls-2" d="M378.891 975.926l120.003-201.312-39.674-14.205-117.065 191.027 36.736 24.49z"/><path class="cls-3" d="M416.116 996.498L536.12 795.676l-37.226-21.062-120.003 201.312 37.225 20.572z"/><path d="M424.996 845.855c2.119-3.316 3.187-7.41 1.82-8.283s-4.654 1.802-6.773 5.119-4.074 8.097-2.706 8.971 5.54-2.49 7.659-5.807zM391.408 920.059c2.119-3.316 3.187-7.41 1.82-8.283s-4.655 1.802-6.773 5.118-4.074 8.098-2.706 8.972 5.54-2.49 7.659-5.807zM476.097 799.353c2.12-3.317 3.188-7.41 1.82-8.283s-4.654 1.802-6.773 5.118-4.073 8.098-2.705 8.972 5.54-2.49 7.658-5.807zM366.706 934.814c2.119-3.316 3.188-7.41 1.82-8.283s-4.654 1.802-6.773 5.119-4.074 8.097-2.706 8.971 5.54-2.49 7.659-5.807zM387.324 945.696c2.119-3.317 3.187-7.41 1.82-8.284s-4.654 1.803-6.773 5.12-4.074 8.097-2.706 8.97 5.54-2.49 7.659-5.806zM416.828 897.129c2.119-3.317 3.187-7.41 1.82-8.284s-4.654 1.803-6.773 5.119-4.074 8.098-2.706 8.972 5.54-2.491 7.659-5.807zM394.328 895.444c2.118-3.316 3.187-7.41 1.82-8.283s-4.655 1.802-6.774 5.118-4.073 8.098-2.705 8.972 5.54-2.49 7.659-5.807z"/><path class="cls-4" d="M395.79 872.43l40.486 5.27"/><path class="cls-2" d="M267.704 968.089l171.433-160.658-41.634-14.204-165.57 153.294 35.771 21.568z"/><path class="cls-3" d="M294.153 999.437l172.169-159.433-27.597-32.706-171.021 160.791 26.449 31.348z"/><path class="cls-6" d="M294.153 999.437l-26.449-31.348-35.757-21.551 28.409 26.449 33.797 26.45z"/><path d="M348.06 855.476c2.95-2.604 5.107-6.243 4.033-7.46s-4.97.448-7.922 3.052-6.148 6.66-5.075 7.877 6.012-.866 8.963-3.47zM295.31 917.54c2.952-2.604 5.108-6.244 4.034-7.46s-4.97.448-7.922 3.052-6.148 6.66-5.075 7.877 6.012-.866 8.964-3.47zM376.989 841.65c2.95-2.603 5.107-6.243 4.033-7.46s-4.97.449-7.922 3.052-6.148 6.66-5.074 7.878 6.011-.866 8.963-3.47zM410.003 824.869c2.952-2.604 5.108-6.243 4.034-7.46s-4.97.449-7.922 3.052-6.148 6.66-5.075 7.878 6.012-.867 8.963-3.47z"/><path class="cls-4" d="M312.657 872.966l37.463 16.231"/><path class="cls-2" d="M170.231 971.518l188.577-139.106-39.674-19.103-182.7 132.739 33.797 25.47z"/><path class="cls-3" d="M191.783 1005.805l190.291-137.882-23.51-35.756-188.578 139.106 21.797 34.532z"/><path class="cls-6" d="M191.783 1005.805l-21.552-34.287-33.797-25.47 22.776 34.532 32.573 25.225z"/><path d="M262.811 869.218c3.24-2.234 5.814-5.592 4.893-6.928s-4.99-.145-8.23 2.089-6.896 5.881-5.975 7.218 6.072-.146 9.312-2.38zM203.054 924.566c3.24-2.234 5.814-5.59 4.893-6.927s-4.99-.146-8.23 2.088-6.896 5.882-5.975 7.218 6.072-.145 9.312-2.379zM281.914 879.504c3.24-2.234 5.813-5.592 4.892-6.928s-4.989-.145-8.229 2.089-6.897 5.881-5.975 7.218 6.072-.145 9.312-2.38zM327.956 846.196c3.24-2.234 5.814-5.59 4.892-6.927s-4.988-.146-8.228 2.088-6.897 5.882-5.976 7.218 6.072-.145 9.312-2.379zM307.874 835.91c3.24-2.234 5.813-5.59 4.892-6.927s-4.989-.146-8.229 2.088-6.897 5.882-5.975 7.218 6.072-.145 9.312-2.379z"/><path class="cls-4" d="M225.58 882.372l35.266 20.572"/></g></svg>