<svg id="Layer_1" data-name="Layer 1" xmlns="http://www.w3.org/2000/svg" viewBox="0 0 1920 1080"><defs><style>.cls-2{fill:#fff}.cls-3{fill:#434444}.cls-4{fill:#333}.cls-5,.cls-6{fill:#1a1a1a}.cls-5{opacity:.4}.cls-7{fill:#4d5458}</style></defs><path fill="#c1272d" d="M0 0h1920v1080H0z"/><path class="cls-2" d="M940.07 394.48V455c0 10 .71 108.85.71 116v122.3c0 2.84-.71 114.54-.71 118.1s-.71 54.07-.71 59.05.52 25.87 1.42 26.32c2.85 1.43 29.17 2.14 34.15.71s5.69-14.22 5-30.59c-.67-10.7-2.13-86.8-1.42-171.46.79-95 0-195.8 0-205.61 0-9.41.8-46.23.71-88.22-.09-40.59-1.06-86.49-.71-88.93.71-5 8.53-7.12 8.53-17.08 0-14.23.72-59.76 0-73.28s-7.11-41.26-21.34-51.22S933.68 195 933 215.2c-.71 19.92-1.42 62.61-1.42 71.14 0 21.35 5.11 18.76 7.83 24.19 1.37 2.85.66 83.95.66 83.95z"/><path class="cls-2" d="M895.25 489.82v392.72c0 9.25 10.67 10.68 18.49 10.68s20.64 2.13 20.64-32.73-.72-197.79-.72-211.3V489.82c0-4.27 2.85-30.59-2.13-42.69s-12.09-21.34-17.07-21.34S900.94 435 898.09 445a81.53 81.53 0 0 0-3.56 24.9c0 9.25.72 19.92.72 19.92zM985.6 489.11v392.72c0 9.25 10.67 10.67 18.5 10.67s20.63 2.14 20.63-32.72S1024 662 1024 648.47V489.11c0-4.27 2.85-30.59-2.13-42.69s-12.1-21.34-17.08-21.34-13.52 9.25-16.36 19.21a81.53 81.53 0 0 0-3.56 24.9c.02 9.25.73 19.92.73 19.92z"/><path class="cls-3" d="M911.61 469.19H918s.71 7.11 0 7.11-2.13 3.56-2.13 6.41-.71 2.13-.71 4.26v42c0 2.13.71 3.56.71 7.11v18.5c0 1.43-.71 1.43-.71 5v290.24c0 2.84.24 31.12.24 31.12l1.89 2.32-2.84 1.42-3.81-1.56s3.09.14 3.09-2v-41.26c0-2.85-.71-66.17-.71-69.73V489.82c0-3.56.71-10 0-10.67s-1.42-2.85-1.42-6.41zM956.43 467.76h6.4s.72 7.12 0 7.12-2.13 3.56-2.13 6.4-.71 2.14-.71 4.27v42c0 2.13.71 3.55.71 7.11v18.5c0 1.42-.71 1.42-.71 5v290.23c0 2.85.25 31.12.25 31.12l1.88 2.32-2.84 1.43-3.81-1.56s3.1.13 3.1-2v-41.27c0-2.84-.72-66.16-.72-69.72V488.4c0-3.56.72-10 0-10.68s-1.42-2.84-1.42-6.4zM1001.25 469.19h6.41v10.67c0 2.85 0 4.27 2.84 4.27s2.85 2.13 2.85 5v9.25s.71 2.84-2.85 2.84-2.84 2.14-2.84 5v8.54c0 4.27-1.43 2.14-1.43 11.38v165.02c0 2.14.71 25.61.71 28.46s-1.42 5 4.27 5 5 0 5 10.67-.71 7.12-5 7.83-2.84 0-2.84 6.4v12.81c0 2.84-1.43 0-1.43 8.54v110.25l-1.42 2.85-2.13-1.43S1002 847.68 1002 842v-12.1c0-3.56.72-4.27-1.42-6.41s-1.42-4.27-1.42-6.4 0-5 2.13-5.69.71-10 .71-13.52v-9.25c0-2.13 0-2.84-2.13-5s-1.42-9.25.71-10 1.42-2.84 1.42-8.54V511.87c0-2.84-.71-21.34-.71-23.47z"/><path class="cls-4" d="M917.3 866.89c0 .71-.94 9.2-1.42 12.1-.71 4.27-1.42 2.84-2.85-5-1.18-6.5-2.67-17.59-4-29-.08-.69 2-1.64 1.9-2.34s-2.33-1.28-2.41-2c-.86-7.34-1.63-14.58-2.22-20.54-.07-.81 2.57-1.56 2.49-2.32s-2.57-1.74-2.93-2.4c-.62-1.16-1.22-7.59-1.34-9-.71-8.54-.71-17.08-1.42-18.5s-2.13-5-4.27 0c-1.25 2.92-2.84 6.4-2.84 7.11s-.71 5-.71 6.41v19.21c0 2.13-.72 17.07-.72 21.34s-.71 14.23-.71 17.08-.71 13.51-.71 14.94-.71 9.25-.71 10c0 5 1.42 5.69-.71 8.53s.71 3.56 2.13 3.56 2.14 2.14 2.14 2.85h35.57c1.42 0 5 0 5-8.54s-.71-27-.71-32-2.14-47-2.14-52.64 0-10.68-2.13-14.94a23.57 23.57 0 0 1-1.15-2.64c-.39-1.08-.34-1.85-1-2.34a2.1 2.1 0 0 0-1.46-.41c-2.07.32-2 5.26-2.1 6.1-.84 9.52-1.56 17.1-2.14 23.48-.07.87-3.48 2-3.55 2.84s2.9 1.46 2.84 2.14c-1.2 13.24-2 19.35-2.13 20.63-.05.66-2.77 1.22-2.85 2.13 0 .67 2.21 1.36 2.14 2.14"/><path class="cls-5" d="M896.67 852c-2.14.71-2.14 8.54-2.85 17.79s-.71 18.33-.71 19.92c0 1.42-2.59 4.07-2.13 5 .71 1.42 3.45 1.32 4.27 2.13s.43 2.14.71 2.14h32.72c3.56 0 7.83 1.42 7.83-10s-2.13-30.6-2.85-33.44-4.26-1.42-5 0S923 874 920.86 879s-2.14 6.4-3.56 8.53-2.84 6.41-4.27 2.14-10.67-28.46-12.09-31.31-2.21-7.1-4.27-6.36z"/><path class="cls-6" d="M900.23 874.72c-2.14 0-5 0-5 3.56 0 0-.72 5.69-.72 7.82s-.71 2.85 3.56 2.85h10a1.47 1.47 0 0 0 1.43-2.14 96.6 96.6 0 0 0-3.56-9.25c-.71-1.42 0-2.84-2.85-2.84zM929.5 874.72c2.13 0 5 0 5 3.56 0 0 .71 5.69.71 7.82s.71 2.85-3.56 2.85h-10a1.46 1.46 0 0 1-1.42-2.14 94 94 0 0 1 3.56-9.25c.71-1.42 0-2.84 2.84-2.84z"/><path class="cls-4" d="M1002.62 866.89c0 .71.94 9.2 1.42 12.1.71 4.27 1.43 2.84 2.85-5 1.18-6.5 2.67-17.59 4-29 .08-.69-2-1.64-1.9-2.34s2.33-1.28 2.42-2c.85-7.34 1.62-14.58 2.21-20.54.08-.81-2.56-1.56-2.49-2.32s2.57-1.74 2.93-2.4c.62-1.16 1.22-7.59 1.34-9 .71-8.54.71-17.08 1.42-18.5s2.13-5 4.27 0c1.25 2.92 2.84 6.4 2.84 7.11s.72 5 .72 6.41v19.21c0 2.13.71 17.07.71 21.34s.71 14.23.71 17.08.71 13.51.71 14.94.71 9.25.71 10c0 5-1.42 5.69.71 8.53s-.71 3.56-2.13 3.56-2.14 2.14-2.14 2.85h-35.54c-1.42 0-5 0-5-8.54s.71-27 .71-32 2.14-47 2.14-52.64 0-10.68 2.13-14.94a23.57 23.57 0 0 0 1.15-2.64c.39-1.08.35-1.85 1-2.34a2.07 2.07 0 0 1 1.45-.41c2.07.32 2 5.26 2.1 6.1.85 9.52 1.56 17.1 2.14 23.48.08.87 3.48 2 3.55 2.84s-2.9 1.46-2.84 2.14c1.2 13.24 2 19.35 2.13 20.63.05.66 2.77 1.22 2.85 2.13.05.67-2.2 1.36-2.14 2.14"/><path class="cls-5" d="M1023.25 852c2.14.71 2.14 8.54 2.85 17.79s.71 18.33.71 19.92c0 1.42 2.59 4.07 2.13 5-.71 1.42-3.45 1.32-4.26 2.13s-.44 2.14-.72 2.14h-32.72c-3.56 0-7.83 1.42-7.83-10s2.14-30.6 2.85-33.44 4.27-1.42 5 0 5.69 18.5 7.82 23.48 2.14 6.4 3.56 8.53 2.85 6.41 4.27 2.14 10.67-28.46 12.09-31.31 2.19-7.12 4.25-6.38z"/><path class="cls-6" d="M1019.7 874.72c2.13 0 5 0 5 3.56 0 0 .71 5.69.71 7.82s.71 2.85-3.56 2.85h-10a1.46 1.46 0 0 1-1.42-2.14 94.11 94.11 0 0 1 3.55-9.25c.71-1.42 0-2.84 2.85-2.84zM990.42 874.72c-2.13 0-5 0-5 3.56 0 0-.71 5.69-.71 7.82s-.71 2.9 3.58 2.9h10a1.46 1.46 0 0 0 1.42-2.14 94.11 94.11 0 0 0-3.55-9.25c-.72-1.42 0-2.84-2.85-2.84z"/><path class="cls-4" d="M962.12 866.89c0 .71-.94 9.2-1.42 12.1-.71 4.27-1.42 2.84-2.85-5-1.18-6.5-2.67-17.59-4-29-.08-.69 2-1.64 1.9-2.34s-2.32-1.28-2.41-2c-.85-7.34-1.63-14.58-2.21-20.54-.08-.81 2.56-1.56 2.49-2.32s-2.58-1.74-2.94-2.4c-.62-1.16-1.22-7.59-1.33-9-.71-8.54-.71-17.08-1.43-18.5s-2.13-5-4.26 0c-1.26 2.92-2.85 6.4-2.85 7.11s-.71 5-.71 6.41v19.21c0 2.13-.71 17.07-.71 21.34s-.72 14.23-.72 17.08-.71 13.51-.71 14.94-.71 9.25-.71 10c0 5 0 5.76.71 9.25s1.43 4.26 1.43 4.26c.71 1.43 1.42.72 1.42 1.43h35.57c1.43 0 5 0 5-8.54s-.71-27-.71-32-2.13-47-2.13-52.64 0-10.68-2.14-14.94a25.62 25.62 0 0 1-1.15-2.64c-.39-1.08-.34-1.85-1-2.34a2.1 2.1 0 0 0-1.46-.41c-2.07.32-2 5.26-2.1 6.1-.84 9.52-1.56 17.1-2.13 23.48-.08.87-3.49 2-3.56 2.84s2.91 1.46 2.84 2.14c-1.2 13.24-2 19.35-2.13 20.63 0 .66-2.77 1.22-2.85 2.13-.05.67 2.21 1.36 2.14 2.14"/><path class="cls-5" d="M941.49 852c-2.13.71-2.13 8.54-2.85 17.79s-.71 18.33-.71 19.92a11.87 11.87 0 0 0 .71 4.27c.72 1.42.62 2 1.43 2.84s.43 2.14.71 2.14h32.73c3.55 0 7.82 1.42 7.82-10s-2.13-30.6-2.84-33.44-4.27-1.42-5 0-5.7 18.5-7.83 23.48-2.13 6.4-3.56 8.53-2.84 6.41-4.27 2.14-10.67-28.46-12.09-31.31-2.19-7.1-4.25-6.36z"/><path class="cls-6" d="M945.05 874.72c-2.14 0-5 0-5 3.56 0 0-.71 5.69-.71 7.82s-.72 2.85 3.55 2.85h10a1.47 1.47 0 0 0 1.43-2.14 94 94 0 0 0-3.56-9.25c-.71-1.42 0-2.84-2.85-2.84zM974.32 874.72c2.13 0 5 0 5 3.56 0 0 .71 5.69.71 7.82s.71 2.85-3.56 2.85h-10a1.46 1.46 0 0 1-1.42-2.14 94 94 0 0 1 3.56-9.25c.71-1.42 0-2.84 2.84-2.84z"/><path class="cls-4" d="M898.8 909.37c-.32.8-.32 1.63 1.91 1.63h6.4c2.13 0 2 .28 1.42-2.84a15.71 15.71 0 0 0-2.13-5.7 8.62 8.62 0 0 0-1.43-2.13 1.78 1.78 0 0 0-2.84 0 25.34 25.34 0 0 0-2.14 3.56c-.42 1.11-1.19 5.48-1.19 5.48z"/><path class="cls-4" d="M900.58 898.91h6.4v1.42h-6.4zM909.47 909.37c-.32.8-.32 1.63 1.91 1.63h6.4c2.14 0 2.05.28 1.42-2.84a15.71 15.71 0 0 0-2.13-5.7 8.79 8.79 0 0 0-1.42-2.13 1.79 1.79 0 0 0-2.85 0 24.59 24.59 0 0 0-2.13 3.56c-.43 1.11-1.2 5.48-1.2 5.48z"/><path class="cls-4" d="M911.25 898.91h6.4v1.42h-6.4zM920.14 909.37c-.31.8-.31 1.63 1.91 1.63h6.4c2.14 0 2 .28 1.43-2.84a15.86 15.86 0 0 0-2.14-5.7 8.79 8.79 0 0 0-1.42-2.13 1.79 1.79 0 0 0-2.85 0 24.59 24.59 0 0 0-2.13 3.56c-.43 1.11-1.2 5.48-1.2 5.48z"/><path class="cls-4" d="M921.93 898.91h6.4v1.42h-6.4z"/><path class="cls-7" d="M893.82 909.37c-.32.8-.32 1.63 1.91 1.63h6.4c2.13 0 2 .28 1.42-2.84a15.71 15.71 0 0 0-2.13-5.7 8.62 8.62 0 0 0-1.43-2.13 1.77 1.77 0 0 0-2.84 0 25.34 25.34 0 0 0-2.14 3.56c-.42 1.11-1.19 5.48-1.19 5.48z"/><path class="cls-7" d="M895.6 898.91h6.4v1.42h-6.4zM904.49 909.37c-.32.8-.32 1.63 1.91 1.63h6.4c2.14 0 2.05.28 1.42-2.84a15.71 15.71 0 0 0-2.13-5.7 8.79 8.79 0 0 0-1.42-2.13 2.52 2.52 0 0 0-1.43-.71 2.48 2.48 0 0 0-1.42.71 24.59 24.59 0 0 0-2.13 3.56c-.43 1.11-1.2 5.48-1.2 5.48z"/><path class="cls-7" d="M906.27 898.91h6.4v1.42h-6.4zM915.16 909.37c-.31.8-.31 1.63 1.91 1.63h6.4c2.14 0 2 .28 1.43-2.84a15.86 15.86 0 0 0-2.14-5.7 8.79 8.79 0 0 0-1.42-2.13 1.79 1.79 0 0 0-2.85 0 24.59 24.59 0 0 0-2.13 3.56c-.43 1.11-1.2 5.48-1.2 5.48z"/><path class="cls-7" d="M916.95 898.91h6.4v1.42h-6.4zM925.83 909.37c-.31.8-.31 1.63 1.91 1.63h6.4c2.14 0 2.05.28 1.43-2.84a15.67 15.67 0 0 0-2.14-5.7 8.79 8.79 0 0 0-1.42-2.13 2.48 2.48 0 0 0-1.42-.71 2.52 2.52 0 0 0-1.43.71 24.59 24.59 0 0 0-2.13 3.56c-.43 1.11-1.2 5.48-1.2 5.48z"/><path class="cls-7" d="M927.62 898.91h6.4v1.42h-6.4z"/><path class="cls-4" d="M943.62 909.37c-.32.8-.32 1.63 1.91 1.63h6.4c2.14 0 2.05.28 1.42-2.84a15.71 15.71 0 0 0-2.13-5.7 8.79 8.79 0 0 0-1.42-2.13 1.79 1.79 0 0 0-2.85 0 24.59 24.59 0 0 0-2.13 3.56c-.43 1.11-1.2 5.48-1.2 5.48z"/><path class="cls-4" d="M945.4 898.91h6.4v1.42h-6.4zM954.29 909.37c-.31.8-.31 1.63 1.91 1.63h6.4c2.14 0 2 .28 1.43-2.84a15.86 15.86 0 0 0-2.14-5.7 8.79 8.79 0 0 0-1.42-2.13 1.79 1.79 0 0 0-2.85 0 24.59 24.59 0 0 0-2.13 3.56c-.43 1.11-1.2 5.48-1.2 5.48z"/><path class="cls-4" d="M956.08 898.91h6.4v1.42h-6.4zM965 909.37c-.31.8-.31 1.63 1.91 1.63h6.4c2.14 0 2.05.28 1.43-2.84a15.67 15.67 0 0 0-2.14-5.7 8.79 8.79 0 0 0-1.42-2.13 2.48 2.48 0 0 0-1.42-.71 2.52 2.52 0 0 0-1.43.71 24.59 24.59 0 0 0-2.13 3.56c-.47 1.11-1.2 5.48-1.2 5.48z"/><path class="cls-4" d="M966.75 898.91h6.4v1.42h-6.4z"/><path class="cls-7" d="M938.64 909.37c-.32.8-.32 1.63 1.91 1.63H947c2.14 0 2 .28 1.42-2.84a15.71 15.71 0 0 0-2.13-5.7 8.79 8.79 0 0 0-1.42-2.13 2.52 2.52 0 0 0-1.43-.71 2.48 2.48 0 0 0-1.42.71 24.59 24.59 0 0 0-2.13 3.56c-.48 1.11-1.25 5.48-1.25 5.48z"/><path class="cls-7" d="M940.42 898.91h6.4v1.42h-6.4zM949.31 909.37c-.31.8-.31 1.63 1.91 1.63h6.4c2.14 0 2 .28 1.43-2.84a15.86 15.86 0 0 0-2.14-5.7 8.79 8.79 0 0 0-1.42-2.13 1.79 1.79 0 0 0-2.85 0 24.59 24.59 0 0 0-2.13 3.56c-.43 1.11-1.2 5.48-1.2 5.48z"/><path class="cls-7" d="M951.1 898.91h6.4v1.42h-6.4zM960 909.37c-.31.8-.31 1.63 1.91 1.63h6.4c2.14 0 2.05.28 1.43-2.84a15.67 15.67 0 0 0-2.14-5.7 8.79 8.79 0 0 0-1.42-2.13 2.48 2.48 0 0 0-1.42-.71 2.52 2.52 0 0 0-1.43.71 24.59 24.59 0 0 0-2.13 3.56c-.45 1.11-1.2 5.48-1.2 5.48z"/><path class="cls-7" d="M961.77 898.91h6.4v1.42h-6.4zM970.65 909.37c-.31.8-.31 1.63 1.91 1.63H979c2.13 0 2 .28 1.42-2.84a15.48 15.48 0 0 0-2.14-5.7 8.79 8.79 0 0 0-1.42-2.13 1.77 1.77 0 0 0-2.84 0 25.34 25.34 0 0 0-2.14 3.56c-.46 1.11-1.23 5.48-1.23 5.48z"/><path class="cls-7" d="M972.44 898.91h6.4v1.42h-6.4z"/><path class="cls-4" d="M989.15 909.37c-.31.8-.31 1.63 1.91 1.63h6.4c2.14 0 2 .28 1.43-2.84a15.67 15.67 0 0 0-2.14-5.7 8.79 8.79 0 0 0-1.42-2.13 2.48 2.48 0 0 0-1.42-.71 2.52 2.52 0 0 0-1.43.71 24.59 24.59 0 0 0-2.13 3.56c-.43 1.11-1.2 5.48-1.2 5.48z"/><path class="cls-4" d="M990.94 898.91h6.4v1.42h-6.4zM999.82 909.37c-.31.8-.31 1.63 1.91 1.63h6.41c2.13 0 2 .28 1.42-2.84a15.48 15.48 0 0 0-2.14-5.7 8.79 8.79 0 0 0-1.42-2.13 1.77 1.77 0 0 0-2.84 0 25.34 25.34 0 0 0-2.14 3.56c-.43 1.11-1.2 5.48-1.2 5.48z"/><path class="cls-4" d="M1001.61 898.91h6.4v1.42h-6.4zM1010.49 909.37c-.31.8-.31 1.63 1.91 1.63h6.41c2.13 0 2 .28 1.42-2.84a15.71 15.71 0 0 0-2.13-5.7 8.62 8.62 0 0 0-1.43-2.13 1.77 1.77 0 0 0-2.84 0 25.34 25.34 0 0 0-2.14 3.56c-.42 1.11-1.2 5.48-1.2 5.48z"/><path class="cls-4" d="M1012.28 898.91h6.4v1.42h-6.4z"/><path class="cls-7" d="M984.17 909.37c-.31.8-.31 1.63 1.91 1.63h6.4c2.14 0 2 .28 1.43-2.84a15.67 15.67 0 0 0-2.14-5.7 8.79 8.79 0 0 0-1.42-2.13 2.48 2.48 0 0 0-1.42-.71 2.52 2.52 0 0 0-1.43.71 24.59 24.59 0 0 0-2.13 3.56c-.43 1.11-1.2 5.48-1.2 5.48z"/><path class="cls-7" d="M985.96 898.91h6.4v1.42h-6.4zM994.84 909.37c-.31.8-.31 1.63 1.91 1.63h6.41c2.13 0 2 .28 1.42-2.84a15.48 15.48 0 0 0-2.14-5.7 8.79 8.79 0 0 0-1.42-2.13 1.77 1.77 0 0 0-2.84 0 25.34 25.34 0 0 0-2.14 3.56c-.43 1.11-1.2 5.48-1.2 5.48z"/><path class="cls-7" d="M996.63 898.91h6.4v1.42h-6.4zM1005.51 909.37c-.31.8-.31 1.63 1.91 1.63h6.41c2.13 0 2 .28 1.42-2.84a15.71 15.71 0 0 0-2.13-5.7 9 9 0 0 0-1.43-2.13 1.77 1.77 0 0 0-2.84 0 25.34 25.34 0 0 0-2.14 3.56c-.42 1.11-1.2 5.48-1.2 5.48z"/><path class="cls-7" d="M1007.3 898.91h6.4v1.42h-6.4zM1016.19 909.37c-.32.8-.32 1.63 1.91 1.63h6.4c2.13 0 2 .28 1.42-2.84a15.71 15.71 0 0 0-2.13-5.7 8.79 8.79 0 0 0-1.42-2.13 2.52 2.52 0 0 0-1.43-.71 2.48 2.48 0 0 0-1.42.71 24.59 24.59 0 0 0-2.13 3.56c-.39 1.11-1.2 5.48-1.2 5.48z"/><path class="cls-7" d="M1017.97 898.91h6.4v1.42h-6.4z"/><path class="cls-3" d="M894.53 475.59l2.14-4.27h4.27l4.27 4.98v12.81h-10.68v-13.52zM939.36 475.59l2.13-4.27h4.27l4.27 4.98v12.81h-10.67v-13.52zM984.89 475.59l2.13-4.27h4.27l4.27 4.98v12.81h-10.67v-13.52zM1025.44 475.59l-2.13-4.27h-4.27l-4.27 4.98v12.81h10.67v-13.52zM979.91 475.59l-2.14-4.27h-4.26l-4.27 4.98v12.81h10.67v-13.52zM935.09 475.59l-2.14-4.27h-4.27l-4.26 4.98v12.81h10.67v-13.52z"/><path d="M940.1 463.53c-3.59 2.1-2.88 2.1-7.86 2.1s-11.38-.71-13.52-.71-4.26-3.56-6.4 0-2.13 4.27-1.42 4.27h7.1s-.71-.71 1.43-.71h7.11c.71 0 4.45-.27 7.92-.14s7.73.14 9.87.14 6.4.71 7.82 0a12.41 12.41 0 0 1 4.27-.72H965s0 .72 1.42.72H997a10.33 10.33 0 0 1 4.27.71h7.12s0-4.27-2.85-5.69-1.42 1.42-4.27 1.42H987c-2.84 0-2.84.71-5 0a11.39 11.39 0 0 1-3.23-1.46h-5.3c-4.3 0-8.37-.72-10-.72-1.43 0-2.14 2.14-4.27 2.14s-1.43-2.14-3.56-2.14-15.54.79-15.54.79z" fill="#ccc"/></svg>