<svg id="Layer_1" data-name="Layer 1" xmlns="http://www.w3.org/2000/svg" width="1920" height="1080"><defs><style>.cls-2{fill:#fff}.cls-3{fill:#434444}.cls-4{fill:#333}.cls-5,.cls-6{fill:#1a1a1a}.cls-5{opacity:.4}.cls-7{fill:#4d5458}</style></defs><path fill="#c1272d" d="M0 0h1920v1080H0z"/><path class="cls-2" d="M946.17 671.087v42.045c0 6.925.494 75.68.494 80.627v85.079c0 1.978-.495 79.638-.495 82.11s-.494 37.594-.494 41.056.363 17.99.99 18.302c1.978.99 20.28 1.484 23.742.495s3.957-9.893 3.463-21.27c-.465-7.438-1.484-60.347-.99-119.21.555-66.04 0-136.134 0-142.952 0-6.54.556-32.144.495-61.336-.059-28.217-.738-60.128-.495-61.83.495-3.463 5.936-4.947 5.936-11.872 0-9.892.495-41.55 0-50.948s-4.946-28.69-14.84-35.614-22.25 16.607-22.753 30.668c-.495 13.85-.99 43.528-.99 49.464 0 14.84 3.552 13.038 5.442 16.818.99 1.978.494 58.368.494 58.368z"/><path class="cls-2" d="M915.007 737.37v273.043c0 6.43 7.42 7.42 12.86 7.42s14.345 1.484 14.345-22.754-.494-137.511-.494-146.91v-110.8c0-2.968 1.978-21.27-1.484-29.678s-8.41-14.84-11.872-14.84-9.398 6.43-11.377 13.356a56.76 56.76 0 0 0-2.473 17.312c0 6.43.495 13.85.495 13.85zM977.827 736.875v273.043c0 6.43 7.42 7.42 12.86 7.42s14.345 1.484 14.345-22.753-.495-137.512-.495-146.91v-110.8c0-2.968 1.98-21.27-1.483-29.679s-8.41-14.84-11.872-14.84-9.398 6.431-11.377 13.356a56.76 56.76 0 0 0-2.473 17.313c0 6.43.495 13.85.495 13.85z"/><path class="cls-3" d="M926.384 723.025h4.451s.495 4.946 0 4.946-1.483 2.473-1.483 4.452-.495 1.484-.495 2.968v29.184c0 1.484.495 2.473.495 4.946v12.861c0 .99-.495.99-.495 3.463V987.66c0 1.978.172 21.635.172 21.635l1.312 1.613-1.979.99-2.645-1.083s2.15.093 2.15-1.391v-28.69c0-1.978-.494-46.001-.494-48.475V737.37c0-2.473.495-6.925 0-7.42s-.99-1.978-.99-4.451zM957.546 722.035h4.452s.495 4.947 0 4.947-1.484 2.473-1.484 4.452-.495 1.484-.495 2.967v29.184c0 1.484.495 2.474.495 4.947v12.86c0 .99-.495.99-.495 3.463V986.67c0 1.979.173 21.636.173 21.636l1.311 1.613-1.978.989-2.645-1.082s2.15.093 2.15-1.391v-28.69c0-1.978-.494-46.002-.494-48.475V736.38c0-2.473.494-6.925 0-7.42s-.99-1.978-.99-4.451zM988.709 723.025h4.452v7.42c0 1.978 0 2.967 1.978 2.967s1.979 1.484 1.979 3.463v6.43s.494 1.979-1.979 1.979-1.978 1.484-1.978 3.462v5.936c0 2.968-.99 1.484-.99 7.914v114.758c0 1.484.495 17.807.495 19.786s-.99 3.462 2.968 3.462 3.462 0 3.462 7.42-.494 4.946-3.462 5.44-1.979 0-1.979 4.453v8.903c0 1.979-.989 0-.989 5.936v76.67l-.99 1.978-1.483-.989s-.99-24.237-.99-28.195v-8.409c0-2.473.495-2.967-.989-4.451s-.99-2.968-.99-4.452 0-3.463 1.485-3.957.495-6.925.495-9.399v-6.43c0-1.484 0-1.979-1.484-3.462s-.99-6.43.494-6.925.99-1.98.99-5.936V752.703c0-1.978-.495-14.839-.495-16.323z"/><path class="cls-4" d="M930.34 999.531c0 .495-.653 6.397-.988 8.409-.495 2.968-.99 1.979-1.98-3.463-.82-4.515-1.855-12.226-2.801-20.137-.058-.484 1.375-1.143 1.318-1.627-.063-.532-1.616-.89-1.677-1.422a817.85 817.85 0 0 1-1.538-14.282c-.055-.562 1.78-1.08 1.731-1.608-.054-.57-1.789-1.209-2.04-1.673-.433-.8-.847-5.275-.928-6.242-.494-5.935-.494-11.871-.99-12.86s-1.483-3.463-2.967 0a37.435 37.435 0 0 0-1.979 4.946c0 .495-.494 3.462-.494 4.452v13.355c0 1.484-.495 11.872-.495 14.84s-.494 9.892-.494 11.871-.495 9.398-.495 10.387-.495 6.43-.495 6.925c0 3.463.99 3.958-.494 5.936s.494 2.473 1.484 2.473 1.483 1.484 1.483 1.979h24.733c.989 0 3.462 0 3.462-5.936s-.494-18.796-.494-22.259-1.484-32.646-1.484-36.603 0-7.42-1.484-10.388a16.872 16.872 0 0 1-.8-1.833c-.27-.75-.24-1.283-.684-1.63a1.446 1.446 0 0 0-1.01-.282c-1.442.221-1.412 3.656-1.463 4.24-.587 6.621-1.083 11.892-1.484 16.323-.055.605-2.422 1.411-2.474 1.979-.045.5 2.022 1.012 1.979 1.483-.838 9.21-1.416 13.455-1.484 14.345-.035.46-1.926.851-1.979 1.484-.038.465 1.532.946 1.484 1.484"/><path class="cls-5" d="M915.996 989.143c-1.484.495-1.484 5.936-1.978 12.367s-.495 12.744-.495 13.85c0 .989-1.8 2.83-1.484 3.462.495.99 2.404.92 2.968 1.484.494.495.3 1.484.494 1.484h22.754c2.473 0 5.441.99 5.441-6.925a175.867 175.867 0 0 0-1.978-23.248c-.495-1.979-2.968-.99-3.463 0s-3.957 12.86-5.441 16.323-1.484 4.452-2.473 5.936-1.979 4.451-2.968 1.484-7.42-19.786-8.41-21.765-1.535-4.929-2.967-4.452z"/><path class="cls-6" d="M918.47 1004.972c-1.485 0-3.463 0-3.463 2.473 0 0-.495 3.957-.495 5.441s-.494 1.979 2.473 1.979h6.925a1.016 1.016 0 0 0 .99-1.484 64.906 64.906 0 0 0-2.474-6.43c-.494-.99 0-1.979-1.978-1.979zM938.82 1004.972c1.484 0 3.462 0 3.462 2.473 0 0 .495 3.957.495 5.441s.495 1.979-2.473 1.979h-6.925a1.016 1.016 0 0 1-.99-1.484 64.906 64.906 0 0 1 2.474-6.43c.494-.99 0-1.979 1.978-1.979z"/><path class="cls-4" d="M989.66 999.531c0 .495.653 6.397.988 8.409.495 2.968.99 1.979 1.98-3.463.82-4.515 1.855-12.226 2.801-20.137.058-.484-1.375-1.143-1.318-1.627.063-.532 1.616-.89 1.677-1.422a817.85 817.85 0 0 0 1.538-14.282c.055-.562-1.78-1.08-1.731-1.608.054-.57 1.789-1.209 2.04-1.673.433-.8.847-5.275.928-6.242.494-5.935.494-11.871.99-12.86s1.483-3.463 2.967 0a37.435 37.435 0 0 1 1.979 4.946c0 .495.494 3.462.494 4.452v13.355c0 1.484.495 11.872.495 14.84s.494 9.892.494 11.871.495 9.398.495 10.387.495 6.43.495 6.925c0 3.463-.99 3.958.494 5.936s-.494 2.473-1.484 2.473-1.483 1.484-1.483 1.979h-24.733c-.989 0-3.462 0-3.462-5.936s.494-18.796.494-22.259 1.484-32.646 1.484-36.603 0-7.42 1.484-10.388a16.872 16.872 0 0 0 .8-1.833c.27-.75.24-1.283.684-1.63a1.446 1.446 0 0 1 1.01-.282c1.442.221 1.412 3.656 1.463 4.24.587 6.621 1.083 11.892 1.484 16.323.055.605 2.422 1.411 2.474 1.979.045.5-2.022 1.012-1.979 1.483.838 9.21 1.416 13.455 1.484 14.345.035.46 1.926.851 1.979 1.484.038.465-1.532.946-1.484 1.484"/><path class="cls-5" d="M1004.004 989.143c1.484.495 1.484 5.936 1.978 12.367s.495 12.744.495 13.85c0 .989 1.8 2.83 1.484 3.462-.495.99-2.404.92-2.968 1.484-.494.495-.3 1.484-.494 1.484h-22.754c-2.473 0-5.441.99-5.441-6.925a175.867 175.867 0 0 1 1.978-23.248c.495-1.979 2.968-.99 3.463 0s3.957 12.86 5.441 16.323 1.484 4.452 2.473 5.936 1.979 4.451 2.968 1.484 7.42-19.786 8.41-21.765 1.535-4.929 2.967-4.452z"/><path class="cls-6" d="M1001.53 1004.972c1.485 0 3.463 0 3.463 2.473 0 0 .495 3.957.495 5.441s.494 1.979-2.473 1.979h-6.925a1.016 1.016 0 0 1-.99-1.484 64.906 64.906 0 0 1 2.474-6.43c.494-.99 0-1.979 1.978-1.979zM981.18 1004.972c-1.484 0-3.462 0-3.462 2.473 0 0-.495 3.957-.495 5.441s-.495 1.979 2.473 1.979h6.925a1.016 1.016 0 0 0 .99-1.484 64.906 64.906 0 0 0-2.474-6.43c-.494-.99 0-1.979-1.978-1.979z"/><path class="cls-4" d="M961.503 999.531c0 .495-.654 6.397-.989 8.409-.495 2.968-.99 1.979-1.978-3.463-.821-4.515-1.856-12.226-2.803-20.137-.057-.484 1.376-1.143 1.319-1.627-.063-.532-1.616-.89-1.678-1.422a817.842 817.842 0 0 1-1.537-14.282c-.055-.562 1.78-1.08 1.73-1.608-.053-.57-1.788-1.209-2.039-1.673-.434-.8-.848-5.275-.928-6.242-.495-5.935-.495-11.871-.99-12.86s-1.483-3.463-2.967 0a37.435 37.435 0 0 0-1.979 4.946c0 .495-.495 3.462-.495 4.452v13.355c0 1.484-.494 11.872-.494 14.84s-.495 9.892-.495 11.871-.495 9.398-.495 10.387-.494 6.43-.494 6.925a24.397 24.397 0 0 0 .494 6.43c.495 2.474.99 2.969.99 2.969.494.989.99.494.99.989h24.731c.99 0 3.463 0 3.463-5.936s-.495-18.796-.495-22.259-1.484-32.646-1.484-36.603 0-7.42-1.484-10.388a16.872 16.872 0 0 1-.799-1.833c-.271-.75-.24-1.283-.685-1.63a1.446 1.446 0 0 0-1.01-.282c-1.441.221-1.411 3.656-1.463 4.24-.586 6.621-1.083 11.892-1.484 16.323-.055.605-2.422 1.411-2.473 1.979-.045.5 2.021 1.012 1.979 1.483-.839 9.21-1.417 13.455-1.484 14.345-.035.46-1.927.851-1.979 1.484-.038.465 1.532.946 1.484 1.484"/><path class="cls-5" d="M947.159 989.143c-1.484.495-1.484 5.936-1.979 12.367s-.495 12.744-.495 13.85a8.17 8.17 0 0 0 .495 2.967c.495.99.425 1.415.99 1.979.494.495.3 1.484.494 1.484h22.754c2.473 0 5.44.99 5.44-6.925a175.865 175.865 0 0 0-1.978-23.248c-.494-1.979-2.968-.99-3.462 0s-3.957 12.86-5.441 16.323-1.484 4.452-2.474 5.936-1.978 4.451-2.967 1.484-7.42-19.786-8.41-21.765-1.535-4.929-2.967-4.452z"/><path class="cls-6" d="M949.632 1004.972c-1.484 0-3.463 0-3.463 2.473 0 0-.494 3.957-.494 5.441s-.495 1.979 2.473 1.979h6.925a1.016 1.016 0 0 0 .99-1.484 64.906 64.906 0 0 0-2.474-6.43c-.495-.99 0-1.979-1.979-1.979zM969.982 1004.972c1.484 0 3.463 0 3.463 2.473 0 0 .495 3.957.495 5.441s.494 1.979-2.474 1.979h-6.925a1.016 1.016 0 0 1-.989-1.484 64.906 64.906 0 0 1 2.473-6.43c.495-.99 0-1.979 1.979-1.979z"/><path class="cls-4" d="M917.475 1029.064c-.218.555-.218 1.135 1.328 1.135h4.452c1.484 0 1.423.19.989-1.979a10.842 10.842 0 0 0-1.484-3.957 6.122 6.122 0 0 0-.99-1.484 1.237 1.237 0 0 0-1.978 0 17.346 17.346 0 0 0-1.484 2.473c-.297.802-.833 3.812-.833 3.812z"/><path class="cls-4" d="M918.717 1021.79h4.452v.989h-4.452zM924.894 1029.064c-.217.555-.217 1.135 1.329 1.135h4.451c1.484 0 1.423.19.99-1.979a10.842 10.842 0 0 0-1.484-3.957 6.122 6.122 0 0 0-.99-1.484 1.237 1.237 0 0 0-1.978 0 17.346 17.346 0 0 0-1.484 2.473c-.297.802-.834 3.812-.834 3.812z"/><path class="cls-4" d="M926.136 1021.79h4.452v.989h-4.452zM932.314 1029.064c-.218.555-.218 1.135 1.328 1.135h4.452c1.484 0 1.423.19.99-1.979a10.842 10.842 0 0 0-1.485-3.957 6.122 6.122 0 0 0-.989-1.484 1.237 1.237 0 0 0-1.978 0 17.345 17.345 0 0 0-1.484 2.473c-.298.802-.834 3.812-.834 3.812z"/><path class="cls-4" d="M933.556 1021.79h4.452v.989h-4.452z"/><path class="cls-7" d="M914.012 1029.064c-.217.555-.217 1.135 1.328 1.135h4.452c1.484 0 1.423.19.99-1.979a10.842 10.842 0 0 0-1.484-3.957 6.122 6.122 0 0 0-.99-1.484 1.237 1.237 0 0 0-1.978 0 17.346 17.346 0 0 0-1.484 2.473c-.297.802-.834 3.812-.834 3.812z"/><path class="cls-7" d="M915.254 1021.79h4.452v.989h-4.452zM921.432 1029.064c-.218.555-.218 1.135 1.328 1.135h4.452c1.484 0 1.423.19.99-1.979a10.842 10.842 0 0 0-1.485-3.957 6.122 6.122 0 0 0-.99-1.484 1.237 1.237 0 0 0-1.978 0 17.345 17.345 0 0 0-1.484 2.473c-.297.802-.833 3.812-.833 3.812z"/><path class="cls-7" d="M922.674 1021.79h4.452v.989h-4.452zM928.851 1029.064c-.217.555-.217 1.135 1.329 1.135h4.452c1.483 0 1.423.19.989-1.979a10.842 10.842 0 0 0-1.484-3.957 6.122 6.122 0 0 0-.99-1.484 1.237 1.237 0 0 0-1.978 0 17.345 17.345 0 0 0-1.484 2.473c-.297.802-.834 3.812-.834 3.812z"/><path class="cls-7" d="M930.093 1021.79h4.452v.989h-4.452zM936.271 1029.064c-.217.555-.217 1.135 1.328 1.135h4.452c1.484 0 1.423.19.99-1.979a10.842 10.842 0 0 0-1.484-3.957 6.122 6.122 0 0 0-.99-1.484 1.237 1.237 0 0 0-1.978 0 17.345 17.345 0 0 0-1.484 2.473c-.297.802-.834 3.812-.834 3.812z"/><path class="cls-7" d="M937.513 1021.79h4.452v.989h-4.452z"/><path class="cls-4" d="M948.637 1029.064c-.217.555-.217 1.135 1.329 1.135h4.451c1.484 0 1.423.19.99-1.979a10.842 10.842 0 0 0-1.484-3.957 6.122 6.122 0 0 0-.99-1.484 1.237 1.237 0 0 0-1.978 0 17.346 17.346 0 0 0-1.484 2.473c-.297.802-.834 3.812-.834 3.812z"/><path class="cls-4" d="M949.879 1021.79h4.452v.989h-4.452zM956.057 1029.064c-.218.555-.218 1.135 1.328 1.135h4.452c1.484 0 1.423.19.99-1.979a10.842 10.842 0 0 0-1.485-3.957 6.122 6.122 0 0 0-.989-1.484 1.237 1.237 0 0 0-1.979 0 17.345 17.345 0 0 0-1.483 2.473c-.298.802-.834 3.812-.834 3.812z"/><path class="cls-4" d="M957.299 1021.79h4.452v.989h-4.452zM963.476 1029.064c-.217.555-.217 1.135 1.329 1.135h4.452c1.484 0 1.423.19.989-1.979a10.842 10.842 0 0 0-1.484-3.957 6.122 6.122 0 0 0-.99-1.484 1.237 1.237 0 0 0-1.978 0 17.345 17.345 0 0 0-1.484 2.473c-.297.802-.834 3.812-.834 3.812z"/><path class="cls-4" d="M964.719 1021.79h4.452v.989h-4.452z"/><path class="cls-7" d="M945.175 1029.064c-.218.555-.218 1.135 1.328 1.135h4.452c1.484 0 1.423.19.99-1.979a10.842 10.842 0 0 0-1.485-3.957 6.122 6.122 0 0 0-.99-1.484 1.237 1.237 0 0 0-1.978 0 17.345 17.345 0 0 0-1.484 2.473c-.297.802-.833 3.812-.833 3.812z"/><path class="cls-7" d="M946.417 1021.79h4.452v.989h-4.452zM952.594 1029.064c-.217.555-.217 1.135 1.329 1.135h4.451c1.484 0 1.424.19.99-1.979a10.842 10.842 0 0 0-1.484-3.957 6.122 6.122 0 0 0-.99-1.484 1.237 1.237 0 0 0-1.978 0 17.345 17.345 0 0 0-1.484 2.473c-.297.802-.834 3.812-.834 3.812z"/><path class="cls-7" d="M953.836 1021.79h4.452v.989h-4.452zM960.014 1029.064c-.217.555-.217 1.135 1.328 1.135h4.452c1.484 0 1.423.19.99-1.979a10.842 10.842 0 0 0-1.485-3.957 6.122 6.122 0 0 0-.989-1.484 1.237 1.237 0 0 0-1.978 0 17.345 17.345 0 0 0-1.484 2.473c-.297.802-.834 3.812-.834 3.812z"/><path class="cls-7" d="M961.256 1021.79h4.452v.989h-4.452zM967.434 1029.064c-.218.555-.218 1.135 1.328 1.135h4.452c1.484 0 1.423.19.99-1.979a10.842 10.842 0 0 0-1.485-3.957 6.122 6.122 0 0 0-.99-1.484 1.237 1.237 0 0 0-1.978 0 17.345 17.345 0 0 0-1.484 2.473c-.297.802-.833 3.812-.833 3.812z"/><path class="cls-7" d="M968.676 1021.79h4.452v.989h-4.452z"/><path class="cls-4" d="M980.294 1029.064c-.217.555-.217 1.135 1.329 1.135h4.452c1.483 0 1.423.19.989-1.979a10.842 10.842 0 0 0-1.484-3.957 6.122 6.122 0 0 0-.99-1.484 1.237 1.237 0 0 0-1.978 0 17.345 17.345 0 0 0-1.484 2.473c-.297.802-.834 3.812-.834 3.812z"/><path class="cls-4" d="M981.537 1021.79h4.452v.989h-4.452zM987.714 1029.064c-.217.555-.217 1.135 1.328 1.135h4.452c1.484 0 1.423.19.99-1.979a10.842 10.842 0 0 0-1.484-3.957 6.122 6.122 0 0 0-.99-1.484 1.237 1.237 0 0 0-1.978 0 17.346 17.346 0 0 0-1.484 2.473c-.297.802-.834 3.812-.834 3.812z"/><path class="cls-4" d="M988.956 1021.79h4.452v.989h-4.452zM995.134 1029.064c-.218.555-.218 1.135 1.328 1.135h4.452c1.484 0 1.423.19.99-1.979a10.842 10.842 0 0 0-1.485-3.957 6.122 6.122 0 0 0-.989-1.484 1.237 1.237 0 0 0-1.979 0 17.346 17.346 0 0 0-1.484 2.473c-.297.802-.833 3.812-.833 3.812z"/><path class="cls-4" d="M996.376 1021.79h4.452v.989h-4.452z"/><path class="cls-7" d="M976.832 1029.064c-.218.555-.218 1.135 1.328 1.135h4.452c1.484 0 1.423.19.99-1.979a10.842 10.842 0 0 0-1.485-3.957 6.122 6.122 0 0 0-.989-1.484 1.237 1.237 0 0 0-1.978 0 17.346 17.346 0 0 0-1.484 2.473c-.298.802-.834 3.812-.834 3.812z"/><path class="cls-7" d="M978.074 1021.79h4.452v.989h-4.452zM984.252 1029.064c-.218.555-.218 1.135 1.328 1.135h4.452c1.484 0 1.423.19.989-1.979a10.842 10.842 0 0 0-1.484-3.957 6.122 6.122 0 0 0-.99-1.484 1.237 1.237 0 0 0-1.978 0 17.346 17.346 0 0 0-1.484 2.473c-.297.802-.833 3.812-.833 3.812z"/><path class="cls-7" d="M985.494 1021.79h4.452v.989h-4.452zM991.671 1029.064c-.217.555-.217 1.135 1.329 1.135h4.451c1.484 0 1.424.19.99-1.979a10.842 10.842 0 0 0-1.484-3.957 6.122 6.122 0 0 0-.99-1.484 1.237 1.237 0 0 0-1.978 0 17.345 17.345 0 0 0-1.484 2.473c-.297.802-.834 3.812-.834 3.812z"/><path class="cls-7" d="M992.913 1021.79h4.452v.989h-4.452zM999.09 1029.064c-.217.555-.217 1.135 1.33 1.135h4.451c1.484 0 1.423.19.99-1.979a10.842 10.842 0 0 0-1.485-3.957 6.122 6.122 0 0 0-.989-1.484 1.237 1.237 0 0 0-1.978 0 17.345 17.345 0 0 0-1.484 2.473c-.298.802-.834 3.812-.834 3.812z"/><path class="cls-7" d="M1000.333 1021.79h4.452v.989h-4.452z"/><path class="cls-3" d="M914.512 727.476l1.484-2.967h2.968l2.968 3.462v8.904h-7.42v-9.399zM945.675 727.476l1.484-2.967h2.968l2.967 3.462v8.904h-7.419v-9.399zM977.332 727.476l1.484-2.967h2.968l2.968 3.462v8.904h-7.42v-9.399zM1005.527 727.476l-1.484-2.967h-2.968l-2.968 3.462v8.904h7.42v-9.399zM973.87 727.476l-1.484-2.967h-2.968l-2.968 3.462v8.904h7.42v-9.399zM942.707 727.476l-1.484-2.967h-2.968l-2.968 3.462v8.904h7.42v-9.399z"/><path d="M946.194 719.093c-2.498 1.458-2.003 1.458-5.466 1.458s-7.914-.494-9.398-.494-2.968-2.473-4.452 0-1.484 2.968-.989 2.968h4.946s-.494-.495.99-.495h4.946c.495 0 3.096-.184 5.505-.092s5.377.092 6.861.092 4.452.495 5.441 0a8.703 8.703 0 0 1 2.968-.495h5.936s0 .495.99.495h21.269a7.18 7.18 0 0 1 2.968.495h4.946s0-2.968-1.978-3.958-.99.99-2.968.99h-9.893c-1.979 0-1.979.494-3.463 0a7.96 7.96 0 0 1-2.25-1.018s-.717.028-3.685.028-5.82-.494-6.925-.494c-.99 0-1.484 1.484-2.968 1.484s-.99-1.484-2.473-1.484-10.858.52-10.858.52z" fill="#ccc"/></svg>