<svg id="Layer_1" data-name="Layer 1" xmlns="http://www.w3.org/2000/svg" width="750" height="1334"><defs><style>.cls-2{fill:#999}.cls-3{fill:#666}</style></defs><path fill="#8e45ce" d="M0 0h750v1334H0z"/><path class="cls-2" d="M437.932 929.869l-29.807 7.976-21.811-21.826 7.996-29.802 29.807-7.976 21.811 21.825-7.996 29.803z"/><circle class="cls-3" cx="416.049" cy="907.939" r="13.634"/><path class="cls-2" d="M438.54 810.66l-29.807 7.977-21.811-21.826 7.996-29.802 29.807-7.977 21.811 21.826-7.996 29.802z"/><circle class="cls-3" cx="416.657" cy="788.731" r="13.634"/><path class="cls-2" d="M437.932 691.452l-29.807 7.976-21.811-21.825 7.996-29.803 29.807-7.976 21.811 21.826-7.996 29.802z"/><circle class="cls-3" cx="416.049" cy="669.522" r="13.634"/><path class="cls-2" d="M438.54 1049.077l-29.807 7.976-21.811-21.826 7.996-29.802 29.807-7.976 21.811 21.826-7.996 29.802z"/><circle class="cls-3" cx="416.657" cy="1027.147" r="13.634"/><path class="cls-2" d="M437.932 1168.285l-29.807 7.976-21.811-21.825 7.996-29.802 29.807-7.977 21.811 21.826-7.996 29.802z"/><circle class="cls-3" cx="416.049" cy="1146.355" r="13.634"/><path d="M417.378 947.151l-27.391-27.347a2.525 2.525 0 0 1-.666-2.13l5.148-28.213a2.468 2.468 0 0 1 1.95-1.943l28.227-5.009a2.467 2.467 0 0 1 2.128.672l27.33 27.286a4.827 4.827 0 0 0 7.36-.598A34.728 34.728 0 0 0 468 890.538a7.754 7.754 0 0 0-.06-1.217c-.414-7.603-4.649-23.909-18.012-36.518-12.876-12.243-36.822-25.049-63.538-13.774-3.225 1.334-7.485 2.848-11.979-1.659-4.494-4.628-114.354-121.62-114.354-121.62-9.412-10.96-26.869-10.194-37.04-.112a27.244 27.244 0 0 0-7.812 19.026 23.408 23.408 0 0 0 7.943 18.014s116.074 109.275 121.358 114.635c2.369 2.436 3.095 4.687 3.092 6.755a11.475 11.475 0 0 1-1.467 5.229 42.805 42.805 0 0 0-4.528 19.7c-.023 16.3 7.495 33.461 17.94 43.937 14.82 14.861 29.17 17.618 36.529 18.054a32.522 32.522 0 0 0 20.81-6.478 4.95 4.95 0 0 0 .496-7.359zM236.301 740.958a8.558 8.558 0 1 1 12.104.017 8.665 8.665 0 0 1-12.104-.017z" fill="#fff"/></svg>