<svg id="Layer_1" data-name="Layer 1" xmlns="http://www.w3.org/2000/svg" width="1920" height="1080"><defs><style>.cls-1{fill:#39b54a}</style></defs><path d="M1266.16 802.38a20.917 20.917 0 0 1-28.84-6.45l-106.25-159.88c-.44.23-.88.46-1.32.68l36.15-23.92 106.73 160.61a21.061 21.061 0 0 1-6.47 28.96z"/><path class="cls-1" d="M1166.747 378.718a152.784 152.784 0 1 0 23.12 114.724 152.086 152.086 0 0 0-23.12-114.724z"/><path class="cls-1" d="M0 0v1080h1920V0zm848.4 426.29c20.76-105.57 123.2-174.45 228.9-153.67 105.7 20.79 174.46 123.2 153.7 228.78a194.482 194.482 0 0 1-65.32 111.09l.22.32 106.73 160.61a21.061 21.061 0 0 1-6.47 28.96 20.917 20.917 0 0 1-28.84-6.45l-106.25-159.88c-.44.23-.88.46-1.32.68a194.13 194.13 0 0 1-127.65 18.34c-105.7-20.79-174.46-123.2-153.7-228.78z"/></svg>