<svg id="Layer_1" data-name="Layer 1" xmlns="http://www.w3.org/2000/svg" viewBox="0 0 1920 1080"><defs><style>.cls-1{fill:#39b54a}</style></defs><path transform="rotate(-33.5 1328.77 663.477)" d="M998.82 447.23h660.14v432.53H998.82z"/><path class="cls-1" d="M1088.19 305.58a168.73 168.73 0 1 0 25.53 126.69 168 168 0 0 0-25.53-126.69z"/><path class="cls-1" d="M110 0v1080h1810V0zm1088 773.42a23.09 23.09 0 0 1-31.84-7.12l-117.37-176.55a214.55 214.55 0 0 1-142.42 21c-116.73-23-192.66-136-169.73-252.63s136.05-192.65 252.77-169.7 192.65 136.05 169.73 252.64A214.81 214.81 0 0 1 1087 563.73l118.1 177.71a23.25 23.25 0 0 1-7.1 31.98zM0 0h110v1080H0z"/></svg>