<svg id="Layer_1" data-name="Layer 1" xmlns="http://www.w3.org/2000/svg" width="1920" height="1080"><defs><style>.cls-1{fill:#39b54a}</style></defs><path transform="rotate(-33.497 1328.896 663.49)" d="M998.825 447.228h660.142v432.525H998.825z"/><path class="cls-1" d="M1088.187 305.579a168.718 168.718 0 1 0 25.532 126.688 167.948 167.948 0 0 0-25.532-126.688z"/><path class="cls-1" d="M0 0v1080h1920V0zm1197.96 773.42a23.087 23.087 0 0 1-31.84-7.12l-117.33-176.55a214.546 214.546 0 0 1-142.42 21C789.64 587.8 713.71 474.7 736.64 358.12c22.93-116.59 136.05-192.65 252.77-169.7 116.73 22.95 192.65 136.05 169.73 252.64a214.815 214.815 0 0 1-72.13 122.67l118.1 177.71a23.247 23.247 0 0 1-7.15 31.98z"/></svg>