<svg id="Layer_1" data-name="Layer 1" xmlns="http://www.w3.org/2000/svg" width="1233" height="1436"><defs><style>.cls-3{fill:#39b54a}</style><clipPath id="clip-path"><path fill="none" d="M0 0h1233v1436H0z"/></clipPath></defs><g clip-path="url(#clip-path)"><path class="cls-3" d="M0 786h375v650H0z"/><path transform="rotate(-33.497 852.864 1168.145)" d="M640.598 1029.068h424.533v278.154H640.598z"/><path class="cls-3" d="M698.066 937.974a108.502 108.502 0 1 0 16.42 81.473 108.006 108.006 0 0 0-16.42-81.473z"/><path class="cls-3" d="M69 741.459V1436h1164V741.459zm699.663 497.384a14.862 14.862 0 0 1-20.48-4.58l-75.455-113.541a139.319 139.319 0 1 1 24.58-16.732l75.953 114.284a14.96 14.96 0 0 1-4.598 20.57z"/><path class="cls-3" d="M0 0h1233v786H0z"/></g></svg>