<svg id="Layer_1" data-name="Layer 1" xmlns="http://www.w3.org/2000/svg" width="1920" height="1080"><defs><style>.cls-3{fill:#7e8789}.cls-6,.cls-7{stroke:#000;stroke-linecap:round;stroke-miterlimit:10;fill:none}.cls-6{stroke-width:5px}.cls-7{stroke-width:3px}</style></defs><path fill="#fbb03b" d="M0 0h1920v1080H0z"/><path d="M1139.35 345.652h8.947V720.25h-8.947zM1194.824 345.652h8.947V720.25h-8.947zM1253.877 345.652h10.14V720.25h-10.14zM1314.122 345.652h8.947V720.25h-8.947zM1373.175 345.652h10.14V720.25h-10.14z"/><path d="M1172.157 407.09v313.756h252.317V407.091zm50.702 300.037h-28.632v-28.632h28.632zm0-85.895h-28.632V592.6h28.632zm0-85.895h-28.632v-28.632h28.632zm0-85.895h-28.632V420.81h28.632zm59.65 257.685h-28.632v-28.632h28.631zm0-85.895h-28.632V592.6h28.631zm0-85.895h-28.632v-28.632h28.631zm0-85.895h-28.632V420.81h28.631zm59.649 257.685h-28.632v-28.632h28.632zm0-85.895h-28.632V592.6h28.632zm0-85.895h-28.632v-28.632h28.632zm0-85.895h-28.632V420.81h28.632zm59.649 257.685h-28.632v-28.632h28.632zm0-85.895h-28.632V592.6h28.632zm0-85.895h-28.632v-28.632h28.632zm0-85.895h-28.632V420.81h28.632z" fill="#b3b3b3"/><path class="cls-3" d="M1121.455 464.951h303.018v7.158h-303.018zM1121.455 548.46h303.018v7.158h-303.018zM1121.455 631.969h303.018v7.158h-303.018z"/><path fill="#999" d="M1471 710.109l-46.526 10.737V407.091l44.737 18.491L1471 710.109z"/><path transform="rotate(-180 986.014 712.77)" d="M876.742 704.597h218.545v16.344H876.742z"/><path transform="rotate(-180 986.014 696.892)" d="M913.633 688.72h144.763v16.344H913.633z"/><path transform="rotate(-180 986.014 680.548)" d="M950.991 672.376h70.046v16.344h-70.046z"/><path stroke-width="22" stroke="#000" stroke-linecap="round" stroke-miterlimit="10" d="M1175.14 381.45H866.935"/><path class="cls-6" d="M1166.734 385.185V457.1M1155.293 385.419v71.914M1003.993 441.923h-38.292M1003.993 470.409h-38.292M1003.993 498.894h-38.292M1003.993 527.38h-38.292M1004.46 555.865h-38.292M1003.993 584.818h-38.292M1004.46 613.77h-38.292M1003.993 642.256h-38.292M1004.46 672.142l-36.891-28.485M965.701 672.142l37.358-28.485M965.701 641.789l36.424-26.618M965.701 613.303l38.292-28.485M967.102 583.884l36.424-26.618M967.102 554.931l36.424-26.617M966.635 526.913l36.424-26.618M966.635 498.427l36.424-26.617M966.635 469.475l36.424-26.618M1003.993 641.789l-36.424-26.618M1003.059 612.369l-36.424-26.617M1003.059 583.884l-36.424-26.618M1003.059 555.398l-36.424-26.617M1003.526 526.913l-36.424-26.618M1003.526 498.427l-36.424-26.617M1003.993 470.409l-38.292-28.486"/><path class="cls-7" d="M972.602 370.009l24.386-17.821M997.922 370.476l-25.684-18.679M973.069 350.863l24.386-17.821M997.922 351.33l-25.478-18.913M973.069 331.25l24.386-17.821M972.238 313h25.791M972.238 332.613h25.791M972.238 351.759h25.791M998.209 370.943V313.18M972.058 370.943V313.18M998.155 331.95l-25.45-18.912"/><path class="cls-6" d="M1004.46 439.121v233.021M965.701 439.121v233.021"/><path d="M958.93 381.917v58.839h52.3v-58.84zm5.603 11.207h41.094v27.552h-41.094z"/><path transform="rotate(-180 985.08 373.278)" d="M964.533 370.242h41.094v6.071h-41.094z"/><path class="cls-6" d="M997.455 313.505l162.041 63.975M864.367 381.683l107.404-68.178"/><path transform="rotate(-180 894.954 415.072)" d="M866.235 386.353h57.438v57.438h-57.438z"/><path d="M1169.536 460.369c-.47 4.739-3.908 11.083-4.203 11.674-.467.934-.934 1.868-2.335 1.868h-3.736c-.934 0-3.268-3.269-4.202-5.604s-2.335-5.603-1.868-8.872 1.868-7.939 7.004-7.939c3.736 0 5.604 1.328 6.538 2.299a10.63 10.63 0 0 1 2.335 3.772 6.288 6.288 0 0 1 .467 2.802z"/><path d="M1161.13 473.911v2.582s-8.172-.48-8.172 7.458c0 2.335.934 4.203 4.203 5.137 2.84.811 7.472-.92 7.472-3.27" stroke-width="7" fill="none" stroke="#000" stroke-linecap="round" stroke-miterlimit="10"/></svg>