<svg id="Layer_1" data-name="Layer 1" xmlns="http://www.w3.org/2000/svg" viewBox="0 0 1920 1080"><defs><style>.cls-2,.cls-3{stroke:#fff;stroke-miterlimit:10;stroke-width:5px}.cls-3{stroke-linecap:round}</style></defs><path fill="#b3b3b3" d="M0 0h1920v1080H0z"/><path class="cls-2" d="M854 678c-5.81-.47-10-6-9-17s8-17 17-22 41.36-22.82 45-25c5-3 6-8 0-4s-21 14-29 18-23 14-33 19c-10.2 5.1-23 7-29 0s-9-15 0-27 106.46-84.56 155-103c50-19 25-13 68-25 40.47-11.29 54.77-15.67 67-12 10 3 49 111 49 111s-17 21-21 24-145 82.32-164.5 95.5c-37 25-80.08 14.87-45.5-7.5 34-22 38-24 37-26s-8.38 6-23 12c-13.4 5.52-42.08 19-56 15-6.79-2-13-11-4-21s48-30 50-33 2.1-3.84-6 1c-15.7 9.39-49.77 28.48-68 27z"/><path class="cls-2" d="M820 615c-3.47 4.12-35-25-35-25 5-13 63-113 63-113 14 4 25 7 50 0s57-9 74-7 39 4 45 8 27 26 34 38 20 23 18 35-6 15-15 13-23-7-30-13a343.92 343.92 0 0 1-27-27c-6-7-6.35-9.93-17-7-45.22 12.45-129.75 62.15-160 98zM1167 421l-83 42 77 142 65-29-59-155z"/><path class="cls-2" d="M772 421l83 42-77 142-65-29 59-155z"/><rect class="cls-3" x="986.68" y="690.5" width="63.64" height="38" rx="19" transform="rotate(45 1018.497 709.495)"/><rect class="cls-3" x="1014.63" y="661.75" width="74.25" height="38" rx="19" transform="rotate(45 1051.745 680.747)"/><rect class="cls-3" x="1044.16" y="636" width="87.68" height="38" rx="19" transform="rotate(45 1088.002 654.995)"/><rect class="cls-3" x="1097.56" y="607.25" width="47.38" height="38" rx="19" transform="rotate(45 1121.25 626.247)"/></svg>