<svg id="Layer_1" data-name="Layer 1" xmlns="http://www.w3.org/2000/svg" width="749" height="1334"><defs><style>.cls-3{fill:#7e8789}.cls-6,.cls-7{stroke:#000;stroke-linecap:round;stroke-miterlimit:10;fill:none}.cls-6{stroke-width:5px}.cls-7{stroke-width:3px}</style></defs><path fill="#fbb03b" d="M0 0h749v1334H0z"/><path d="M355.112 814.944h6.013v251.751h-6.013zM392.394 814.944h6.013v251.751h-6.013zM432.081 814.944h6.815v251.751h-6.815zM472.569 814.944h6.013v251.751h-6.013zM512.256 814.944h6.815v251.751h-6.815z"/><path d="M378.16 856.234v210.862h169.572V856.234zm34.075 201.642h-19.242v-19.243h19.242zm0-57.727h-19.242v-19.242h19.242zm0-57.726h-19.242v-19.242h19.242zm0-57.726h-19.242v-19.242h19.242zm40.088 173.179H433.08v-19.243h19.242zm0-57.727H433.08v-19.242h19.242zm0-57.726H433.08v-19.242h19.242zm0-57.726H433.08v-19.242h19.242zm40.088 173.179h-19.243v-19.243h19.243zm0-57.727h-19.243v-19.242h19.243zm0-57.726h-19.243v-19.242h19.243zm0-57.726h-19.243v-19.242h19.243zm40.087 173.179h-19.242v-19.243h19.242zm0-57.727h-19.242v-19.242h19.242zm0-57.726h-19.242v-19.242h19.242zm0-57.726h-19.242v-19.242h19.242z" transform="translate(-1)" fill="#b3b3b3"/><path class="cls-3" d="M343.086 895.119h203.645v4.811H343.086zM343.086 951.242h203.645v4.811H343.086zM343.086 1007.365h203.645v4.811H343.086z"/><path fill="#999" d="M578 1059.88l-31.268 7.216V856.234l30.065 12.428L578 1059.88z"/><path transform="rotate(-180 252.562 1061.668)" d="M179.625 1056.176H326.5v10.984H179.625z"/><path transform="rotate(-180 252.562 1050.997)" d="M204.418 1045.505h97.289v10.984h-97.289z"/><path transform="rotate(-180 252.562 1040.013)" d="M229.524 1034.521h47.075v10.984h-47.075z"/><path stroke-width="22" stroke="#000" stroke-linecap="round" stroke-miterlimit="10" d="M379.165 839.002H172.034"/><path class="cls-6" d="M373.516 841.513v48.33M365.827 841.67V890M264.145 879.644H238.41M264.145 898.788H238.41M264.145 917.931H238.41M264.145 937.075H238.41M264.459 956.219h-25.735M264.145 975.677H238.41M264.459 995.135h-25.735M264.145 1014.279H238.41M264.459 1034.364l-24.793-19.144M238.41 1034.364l25.107-19.144M238.41 1013.965l24.479-17.889M238.41 994.821l25.735-19.144M239.352 975.049l24.479-17.888M239.352 955.592l24.479-17.889M239.038 936.761l24.479-17.888M239.038 917.618l24.479-17.889M239.038 898.16l24.479-17.889M264.145 1013.965l-24.479-17.889M263.517 994.193l-24.479-17.888M263.517 975.049l-24.479-17.888M263.517 955.905l-24.479-17.888M263.831 936.761l-24.479-17.888M263.831 917.618l-24.479-17.889M264.145 898.788l-25.735-19.144"/><path class="cls-7" d="M243.049 831.313l16.388-11.976M260.065 831.627l-17.261-12.553M243.362 818.446l16.389-11.976M260.065 818.76l-17.123-12.711M243.362 805.265l16.389-11.976M242.804 793h17.333M242.804 806.181h17.333M242.804 819.048h17.333M260.258 831.941v-38.82M242.683 831.941v-38.82M260.222 805.736l-17.104-12.711"/><path class="cls-6" d="M264.459 877.761v156.603M238.41 877.761v156.603"/><path d="M234.86 839.316v39.543h35.15v-39.543zm3.766 7.532h27.617v18.516h-27.617z" transform="translate(-1)"/><path transform="rotate(-180 251.934 833.51)" d="M238.626 831.47h27.617v4.08h-27.617z"/><path class="cls-6" d="M259.751 793.339l108.901 42.995M170.308 839.159l72.182-45.82"/><path transform="rotate(-180 191.364 861.598)" d="M172.563 842.297h38.602v38.602h-38.602z"/><path d="M376.399 892.04c-.315 3.185-2.626 7.449-2.825 7.846-.313.628-.627 1.255-1.569 1.255h-2.51c-.628 0-2.197-2.197-2.825-3.766s-1.569-3.766-1.255-5.963 1.255-5.335 4.707-5.335a5.726 5.726 0 0 1 4.394 1.545 7.144 7.144 0 0 1 1.57 2.535 4.226 4.226 0 0 1 .313 1.883z" transform="translate(-1)"/><path d="M369.75 901.141v1.735s-5.492-.322-5.492 5.013c0 1.569.628 2.824 2.824 3.452 1.909.545 5.022-.618 5.022-2.197" stroke-width="7" fill="none" stroke="#000" stroke-linecap="round" stroke-miterlimit="10"/></svg>