<svg id="Layer_1" data-name="Layer 1" xmlns="http://www.w3.org/2000/svg" width="749" height="1334"><defs><style>.cls-3{fill:#7e8789}.cls-6,.cls-7,.cls-8{stroke:#000;stroke-linecap:round;stroke-miterlimit:10;fill:none}.cls-6{stroke-width:2px}.cls-7{stroke-width:5px}.cls-8{stroke-width:3px}</style></defs><path fill="#fbb03b" d="M0 0h749v1334H0z"/><path d="M360.974 925.153h4.587v192.043h-4.587zM389.414 925.153h4.587v192.043h-4.587zM419.688 925.153h5.199v192.043h-5.199zM450.574 925.153h4.587v192.043h-4.587zM480.849 925.153h5.199v192.043h-5.199z"/><path d="M378.794 956.65v160.852h129.354V956.65zm25.993 153.818h-14.679v-14.678h14.679zm0-44.035h-14.679v-14.679h14.679zm0-44.035h-14.679v-14.679h14.679zm0-44.036h-14.679v-14.678h14.679zm30.58 132.106h-14.679v-14.678h14.679zm0-44.035h-14.679v-14.679h14.679zm0-44.035h-14.679v-14.679h14.679zm0-44.036h-14.679v-14.678h14.679zm30.58 132.106h-14.679v-14.678h14.679zm0-44.035h-14.679v-14.679h14.679zm0-44.035h-14.679v-14.679h14.679zm0-44.036h-14.679v-14.678h14.679zm30.58 132.106h-14.678v-14.678h14.678zm0-44.035h-14.678v-14.679h14.678zm0-44.035h-14.678v-14.679h14.678zm0-44.036h-14.678v-14.678h14.678z" transform="translate(-1)" fill="#b3b3b3"/><path class="cls-3" d="M351.8 986.313h155.347v3.67H351.8zM351.8 1029.125h155.347v3.67H351.8zM351.8 1071.937h155.347v3.67H351.8z"/><path fill="#999" d="M531 1111.997l-23.853 5.505V956.65l22.936 9.48.917 145.867z"/><path transform="rotate(-180 282.864 1113.361)" d="M227.344 1109.171h112.04v8.379h-112.04z"/><path transform="rotate(-180 282.864 1105.221)" d="M246.257 1101.032h74.215v8.379h-74.215z"/><path transform="rotate(-180 282.864 1096.842)" d="M265.409 1092.653h35.91v8.379h-35.91z"/><path stroke-width="22" stroke="#000" stroke-linecap="round" stroke-miterlimit="10" d="M379.323 943.505H221.317"/><path class="cls-6" d="M375.013 945.42v36.868M369.148 945.54v36.868"/><path class="cls-7" d="M291.581 974.507H271.95"/><path class="cls-8" d="M291.581 989.111H271.95M291.581 1003.715H271.95M291.581 1018.318H271.95M291.821 1032.922H272.19M291.581 1047.765H271.95M291.821 1062.608H272.19M291.581 1077.211H271.95M291.821 1092.533l-18.913-14.604M271.95 1092.533l19.153-14.604M271.95 1076.972l18.674-13.646M271.95 1062.368l19.631-14.603M272.669 1047.286l18.673-13.646M272.669 1032.443l18.673-13.646M272.429 1018.079l18.674-13.646M272.429 1003.475l18.674-13.646M272.429 988.632l18.674-13.646M291.581 1076.972l-18.673-13.646M291.103 1061.889l-18.674-13.645M291.103 1047.286l-18.674-13.646M291.103 1032.682l-18.674-13.646M291.342 1018.079l-18.673-13.646M291.342 1003.475l-18.673-13.646M291.581 989.111l-19.631-14.604M275.489 937.639l12.501-9.135M288.469 937.879l-13.167-9.576M275.728 927.824l12.502-9.136M288.469 928.063l-13.061-9.695M275.728 917.769l12.502-9.136M275.302 908.413h13.222M275.302 918.468h13.222M275.302 928.283h13.222M288.616 938.118v-29.613M275.21 938.118v-29.613M288.589 918.128l-13.048-9.696M291.821 973.071v119.462M271.95 973.071v119.462"/><path d="M269.479 943.744v30.165h26.813v-30.165zm2.873 5.746h21.067v14.125h-21.067z" transform="translate(-1)"/><path transform="rotate(-180 282.386 939.315)" d="M272.352 937.759h21.067v3.112h-21.067z"/><path class="cls-7" d="M288.23 908.672l83.073 32.798M220 943.625l55.063-34.953"/><path transform="rotate(-180 236.18 960.742)" d="M221.958 946.019h29.447v29.447h-29.447z"/><path d="M377.45 983.964a20.11 20.11 0 0 1-2.155 5.985c-.24.479-.479.958-1.197.958h-1.915c-.479 0-1.676-1.676-2.155-2.873a9.114 9.114 0 0 1-.957-4.549c.239-1.676.957-4.07 3.59-4.07a4.368 4.368 0 0 1 3.352 1.179 5.45 5.45 0 0 1 1.197 1.933 3.223 3.223 0 0 1 .24 1.437z" transform="translate(-1)"/><path class="cls-6" d="M373.14 990.907v1.323s-4.19-.246-4.19 3.824a2.511 2.511 0 0 0 2.156 2.633c1.455.416 3.83-.471 3.83-1.676" transform="translate(-1)"/></svg>