<svg id="Layer_1" data-name="Layer 1" xmlns="http://www.w3.org/2000/svg" width="749" height="1334"><defs><style>.cls-2,.cls-3{stroke:#fff;stroke-miterlimit:10;stroke-width:5px}.cls-3{stroke-linecap:round}</style></defs><path fill="#b3b3b3" d="M0 0h749v1334H0z"/><path class="cls-2" d="M307.181 1032.838c-3.387-.276-5.828-3.497-5.245-9.908s4.662-9.909 9.908-12.823 24.108-13.299 26.228-14.571c2.914-1.749 3.497-4.663 0-2.331s-12.24 8.16-16.902 10.49-13.406 8.16-19.234 11.075c-5.944 2.972-13.406 4.08-16.903 0s-5.245-8.743 0-15.737S347.085 949.75 375.374 939c29.143-11.074 14.571-7.577 39.634-14.571 23.585-6.582 31.922-9.133 39.05-6.994 5.829 1.748 28.56 64.696 28.56 64.696s-9.908 12.24-12.24 13.988-84.51 47.981-95.878 55.662c-21.565 14.57-46.672 8.668-26.52-4.372 19.817-12.822 22.149-13.988 21.566-15.154s-4.884 3.487-13.406 6.995c-7.811 3.215-24.528 11.102-32.639 8.742-3.957-1.151-7.577-6.411-2.331-12.24s27.976-17.485 29.142-19.233 1.221-2.24-3.497.582c-9.148 5.474-29.008 16.602-39.634 15.737z"/><path class="cls-2" d="M287.365 996.119c-2.025 2.399-20.4-14.571-20.4-14.571 2.914-7.577 36.72-65.862 36.72-65.862 8.16 2.332 14.57 4.08 29.142 0s33.222-5.245 43.13-4.08 22.731 2.332 26.228 4.663 15.737 15.154 19.817 22.148 11.657 13.406 10.491 20.4-3.497 8.742-8.742 7.577-13.406-4.08-17.486-7.577a200.45 200.45 0 0 1-15.737-15.737c-3.497-4.08-3.701-5.789-9.908-4.08-26.359 7.258-75.625 36.224-93.255 57.119zM489.612 883.047l-48.376 24.479 44.879 82.764L524 973.388l-34.388-90.341z"/><path class="cls-2" d="M259.388 883.047l48.376 24.479-44.879 82.764L225 973.388l34.388-90.341z"/><rect class="cls-3" x="384.513" y="1040.124" width="37.092" height="22.148" rx="11.074" transform="rotate(45 403.06 1051.198)"/><rect class="cls-3" x="400.802" y="1023.367" width="43.274" height="22.148" rx="11.074" transform="rotate(45 422.44 1034.441)"/><rect class="cls-3" x="418.015" y="1008.359" width="51.105" height="22.148" rx="11.074" transform="rotate(45 443.567 1019.433)"/><rect class="cls-3" x="449.14" y="991.602" width="27.613" height="22.148" rx="11.074" transform="rotate(45 462.947 1002.676)"/></svg>