<svg id="Layer_1" data-name="Layer 1" xmlns="http://www.w3.org/2000/svg" width="1920" height="1080"><defs><style>.cls-2,.cls-3{stroke:#fff;stroke-miterlimit:10;stroke-width:5px}.cls-3{stroke-linecap:round}</style></defs><path fill="#b3b3b3" d="M0 0h1920v1080H0z"/><path class="cls-2" d="M983.84 580.86c-4.36-.355-7.504-4.503-6.753-12.757s6.003-12.758 12.757-16.51 31.04-17.122 33.77-18.76c3.752-2.252 4.502-6.004 0-3.002s-15.76 10.506-21.763 13.508-17.26 10.506-24.764 14.258c-7.653 3.826-17.26 5.253-21.762 0s-6.754-11.257 0-20.262 79.893-63.453 116.316-77.294c37.521-14.258 18.76-9.755 51.029-18.76 30.367-8.475 41.1-11.76 50.279-9.006 7.504 2.252 36.77 83.298 36.77 83.298s-12.757 15.759-15.758 18.01-108.81 61.777-123.446 71.666c-27.766 18.76-60.09 11.16-34.144-5.628 25.514-16.51 28.516-18.01 27.766-19.511s-6.288 4.489-17.26 9.005c-10.058 4.14-31.581 14.295-42.024 11.256-5.095-1.482-9.756-8.255-3.002-15.759s36.02-22.513 37.521-24.764 1.573-2.885-4.502.75c-11.779 7.048-37.348 21.376-51.03 20.262z"/><path class="cls-2" d="M958.326 533.583c-2.606 3.089-26.265-18.76-26.265-18.76 3.752-9.756 47.277-84.8 47.277-84.8 10.506 3.003 18.76 5.254 37.522 0s42.774-6.753 55.531-5.252 29.267 3.002 33.77 6.003 20.261 19.511 25.514 28.517 15.009 17.26 13.508 26.265-4.503 11.256-11.257 9.755-17.26-5.253-22.512-9.755a258.086 258.086 0 0 1-20.262-20.262c-4.503-5.253-4.766-7.453-12.757-5.253-33.938 9.344-97.369 46.64-120.069 73.542zM1218.725 388l-62.286 31.518 57.783 106.561L1263 504.316 1218.725 388z"/><path class="cls-2" d="M922.306 388l62.285 31.518-57.783 106.561-48.778-21.763L922.306 388z"/><rect class="cls-3" x="1083.408" y="590.24" width="47.757" height="28.516" rx="14.258" transform="rotate(45 1107.286 604.498)"/><rect class="cls-3" x="1104.38" y="568.666" width="55.716" height="28.516" rx="14.258" transform="rotate(45 1132.238 582.924)"/><rect class="cls-3" x="1126.542" y="549.342" width="65.798" height="28.516" rx="14.258" transform="rotate(45 1159.44 563.6)"/><rect class="cls-3" x="1166.616" y="527.767" width="35.552" height="28.516" rx="14.258" transform="rotate(45 1184.393 542.025)"/></svg>