<svg data-name="Layer 1" xmlns="http://www.w3.org/2000/svg" width="750" height="1334"><path fill="#a67c52" d="M0 0h750v1334H0z"/><path d="M190.27 935.542c6.564-1.243 13.52-1.983 20.665-2.736 3.573-.354 7.198-.657 10.85-.934l11-.911c14.71-1.157 29.445-2.659 42.537-5.714 15.663-3.965 32.038-7.226 48.399-10.527l24.477-4.76 12.07-2.412 5.972-1.18 5.903-1.24c.372 1.777-1.697 4.994 1.108 5.335 11.043.466 11.833 4.013 12.595 7.564.383 1.775-7.925 1.662-4.907 2.885a117.682 117.682 0 0 0-12.432 3.29c-3.227 1.094-4.425 2.022-.257 2.131 3.023 1.268 13.25-2.767 16.47-.65 3.237 2.107-1.521 5.887 1.71 7.99 2.68-.535 8.006-1.738 10.67-2.336 3.059 1.18-1.489 5.92 1.182 5.322a63.737 63.737 0 0 0 13.954-1.998c5.002-1.192 10.283-2.684 15.614-3.954.415 1.76 3.548 2.888-1.588 5.047-46.557 12.275-94.411 22.711-142.822 29.98-48.393 7.286-97.332 11.423-145.6 11.384-11.044-.567-2.845-4.452 5.282-7.43-2.712.994-2.793-1.73-5.508-.737-.071-2.74 5.267-7.393 16.111-8.712-2.72.138-5.442.201-8.168.29-2.752-.823-.09-2.723-.153-4.537 2.717-.084 5.429-.168 5.394-1.077l-.136-3.628-10.818.334c2.702-.084 5.408-.167 5.377-1.074l-.122-3.633c5.357-1.026 13.51.368 18.865-.766l-.13-2.718c-5.423-.685-13.441.643-18.827.764 2.662-.992 2.628-1.898 2.564-3.714a78.036 78.036 0 0 1 12.077-.274c4.03.032 8.061-.093 12.002-1.714-2.675.17-5.355.284-8.032.401a10.507 10.507 0 0 1 5.208-2.311 38.275 38.275 0 0 1 7.048-.608c5.022-.078 10.419.34 14.396-.432z" fill="#29abe2"/><path d="M407.863 867.09a26.456 26.456 0 0 0-26.736 26.207c0 11.458-10.324 17.47-17.85 17.47a46.358 46.358 0 0 0 35.661 17.51c19.702 0 35.66-15.656 35.66-34.942a26.463 26.463 0 0 0-26.735-26.245z"/><path d="M530.083 785.22l-11.76-11.61a9.23 9.23 0 0 0-12.745-.113l-79.904 78.316 24.504 24.013 79.867-78.279a8.553 8.553 0 0 0 .038-12.328z" fill="#d08f33"/></svg>