<svg data-name="Layer 1" xmlns="http://www.w3.org/2000/svg" width="1920" height="1080"><path fill="#a67c52" d="M0 0h1920v1080H0z"/><path d="M326.309 786.088c8.758-1.192 17.766-2.239 26.965-3.177l28.09-2.752c9.51-.885 19.151-1.698 28.861-2.473l29.24-2.613c39.098-3.38 78.224-7.711 113.255-14.272 10.498-2.041 21.084-4.21 31.774-6.208l16.092-2.988c5.389-.948 10.77-2.065 16.18-3.067q16.22-3.077 32.598-5.995l32.733-6.11 16.387-2.977 16.337-3.124 32.548-6.122 32.158-6.369 15.908-3.135 15.726-3.3c.558 2.665-5.585 8.128 1.662 8.001 28.715-1.85 29.9 3.47 31.043 8.797.574 2.663-21 4.405-13.437 5.602-10.509 2.19-24.444 5.51-33.084 7.95-8.65 2.385-11.971 4.075-1.146 3.344 7.584 1.313 35.069-7.323 42.937-4.773 7.896 2.521-5.318 9.467 2.564 11.985 7.069-1.412 21.114-4.585 28.14-6.161 7.611 1.091-5.263 9.557 1.774 7.982 5.427-.518 11.242-1.384 17.351-2.49 6.107-1.117 12.52-2.415 19.094-4.021 13.165-3.137 27.124-6.813 41.156-10.157.325 1.323 2.395 2.217 2.683 3.374.292 1.159-1.195 2.58-8.079 4.914-122.616 31.271-248.616 57.174-375.85 75.374-127.202 18.245-255.612 28.844-382.316 30.276-28.977-.466-7.368-6.582 14.129-11.335-7.167 1.586-7.289-2.501-14.468-.915-.057-2.042 3.474-4.877 10.599-7.482a90.606 90.606 0 0 1 13.387-3.607c5.363-1.068 11.63-1.897 18.799-2.596-7.183.363-14.365.53-21.56.764-7.233-1.138-.135-4.083-.23-6.805 7.182-.222 14.35-.443 14.298-1.807l-.206-5.443-28.635.885c7.153-.22 14.314-.442 14.268-1.802l-.184-5.45a115.597 115.597 0 0 1 11.823-.746c4.244-.079 8.713-.156 13.184-.17 8.942-.056 17.89-.114 25.006-1.114l-.194-4.078c-14.342-.769-35.67 1.707-49.956 2.029 7.1-1.584 7.049-2.944 6.952-5.668 2.666-.258 5.336-.409 8.006-.542 2.67-.145 5.342-.232 8.015-.287 5.347-.11 10.7-.093 16.05-.16s10.698-.22 16.03-.67c2.665-.229 5.327-.518 7.982-.932a96.78 96.78 0 0 0 7.942-1.64c-7.109.452-14.232.755-21.346 1.065 3.478-1.867 8.323-2.994 13.965-3.748a179.945 179.945 0 0 1 18.753-1.388c6.673-.217 13.58-.276 20.148-.444 3.283-.092 6.484-.177 9.524-.385 3.04-.212 5.922-.483 8.575-.844z" fill="#29abe2"/><path d="M900.4 585.7c-39.1 0-70.7 31-70.7 69.3 0 30.3-27.3 46.2-47.2 46.2 21.7 28.3 58.7 46.3 94.3 46.3 52.1 0 94.3-41.4 94.3-92.4 0-38.4-31.6-69.4-70.7-69.4z"/><path d="M1223.6 369.2l-31.1-30.7c-9.2-9-24.5-9.3-33.7-.3L947.5 545.3l64.8 63.5 211.2-207a22.618 22.618 0 0 0 .1-32.6z" fill="#d08f33"/></svg>