<svg id="Layer_1" data-name="Layer 1" xmlns="http://www.w3.org/2000/svg" width="749" height="1334"><defs><style>.cls-2{fill:#fff}.cls-3{fill:#434444}.cls-4{fill:#333}.cls-5,.cls-6{fill:#1a1a1a}.cls-5{opacity:.4}.cls-7{fill:#4d5458}</style></defs><path fill="#c1272d" d="M0 0h749v1334H0z"/><path class="cls-2" d="M361.746 829.856v40.292c0 6.637.474 72.528.474 77.268v81.534c0 1.896-.474 76.32-.474 78.69s-.474 36.026-.474 39.345.348 17.239.948 17.539c1.896.948 19.435 1.422 22.753.474s3.793-9.48 3.319-20.384c-.446-7.128-1.422-57.832-.948-114.242.531-63.289 0-130.463 0-136.996 0-6.267.532-30.805.474-58.78-.057-27.042-.707-57.623-.474-59.254.474-3.319 5.688-4.74 5.688-11.377 0-9.48.474-39.82 0-48.826s-4.74-27.494-14.221-34.13-21.324 15.916-21.806 29.39c-.474 13.273-.948 41.715-.948 47.403 0 14.221 3.403 12.495 5.215 16.117.948 1.897.474 55.937.474 55.937z"/><path class="cls-2" d="M331.882 893.376v261.667c0 6.163 7.11 7.11 12.324 7.11s13.747 1.423 13.747-21.805-.474-131.781-.474-140.788V893.376c0-2.844 1.897-20.383-1.422-28.442s-8.058-14.22-11.376-14.22-9.007 6.162-10.903 12.798a54.396 54.396 0 0 0-2.37 16.591c0 6.163.474 13.273.474 13.273zM392.084 892.902v261.667c0 6.163 7.11 7.11 12.325 7.11s13.747 1.423 13.747-21.805-.474-131.781-.474-140.788V892.902c0-2.844 1.896-20.383-1.422-28.442s-8.059-14.22-11.377-14.22-9.007 6.161-10.903 12.798a54.396 54.396 0 0 0-2.37 16.591c0 6.163.474 13.273.474 13.273z"/><path class="cls-3" d="M342.784 879.63h4.267s.474 4.74 0 4.74-1.422 2.37-1.422 4.266-.474 1.422-.474 2.844v27.968c0 1.422.474 2.37.474 4.74v12.325c0 .948-.474.948-.474 3.319v193.406c0 1.896.165 20.734.165 20.734l1.257 1.545-1.897.948-2.534-1.037s2.06.09 2.06-1.333v-27.494c0-1.896-.474-44.085-.474-46.455v-186.77c0-2.37.474-6.636 0-7.11s-.948-1.896-.948-4.267zM372.648 878.681h4.267s.474 4.74 0 4.74-1.422 2.37-1.422 4.267-.474 1.422-.474 2.844V918.5c0 1.422.474 2.37.474 4.74v12.325c0 .948-.474.948-.474 3.318v193.406c0 1.897.165 20.735.165 20.735l1.257 1.545-1.896.948-2.535-1.037s2.06.09 2.06-1.333v-27.494c0-1.896-.473-44.085-.473-46.455v-186.77c0-2.37.474-6.636 0-7.11s-.948-1.897-.948-4.267zM402.513 879.63h4.266v7.11c0 1.896 0 2.844 1.896 2.844s1.896 1.422 1.896 3.318v6.163s.474 1.896-1.896 1.896-1.896 1.422-1.896 3.318v5.688c0 2.845-.948 1.422-.948 7.585v109.976c0 1.422.474 17.065.474 18.961s-.948 3.319 2.844 3.319 3.318 0 3.318 7.11-.474 4.74-3.318 5.214-1.896 0-1.896 4.267v8.532c0 1.896-.948 0-.948 5.689v73.475l-.948 1.896-1.422-.948s-.948-23.228-.948-27.02v-8.058c0-2.37.474-2.845-.948-4.267s-.948-2.844-.948-4.266 0-3.318 1.422-3.792.474-6.637.474-9.007v-6.162c0-1.423 0-1.897-1.422-3.319s-.949-6.162.474-6.636.948-1.896.948-5.689V908.071c0-1.896-.474-14.22-.474-15.643z"/><path class="cls-4" d="M346.577 1144.614c0 .474-.627 6.131-.948 8.059-.474 2.844-.949 1.896-1.897-3.318-.786-4.328-1.778-11.717-2.685-19.299-.055-.463 1.318-1.095 1.263-1.559-.06-.51-1.548-.853-1.607-1.363a783.847 783.847 0 0 1-1.473-13.686c-.053-.54 1.706-1.036 1.658-1.542-.051-.546-1.714-1.158-1.954-1.602-.416-.768-.813-5.056-.89-5.983-.474-5.688-.474-11.376-.948-12.324s-1.422-3.319-2.844 0a35.874 35.874 0 0 0-1.896 4.74c0 .474-.474 3.318-.474 4.266v12.8c0 1.421-.474 11.376-.474 14.22s-.474 9.48-.474 11.377-.474 9.007-.474 9.955-.474 6.162-.474 6.636c0 3.318.948 3.792-.474 5.689s.474 2.37 1.422 2.37 1.422 1.422 1.422 1.896h23.702c.948 0 3.318 0 3.318-5.688s-.474-18.014-.474-21.332-1.422-31.286-1.422-35.079 0-7.11-1.422-9.954a16.168 16.168 0 0 1-.766-1.757c-.26-.72-.23-1.23-.657-1.562a1.385 1.385 0 0 0-.968-.27c-1.381.212-1.352 3.503-1.402 4.063-.562 6.345-1.038 11.397-1.422 15.643-.052.58-2.32 1.352-2.37 1.896-.044.48 1.937.97 1.896 1.422-.803 8.826-1.357 12.894-1.422 13.747-.033.44-1.846.815-1.896 1.422-.037.445 1.468.907 1.422 1.422"/><path class="cls-5" d="M332.83 1134.66c-1.422.474-1.422 5.688-1.897 11.85s-.474 12.214-.474 13.274c0 .948-1.725 2.712-1.422 3.318.474.948 2.304.881 2.845 1.422.474.474.287 1.422.474 1.422h21.805c2.37 0 5.215.948 5.215-6.636a168.537 168.537 0 0 0-1.897-22.28c-.474-1.896-2.844-.948-3.318 0s-3.792 12.325-5.214 15.643-1.422 4.266-2.37 5.688-1.897 4.267-2.845 1.423-7.11-18.962-8.058-20.858-1.472-4.724-2.844-4.266z"/><path class="cls-6" d="M335.2 1149.829c-1.422 0-3.318 0-3.318 2.37 0 0-.474 3.792-.474 5.214s-.474 1.896 2.37 1.896h6.636a.974.974 0 0 0 .948-1.422 62.198 62.198 0 0 0-2.37-6.162c-.474-.948 0-1.896-1.896-1.896zM354.702 1149.829c1.422 0 3.319 0 3.319 2.37 0 0 .474 3.792.474 5.214s.474 1.896-2.37 1.896h-6.637a.974.974 0 0 1-.948-1.422 62.203 62.203 0 0 1 2.37-6.162c.474-.948 0-1.896 1.896-1.896z"/><path class="cls-4" d="M403.423 1144.614c0 .474.627 6.131.948 8.059.474 2.844.949 1.896 1.897-3.318.786-4.328 1.778-11.717 2.685-19.299.055-.463-1.318-1.095-1.263-1.559.06-.51 1.548-.853 1.607-1.363.568-4.891 1.085-9.71 1.473-13.686.053-.54-1.706-1.036-1.658-1.542.051-.546 1.714-1.158 1.954-1.602.416-.768.813-5.056.89-5.983.474-5.688.474-11.376.948-12.324s1.422-3.319 2.844 0a35.874 35.874 0 0 1 1.896 4.74c0 .474.474 3.318.474 4.266v12.8c0 1.421.474 11.376.474 14.22s.474 9.48.474 11.377.474 9.007.474 9.955.474 6.162.474 6.636c0 3.318-.948 3.792.474 5.689s-.474 2.37-1.422 2.37-1.422 1.422-1.422 1.896h-23.701c-.948 0-3.319 0-3.319-5.688s.474-18.014.474-21.332 1.423-31.286 1.423-35.079 0-7.11 1.422-9.954a16.168 16.168 0 0 0 .766-1.757c.26-.72.23-1.23.656-1.562a1.385 1.385 0 0 1 .968-.27c1.381.212 1.352 3.503 1.402 4.063.562 6.345 1.038 11.397 1.422 15.643.053.58 2.32 1.352 2.37 1.896.044.48-1.937.97-1.896 1.422.803 8.826 1.357 12.894 1.422 13.747.034.44 1.846.815 1.896 1.422.037.445-1.467.907-1.422 1.422"/><path class="cls-5" d="M417.17 1134.66c1.422.474 1.422 5.688 1.897 11.85s.474 12.214.474 13.274c0 .948 1.725 2.712 1.422 3.318-.474.948-2.304.881-2.845 1.422-.474.474-.287 1.422-.474 1.422H395.84c-2.37 0-5.215.948-5.215-6.636a168.537 168.537 0 0 1 1.897-22.28c.474-1.896 2.844-.948 3.318 0s3.792 12.325 5.214 15.643 1.422 4.266 2.37 5.688 1.897 4.267 2.845 1.423 7.11-18.962 8.058-20.858 1.472-4.724 2.844-4.266z"/><path class="cls-6" d="M414.8 1149.829c1.422 0 3.318 0 3.318 2.37 0 0 .474 3.792.474 5.214s.474 1.896-2.37 1.896h-6.636a.974.974 0 0 1-.948-1.422 62.198 62.198 0 0 1 2.37-6.162c.474-.948 0-1.896 1.896-1.896zM395.298 1149.829c-1.422 0-3.319 0-3.319 2.37 0 0-.474 3.792-.474 5.214s-.474 1.896 2.37 1.896h6.637a.974.974 0 0 0 .948-1.422 62.203 62.203 0 0 0-2.37-6.162c-.474-.948 0-1.896-1.896-1.896z"/><path class="cls-4" d="M376.44 1144.614c0 .474-.626 6.131-.947 8.059-.474 2.844-.948 1.896-1.896-3.318-.787-4.328-1.779-11.717-2.686-19.299-.055-.463 1.318-1.095 1.263-1.559-.06-.51-1.548-.853-1.607-1.363a783.654 783.654 0 0 1-1.473-13.686c-.053-.54 1.706-1.036 1.658-1.542-.051-.546-1.714-1.158-1.954-1.602-.416-.768-.813-5.056-.89-5.983-.474-5.688-.474-11.376-.948-12.324s-1.422-3.319-2.844 0a35.874 35.874 0 0 0-1.896 4.74c0 .474-.474 3.318-.474 4.266v12.8c0 1.421-.474 11.376-.474 14.22s-.474 9.48-.474 11.377-.474 9.007-.474 9.955-.474 6.162-.474 6.636a23.38 23.38 0 0 0 .474 6.163c.474 2.37.948 2.844.948 2.844.474.948.948.474.948.948h23.702c.948 0 3.318 0 3.318-5.688s-.474-18.014-.474-21.332-1.422-31.286-1.422-35.079 0-7.11-1.422-9.954a16.167 16.167 0 0 1-.766-1.757c-.26-.72-.23-1.23-.657-1.562a1.385 1.385 0 0 0-.968-.27c-1.38.212-1.352 3.503-1.402 4.063-.562 6.345-1.038 11.397-1.422 15.643-.052.58-2.32 1.352-2.37 1.896-.043.48 1.937.97 1.896 1.422-.803 8.826-1.357 12.894-1.422 13.747-.033.44-1.846.815-1.896 1.422-.037.445 1.468.907 1.422 1.422"/><path class="cls-5" d="M362.694 1134.66c-1.422.474-1.422 5.688-1.896 11.85s-.474 12.214-.474 13.274a7.83 7.83 0 0 0 .474 2.844c.474.948.407 1.355.948 1.896.474.474.287 1.422.474 1.422h21.805c2.37 0 5.215.948 5.215-6.636a168.539 168.539 0 0 0-1.896-22.28c-.474-1.896-2.845-.948-3.319 0s-3.792 12.325-5.214 15.643-1.422 4.266-2.37 5.688-1.896 4.267-2.844 1.423-7.111-18.962-8.06-20.858-1.47-4.724-2.843-4.266z"/><path class="cls-6" d="M365.064 1149.829c-1.422 0-3.318 0-3.318 2.37 0 0-.474 3.792-.474 5.214s-.474 1.896 2.37 1.896h6.636a.974.974 0 0 0 .948-1.422 62.203 62.203 0 0 0-2.37-6.162c-.474-.948 0-1.896-1.896-1.896zM384.566 1149.829c1.423 0 3.319 0 3.319 2.37 0 0 .474 3.792.474 5.214s.474 1.896-2.37 1.896h-6.637a.974.974 0 0 1-.948-1.422 62.2 62.2 0 0 1 2.37-6.162c.474-.948 0-1.896 1.896-1.896z"/><path class="cls-4" d="M334.246 1172.917c-.208.532-.208 1.088 1.273 1.088h4.267c1.422 0 1.364.182.948-1.897a10.39 10.39 0 0 0-1.422-3.792 5.867 5.867 0 0 0-.948-1.422 1.185 1.185 0 0 0-1.897 0 16.622 16.622 0 0 0-1.422 2.37c-.284.768-.799 3.653-.799 3.653z"/><path class="cls-4" d="M335.437 1165.946h4.266v.948h-4.266zM341.357 1172.917c-.208.532-.208 1.088 1.273 1.088h4.266c1.422 0 1.364.182.948-1.897a10.39 10.39 0 0 0-1.422-3.792 5.867 5.867 0 0 0-.948-1.422 1.185 1.185 0 0 0-1.896 0 16.622 16.622 0 0 0-1.422 2.37c-.285.768-.8 3.653-.8 3.653z"/><path class="cls-4" d="M342.547 1165.946h4.266v.948h-4.266zM348.467 1172.917c-.208.532-.208 1.088 1.273 1.088h4.267c1.422 0 1.364.182.948-1.897a10.39 10.39 0 0 0-1.422-3.792 5.867 5.867 0 0 0-.948-1.422 1.185 1.185 0 0 0-1.896 0 16.622 16.622 0 0 0-1.423 2.37c-.284.768-.799 3.653-.799 3.653z"/><path class="cls-4" d="M349.658 1165.946h4.266v.948h-4.266z"/><path class="cls-7" d="M330.928 1172.917c-.208.532-.208 1.088 1.273 1.088h4.266c1.423 0 1.364.182.949-1.897a10.39 10.39 0 0 0-1.423-3.792 5.867 5.867 0 0 0-.948-1.422 1.185 1.185 0 0 0-1.896 0 16.622 16.622 0 0 0-1.422 2.37c-.285.768-.799 3.653-.799 3.653z"/><path class="cls-7" d="M332.119 1165.946h4.266v.948h-4.266zM338.039 1172.917c-.209.532-.209 1.088 1.273 1.088h4.266c1.422 0 1.364.182.948-1.897a10.39 10.39 0 0 0-1.422-3.792 5.867 5.867 0 0 0-.948-1.422 1.185 1.185 0 0 0-1.896 0 16.623 16.623 0 0 0-1.422 2.37c-.285.768-.8 3.653-.8 3.653z"/><path class="cls-7" d="M339.229 1165.946h4.266v.948h-4.266zM345.15 1172.917c-.21.532-.21 1.088 1.272 1.088h4.267c1.422 0 1.363.182.948-1.897a10.39 10.39 0 0 0-1.422-3.792 5.867 5.867 0 0 0-.949-1.422 1.185 1.185 0 0 0-1.896 0 16.622 16.622 0 0 0-1.422 2.37c-.285.768-.799 3.653-.799 3.653z"/><path class="cls-7" d="M346.34 1165.946h4.266v.948h-4.266zM352.26 1172.917c-.209.532-.209 1.088 1.273 1.088h4.266c1.422 0 1.364.182.948-1.897a10.39 10.39 0 0 0-1.422-3.792 5.867 5.867 0 0 0-.948-1.422 1.185 1.185 0 0 0-1.896 0 16.622 16.622 0 0 0-1.422 2.37c-.285.768-.8 3.653-.8 3.653z"/><path class="cls-7" d="M353.45 1165.946h4.266v.948h-4.266z"/><path class="cls-4" d="M364.11 1172.917c-.208.532-.208 1.088 1.274 1.088h4.266c1.422 0 1.364.182.948-1.897a10.39 10.39 0 0 0-1.422-3.792 5.867 5.867 0 0 0-.948-1.422 1.185 1.185 0 0 0-1.896 0 16.622 16.622 0 0 0-1.422 2.37c-.285.768-.8 3.653-.8 3.653z"/><path class="cls-4" d="M365.301 1165.946h4.266v.948h-4.266zM371.221 1172.917c-.208.532-.208 1.088 1.273 1.088h4.266c1.423 0 1.364.182.948-1.897a10.39 10.39 0 0 0-1.422-3.792 5.867 5.867 0 0 0-.948-1.422 1.185 1.185 0 0 0-1.896 0 16.622 16.622 0 0 0-1.422 2.37c-.285.768-.799 3.653-.799 3.653z"/><path class="cls-4" d="M372.411 1165.946h4.266v.948h-4.266zM378.332 1172.917c-.209.532-.209 1.088 1.273 1.088h4.266c1.422 0 1.364.182.948-1.897a10.39 10.39 0 0 0-1.422-3.792 5.867 5.867 0 0 0-.948-1.422 1.185 1.185 0 0 0-1.896 0 16.622 16.622 0 0 0-1.422 2.37c-.285.768-.8 3.653-.8 3.653z"/><path class="cls-4" d="M379.522 1165.946h4.266v.948h-4.266z"/><path class="cls-7" d="M360.792 1172.917c-.208.532-.208 1.088 1.273 1.088h4.267c1.422 0 1.363.182.948-1.897a10.39 10.39 0 0 0-1.422-3.792 5.867 5.867 0 0 0-.948-1.422 1.185 1.185 0 0 0-1.897 0 16.622 16.622 0 0 0-1.422 2.37c-.284.768-.799 3.653-.799 3.653z"/><path class="cls-7" d="M361.983 1165.946h4.266v.948h-4.266zM367.903 1172.917c-.208.532-.208 1.088 1.273 1.088h4.266c1.422 0 1.364.182.948-1.897a10.39 10.39 0 0 0-1.422-3.792 5.867 5.867 0 0 0-.948-1.422 1.185 1.185 0 0 0-1.896 0 16.622 16.622 0 0 0-1.422 2.37c-.285.768-.8 3.653-.8 3.653z"/><path class="cls-7" d="M369.093 1165.946h4.266v.948h-4.266zM375.013 1172.917c-.208.532-.208 1.088 1.273 1.088h4.267c1.422 0 1.363.182.948-1.897a10.39 10.39 0 0 0-1.422-3.792 5.867 5.867 0 0 0-.948-1.422 1.185 1.185 0 0 0-1.897 0 16.622 16.622 0 0 0-1.422 2.37c-.284.768-.799 3.653-.799 3.653z"/><path class="cls-7" d="M376.204 1165.946h4.266v.948h-4.266zM382.124 1172.917c-.208.532-.208 1.088 1.273 1.088h4.266c1.422 0 1.364.182.948-1.897a10.39 10.39 0 0 0-1.422-3.792 5.867 5.867 0 0 0-.948-1.422 1.185 1.185 0 0 0-1.896 0 16.622 16.622 0 0 0-1.422 2.37c-.285.768-.8 3.653-.8 3.653z"/><path class="cls-7" d="M383.314 1165.946h4.266v.948h-4.266z"/><path class="cls-4" d="M394.449 1172.917c-.209.532-.209 1.088 1.273 1.088h4.266c1.422 0 1.364.182.948-1.897a10.39 10.39 0 0 0-1.422-3.792 5.867 5.867 0 0 0-.948-1.422 1.185 1.185 0 0 0-1.896 0 16.622 16.622 0 0 0-1.422 2.37c-.285.768-.8 3.653-.8 3.653z"/><path class="cls-4" d="M395.639 1165.946h4.266v.948h-4.266zM401.56 1172.917c-.209.532-.209 1.088 1.272 1.088h4.267c1.422 0 1.363.182.948-1.897a10.39 10.39 0 0 0-1.422-3.792 5.867 5.867 0 0 0-.949-1.422 1.185 1.185 0 0 0-1.896 0 16.622 16.622 0 0 0-1.422 2.37c-.284.768-.799 3.653-.799 3.653z"/><path class="cls-4" d="M402.75 1165.946h4.266v.948h-4.266zM408.67 1172.917c-.209.532-.209 1.088 1.273 1.088h4.266c1.422 0 1.364.182.948-1.897a10.39 10.39 0 0 0-1.422-3.792 5.867 5.867 0 0 0-.948-1.422 1.185 1.185 0 0 0-1.896 0 16.622 16.622 0 0 0-1.422 2.37c-.285.768-.8 3.653-.8 3.653z"/><path class="cls-4" d="M409.86 1165.946h4.266v.948h-4.266z"/><path class="cls-7" d="M391.13 1172.917c-.208.532-.208 1.088 1.274 1.088h4.266c1.422 0 1.364.182.948-1.897a10.39 10.39 0 0 0-1.422-3.792 5.867 5.867 0 0 0-.948-1.422 1.185 1.185 0 0 0-1.896 0 16.622 16.622 0 0 0-1.422 2.37c-.285.768-.8 3.653-.8 3.653z"/><path class="cls-7" d="M392.321 1165.946h4.266v.948h-4.266zM398.241 1172.917c-.208.532-.208 1.088 1.273 1.088h4.266c1.422 0 1.364.182.948-1.897a10.39 10.39 0 0 0-1.422-3.792 5.867 5.867 0 0 0-.948-1.422 1.185 1.185 0 0 0-1.896 0 16.622 16.622 0 0 0-1.422 2.37c-.285.768-.799 3.653-.799 3.653z"/><path class="cls-7" d="M399.431 1165.946h4.266v.948h-4.266zM405.352 1172.917c-.209.532-.209 1.088 1.273 1.088h4.266c1.422 0 1.364.182.948-1.897a10.39 10.39 0 0 0-1.422-3.792 5.867 5.867 0 0 0-.948-1.422 1.185 1.185 0 0 0-1.896 0 16.622 16.622 0 0 0-1.422 2.37c-.285.768-.8 3.653-.8 3.653z"/><path class="cls-7" d="M406.542 1165.946h4.266v.948h-4.266zM412.462 1172.917c-.208.532-.208 1.088 1.273 1.088h4.266c1.422 0 1.364.182.948-1.897a10.39 10.39 0 0 0-1.422-3.792 5.867 5.867 0 0 0-.948-1.422 1.185 1.185 0 0 0-1.896 0 16.623 16.623 0 0 0-1.422 2.37c-.285.768-.799 3.653-.799 3.653z"/><path class="cls-7" d="M413.652 1165.946h4.266v.948h-4.266z"/><path class="cls-3" d="M331.407 883.895l1.423-2.844h2.844l2.844 3.319v8.532h-7.111v-9.007zM361.272 883.895l1.422-2.844h2.844l2.844 3.319v8.532h-7.11v-9.007zM391.61 883.895l1.422-2.844h2.844l2.844 3.319v8.532h-7.11v-9.007zM418.63 883.895l-1.422-2.844h-2.844l-2.845 3.319v8.532h7.111v-9.007zM388.292 883.895l-1.422-2.844h-2.845l-2.844 3.319v8.532h7.111v-9.007zM358.427 883.895l-1.422-2.844h-2.844l-2.844 3.319v8.532h7.11v-9.007z"/><path d="M361.77 875.861c-2.394 1.398-1.92 1.398-5.239 1.398s-7.584-.474-9.006-.474-2.845-2.37-4.267 0-1.422 2.844-.948 2.844h4.74s-.473-.474.949-.474h4.74c.474 0 2.967-.176 5.276-.088s5.153.088 6.575.088 4.266.474 5.214 0a8.34 8.34 0 0 1 2.844-.474h5.689s0 .474.948.474h20.383a6.88 6.88 0 0 1 2.845.474h4.74s0-2.844-1.896-3.792-.948.948-2.844.948h-9.481c-1.896 0-1.896.474-3.318 0a7.628 7.628 0 0 1-2.158-.975s-.686.027-3.53.027-5.577-.474-6.637-.474c-.948 0-1.422 1.422-2.844 1.422s-.948-1.422-2.37-1.422-10.405.498-10.405.498z" fill="#ccc"/></svg>