<svg id="Layer_1" data-name="Layer 1" xmlns="http://www.w3.org/2000/svg" viewBox="0 0 1922 1080"><defs><style>.cls-2{fill:#999}.cls-3{fill:#666}</style></defs><path fill="#8e45ce" d="M0 0h1922v1080H0z"/><path class="cls-2" d="M1090.46 569.84l-40.18 10.75-29.4-29.43 10.78-40.17 40.18-10.75 29.4 29.42-10.78 40.18z"/><circle class="cls-3" cx="1060.96" cy="540.27" r="18.38"/><path class="cls-2" d="M1091.29 409.13l-40.19 10.75-29.4-29.42 10.78-40.18 40.18-10.75 29.41 29.42-10.78 40.18z"/><circle class="cls-3" cx="1061.78" cy="379.57" r="18.38"/><path class="cls-2" d="M1090.46 248.42l-40.18 10.76-29.4-29.43 10.78-40.17 40.18-10.76 29.4 29.43-10.78 40.17z"/><circle class="cls-3" cx="1060.96" cy="218.86" r="18.38"/><path class="cls-2" d="M1091.29 730.54l-40.19 10.75-29.4-29.42 10.78-40.18 40.18-10.75 29.41 29.43-10.78 40.17z"/><circle class="cls-3" cx="1061.78" cy="700.98" r="18.38"/><path class="cls-2" d="M1090.46 891.25L1050.28 902l-29.4-29.42 10.78-40.18 40.18-10.75 29.4 29.42-10.78 40.18z"/><circle class="cls-3" cx="1060.96" cy="861.68" r="18.38"/><path d="M1060.76 593.13l-36.93-36.86a3.41 3.41 0 0 1-.9-2.87l6.94-38a3.35 3.35 0 0 1 2.63-2.62l38-6.75a3.33 3.33 0 0 1 2.87.91l36.85 36.78a6.51 6.51 0 0 0 9.92-.81c5.92-8.27 8.8-18.1 8.81-26.06a10.79 10.79 0 0 0-.08-1.64c-.56-10.25-6.27-32.23-24.28-49.23-17.36-16.5-49.64-33.77-85.66-18.57-4.35 1.8-10.09 3.84-16.15-2.23-6.06-6.24-154.16-164-154.16-164-12.62-14.78-36.17-13.74-49.88-.18a36.7 36.7 0 0 0-10.53 25.65 31.51 31.51 0 0 0 10.7 24.35s156.48 147.28 163.61 154.5c3.19 3.29 4.17 6.32 4.17 9.11a15.64 15.64 0 0 1-2 7.05 57.71 57.71 0 0 0-6.11 26.56c0 22 10.11 45.11 24.19 59.23 20 20 39.32 23.75 49.24 24.34a43.86 43.86 0 0 0 28.06-8.74 6.68 6.68 0 0 0 .67-9.92zm-244.11-278a11.53 11.53 0 1 1 16.31 0 11.66 11.66 0 0 1-16.31.03z" transform="translate(2)" fill="#fff"/></svg>