<svg id="Layer_1" data-name="Layer 1" xmlns="http://www.w3.org/2000/svg" width="750" height="1334"><defs><style>.cls-2{fill:#999}.cls-3{fill:#666}</style></defs><path fill="#8e45ce" d="M0 0h750v1334H0z"/><path class="cls-2" d="M459.595 905.622l-26.176 7.004-19.155-19.167 7.022-26.171 26.177-7.005 19.154 19.167-7.022 26.172z"/><circle class="cls-3" cx="440.378" cy="886.364" r="11.973"/><path class="cls-2" d="M460.129 800.935l-26.176 7.005-19.155-19.167 7.022-26.172 26.177-7.005 19.154 19.167-7.022 26.172z"/><circle class="cls-3" cx="440.912" cy="781.677" r="11.973"/><path class="cls-2" d="M459.595 696.248l-26.176 7.005-19.155-19.167 7.022-26.172 26.177-7.004 19.154 19.167-7.022 26.171z"/><circle class="cls-3" cx="440.378" cy="676.99" r="11.973"/><path class="cls-2" d="M460.129 1010.309l-26.176 7.004-19.155-19.167 7.022-26.171 26.177-7.005 19.154 19.167-7.022 26.172z"/><circle class="cls-3" cx="440.912" cy="991.05" r="11.973"/><path class="cls-2" d="M459.595 1114.995L433.419 1122l-19.155-19.167 7.022-26.172 26.177-7.004 19.154 19.167-7.022 26.171z"/><circle class="cls-3" cx="440.378" cy="1095.737" r="11.973"/><path d="M441.545 920.8l-24.055-24.016a2.217 2.217 0 0 1-.585-1.87l4.522-24.777a2.167 2.167 0 0 1 1.711-1.707l24.79-4.398a2.166 2.166 0 0 1 1.868.59l24.001 23.962a4.239 4.239 0 0 0 6.464-.525A30.498 30.498 0 0 0 486 871.082a6.81 6.81 0 0 0-.052-1.068c-.364-6.677-4.083-20.997-15.818-32.07-11.308-10.751-32.337-21.997-55.798-12.096-2.833 1.171-6.573 2.502-10.52-1.457-3.947-4.064-100.424-106.804-100.424-106.804-8.265-9.626-23.596-8.953-32.528-.1a23.925 23.925 0 0 0-6.86 16.71 20.557 20.557 0 0 0 6.975 15.819s101.934 95.964 106.575 100.67a8.264 8.264 0 0 1 2.715 5.933 10.078 10.078 0 0 1-1.288 4.592 37.59 37.59 0 0 0-3.977 17.3c-.02 14.314 6.582 29.385 15.756 38.585 13.014 13.05 25.615 15.472 32.078 15.855a28.56 28.56 0 0 0 18.274-5.69 4.347 4.347 0 0 0 .437-6.462zM282.526 739.723a7.516 7.516 0 1 1 10.629.015 7.61 7.61 0 0 1-10.629-.015z" fill="#fff"/></svg>