<svg xmlns="http://www.w3.org/2000/svg" viewBox="0 0 808.422 595.5"><path d="M62.077 494.552s41.567 50.454 90.456 72.201S234.422 595.5 276.422 595.5h531l.5-71.537s-229.237-27.305-369.869-30.884-161.42-5.777-238.026-3.678-137.95 5.15-137.95 5.15z" fill="#ffba60" data-name="Wave of Grain 3"/><path d="M22.123 429.5s127.299-23 442.299-23c80.594 0 142.454 2.1 189.84 3.873 32.327 1.21 58.276 2.182 78.916 3.779C782.922 418 807.922 420 807.922 420l.5 73.972s-195-26.472-352-30.472c-73.667-1.877-169.5-5.5-250.642-5.516-91.706-.02-164.398 7.873-164.398 7.873s-9.11-13.918-12.035-21.137-7.224-15.22-7.224-15.22z" fill="#ffba60" data-name="Wave of Grain 2"/><path d="M0 342.818S211.422 291.5 502.422 274.5c45.25-2.643 83.787-5.802 116.71-6.696 176.79-4.804 189.29-4.304 189.29-4.304v123.615s-119-12.615-350-12.615c-110.883 0-230.078 5.791-311.578 12.854-88.288 7.651-134.421 16.621-134.421 16.621a268.145 268.145 0 01-8.09-30.968C1.423 357.5 0 342.817 0 342.817z" fill="#ffba60" data-name="Wave of Grain 1"/><g fill="#282425"><path d="M420.574 130.675l-8.785-8.784 7.137-7.137 8.785 8.785a3.735 3.735 0 010 5.282l-1.855 1.854a3.735 3.735 0 01-5.282 0z"/><rect x="410.759" y="125.718" width="29.01" height="4.866" rx="1.801" transform="rotate(-135 424.872 128.02)"/><path d="M407.553 143.696l-8.784-8.785 7.137-7.136 8.784 8.784a3.735 3.735 0 010 5.283l-1.854 1.854a3.735 3.735 0 01-5.283 0z"/><rect x="397.739" y="138.738" width="29.01" height="4.866" rx="1.801" transform="rotate(-135 411.851 141.041)"/><path d="M394.533 156.717l-8.785-8.785 7.137-7.137 8.785 8.785a3.735 3.735 0 010 5.282l-1.855 1.855a3.735 3.735 0 01-5.282 0z"/><rect x="384.718" y="151.759" width="29.01" height="4.866" rx="1.801" transform="rotate(-135 398.83 154.062)"/><path d="M381.512 169.737l-8.784-8.784 7.136-7.137 8.785 8.784a3.735 3.735 0 010 5.283l-1.854 1.854a3.735 3.735 0 01-5.283 0z"/><rect x="371.698" y="164.779" width="29.01" height="4.866" rx="1.801" transform="rotate(-135 385.81 167.082)"/><path d="M368.492 182.758l-8.785-8.785 7.137-7.137 8.784 8.785a3.735 3.735 0 010 5.282l-1.854 1.855a3.735 3.735 0 01-5.282 0z"/><rect x="358.677" y="177.8" width="29.01" height="4.866" rx="1.801" transform="rotate(-135 372.79 180.103)"/><g><path d="M355.471 195.778l-8.785-8.784 7.137-7.137 8.785 8.785a3.735 3.735 0 010 5.282l-1.855 1.854a3.735 3.735 0 01-5.282 0z"/><rect x="345.656" y="190.821" width="29.01" height="4.866" rx="1.801" transform="rotate(-135 359.769 193.124)"/></g><g><path d="M270.642 96.675l8.784 8.785-7.137 7.137-8.784-8.785a3.735 3.735 0 010-5.282l1.854-1.855a3.735 3.735 0 015.283 0z"/><rect x="252.603" y="97.767" width="29.01" height="4.866" rx="1.801" transform="rotate(45 267.422 99.252)"/><path d="M283.662 83.655l8.785 8.784-7.137 7.137-8.785-8.784a3.735 3.735 0 010-5.283l1.855-1.854a3.735 3.735 0 015.282 0z"/><rect x="265.623" y="84.746" width="29.01" height="4.866" rx="1.801" transform="rotate(45 280.443 86.231)"/><path d="M296.683 70.634l8.784 8.785-7.137 7.137-8.784-8.785a3.735 3.735 0 010-5.282l1.854-1.855a3.735 3.735 0 015.283 0z"/><path d="M285.308 62.955l17.966 17.967a1.8 1.8 0 010 2.546l-.894.895a1.801 1.801 0 01-2.547 0l-17.966-17.967a1.8 1.8 0 010-2.547l.894-.894a1.8 1.8 0 012.547 0zM309.703 57.613l8.785 8.785-7.137 7.137-8.785-8.785a3.735 3.735 0 010-5.282l1.855-1.855a3.735 3.735 0 015.282 0z"/><rect x="291.664" y="58.705" width="29.01" height="4.866" rx="1.801" transform="rotate(45 306.484 60.19)"/><path d="M322.724 44.593l8.785 8.784-7.137 7.137-8.785-8.784a3.735 3.735 0 010-5.283l1.855-1.854a3.735 3.735 0 015.282 0z"/><rect x="304.685" y="45.684" width="29.01" height="4.866" rx="1.801" transform="rotate(45 319.505 47.17)"/><g><path d="M335.745 31.572l8.784 8.785-7.137 7.137-8.784-8.785a3.735 3.735 0 010-5.282l1.854-1.855a3.735 3.735 0 015.283 0z"/><rect x="317.706" y="32.664" width="29.01" height="4.866" rx="1.801" transform="rotate(45 332.525 34.149)"/></g></g></g><g fill="#282425"><path d="M362.608 38.71l-8.785 8.784-7.137-7.137 8.785-8.785a3.735 3.735 0 015.282 0l1.855 1.855a3.735 3.735 0 010 5.282z"/><rect x="345.656" y="32.664" width="29.01" height="4.866" rx="1.801" transform="rotate(135 359.976 34.727)"/><path d="M375.628 51.73l-8.784 8.784-7.137-7.136 8.785-8.785a3.735 3.735 0 015.282 0l1.854 1.854a3.735 3.735 0 010 5.283z"/><rect x="358.677" y="45.684" width="29.01" height="4.866" rx="1.801" transform="rotate(135 372.997 47.748)"/><path d="M388.65 64.75l-8.786 8.785-7.136-7.137 8.784-8.785a3.735 3.735 0 015.283 0l1.854 1.855a3.735 3.735 0 010 5.282z"/><rect x="371.698" y="58.705" width="29.01" height="4.866" rx="1.801" transform="rotate(135 386.017 60.768)"/><path d="M401.67 77.771l-8.785 8.785-7.137-7.137 8.785-8.785a3.735 3.735 0 015.282 0l1.855 1.855a3.735 3.735 0 010 5.282z"/><rect x="384.718" y="71.726" width="29.01" height="4.866" rx="1.801" transform="rotate(135 399.038 73.789)"/><path d="M414.69 90.792l-8.784 8.784-7.137-7.137 8.784-8.784a3.735 3.735 0 015.283 0l1.854 1.854a3.735 3.735 0 010 5.283z"/><path d="M422.37 79.417l-17.967 17.966a1.8 1.8 0 01-2.547 0l-.894-.894a1.801 1.801 0 010-2.547l17.966-17.966a1.8 1.8 0 012.547 0l.894.894a1.8 1.8 0 010 2.547z"/><g><path d="M427.71 103.812l-8.784 8.785-7.137-7.137 8.785-8.785a3.735 3.735 0 015.282 0l1.855 1.855a3.735 3.735 0 010 5.282z"/><rect x="410.759" y="97.767" width="29.01" height="4.866" rx="1.801" transform="rotate(135 425.079 99.83)"/></g><g><path d="M328.608 188.642l8.784-8.785 7.137 7.137-8.784 8.784a3.735 3.735 0 01-5.283 0l-1.854-1.854a3.735 3.735 0 010-5.282z"/><rect x="317.706" y="190.821" width="29.01" height="4.866" rx="1.801" transform="rotate(-45 331.318 193.702)"/><path d="M315.587 175.62l8.785-8.784 7.137 7.137-8.785 8.785a3.735 3.735 0 01-5.282 0l-1.855-1.855a3.735 3.735 0 010-5.282z"/><rect x="304.685" y="177.8" width="29.01" height="4.866" rx="1.801" transform="rotate(-45 318.297 180.681)"/><path d="M302.566 162.6l8.785-8.784 7.137 7.137-8.785 8.784a3.735 3.735 0 01-5.282 0l-1.855-1.854a3.735 3.735 0 010-5.283z"/><path d="M294.887 173.975l17.967-17.966a1.8 1.8 0 012.547 0l.894.894a1.8 1.8 0 010 2.547l-17.967 17.966a1.8 1.8 0 01-2.547 0l-.894-.894a1.8 1.8 0 010-2.547zM289.546 149.58l8.784-8.785 7.137 7.137-8.784 8.785a3.735 3.735 0 01-5.283 0l-1.854-1.855a3.735 3.735 0 010-5.282z"/><rect x="278.644" y="151.759" width="29.01" height="4.866" rx="1.801" transform="rotate(-45 292.256 154.64)"/><path d="M276.525 136.56l8.785-8.785 7.137 7.136-8.785 8.785a3.735 3.735 0 01-5.282 0l-1.855-1.854a3.735 3.735 0 010-5.283z"/><rect x="265.623" y="138.738" width="29.01" height="4.866" rx="1.801" transform="rotate(-45 279.236 141.62)"/><g><path d="M263.505 123.539l8.784-8.785 7.137 7.137-8.784 8.784a3.735 3.735 0 01-5.283 0l-1.854-1.854a3.735 3.735 0 010-5.282z"/><path d="M255.826 134.914l17.966-17.967a1.8 1.8 0 012.547 0l.894.894a1.801 1.801 0 010 2.547l-17.966 17.967a1.8 1.8 0 01-2.547 0l-.894-.895a1.8 1.8 0 010-2.546z"/></g></g></g><rect x="285.964" y="54.024" width="120.374" height="120.374" rx="29.234" transform="rotate(45 346.465 113.262)" fill="#282425"/><path d="M410.826 121.007l-57.958 57.957a10.318 10.318 0 01-14.591 0l-57.958-57.957a10.318 10.318 0 010-14.592l57.958-57.958a10.318 10.318 0 0114.591 0l57.958 57.958a10.318 10.318 0 010 14.592z" fill="none" stroke="#fff" stroke-miterlimit="10" stroke-width="4"/><circle cx="284.744" cy="113.796" r="4.309" fill="#fff"/><g data-name="Right Fingers"><path fill="none" stroke="#d4a577" stroke-linecap="round" stroke-miterlimit="10" stroke-width="17" d="M604.551 203.774l-80.182-26.867"/><path fill="none" stroke="#e3b083" stroke-linecap="round" stroke-miterlimit="10" stroke-width="17" d="M595.891 212.258l-83.96-10.078"/><path fill="#f0b689" stroke="#e8b98f" stroke-linecap="round" stroke-miterlimit="10" stroke-width="17" d="M582.466 224.11l-84.537 2.084"/><path d="M711.375 146.808l-32.045 4.296s1.562 35.978 5.888 43.912 20.928 34.446 20.928 34.446l16.023-2.148z" fill="#535353"/></g><path d="M677.934 218.314c-13.714 5.274-71.733 22.152-83.337 23.207s-97.05 20.043-102.324 21.098-12.659 1.055-14.768-7.384 6.329-15.823 25.317-18.988 57.356-14.937 64.348-17.933c7.384-3.165 31.647-26.372 31.647-37.976s1.055-12.659-17.933-24.263c-19.762-12.076-35.866-23.207-37.976-25.317s-4.22-8.44-2.11-13.714 12.659-6.329 23.208 0 43.25 24.263 64.348 27.428 34.811 12.658 37.976 13.713 5.274 2.11 7.384 2.11 4.22 23.207 4.22 30.592z" fill="#fbc393" data-name="Right Hand"/><g data-name="Left Hand"><path d="M357.247 41.092c-8.439 4.22-33.756 2.11-40.085 6.33s-3.165 11.604-2.11 16.878c.506 2.532 10.243 21.119 21.098 40.086l-16.686 6.921-2.81 1.166-3.116 1.293-16.743 6.945-2.873 1.192-2.38.987-16.47 6.832-3.414 1.416-3.296 1.368-14.325 5.942c-2.184-3.914-3.83-6.857-4.388-7.69-2.11-3.165-18.988-24.262-22.153-32.702a54.595 54.595 0 00-7.384-13.713l31.646-66.458s75.952 3.165 105.49 3.165 8.438 15.823 0 20.042z" fill="#fbc393"/><path fill="#535353" d="M215.23 0l31.647 14.768-31.647 69.623V0z"/><path fill="none" stroke="#fbc393" stroke-linecap="round" stroke-miterlimit="10" stroke-width="15" d="M276.021 162.405l-20.043-35.867"/><path fill="none" stroke="#fbc393" stroke-linecap="round" stroke-miterlimit="10" stroke-width="18" d="M303.448 162.405l-20.043-35.867m45.888 33.229l-26.372-46.415m54.854 44.306l-31.647-52.745"/></g></svg>