<svg xmlns="http://www.w3.org/2000/svg" width="327.568" height="248" viewBox="0 0 327.568 248"><g transform="translate(-493.692 -188)"><g transform="translate(538.763 189)"><line x2="262.53" transform="translate(0.74)" fill="none" stroke="#ccc" stroke-miterlimit="10" stroke-width="2"/><line x2="262.53" transform="translate(0.74 27.732)" fill="none" stroke="#ccc" stroke-miterlimit="10" stroke-width="2"/><line x2="262.53" transform="translate(0.74 54.725)" fill="none" stroke="#ccc" stroke-miterlimit="10" stroke-width="2"/><line x2="262.53" transform="translate(0.74 80.978)" fill="none" stroke="#ccc" stroke-miterlimit="10" stroke-width="2"/><line x2="262.53" transform="translate(0.74 107.97)" fill="none" stroke="#ccc" stroke-miterlimit="10" stroke-width="2"/><line x2="262.53" transform="translate(0.74 135.702)" fill="none" stroke="#ccc" stroke-miterlimit="10" stroke-width="2"/><line x2="262.53" transform="translate(0.74 161.955)" fill="none" stroke="#ccc" stroke-miterlimit="10" stroke-width="2"/><line x2="262.53" transform="translate(0.74 188.948)" fill="none" stroke="#ccc" stroke-miterlimit="10" stroke-width="2"/><line x2="262.53" transform="translate(0.74 215.94)" fill="none" stroke="#ccc" stroke-miterlimit="10" stroke-width="2"/><rect width="45.111" height="106.491" transform="translate(20.707 134.593)" fill="#0b72b9"/><rect width="45.111" height="107.231" transform="translate(86.524 134.593)" fill="#0b72b9"/><rect width="45.111" height="187.099" transform="translate(152.341 53.985)" fill="#0b72b9"/><rect width="45.111" height="214.461" transform="translate(218.159 26.623)" fill="#0b72b9"/><path d="M904.467,430.084H621.97V189" transform="translate(-621.97 -189)" fill="none" stroke="#000" stroke-miterlimit="10" stroke-width="2"/><line y1="5.916" transform="translate(42.892 241.084)" fill="none" stroke="#000" stroke-miterlimit="10" stroke-width="3"/><line y1="5.916" transform="translate(109.079 240.344)" fill="none" stroke="#000" stroke-miterlimit="10" stroke-width="3"/><line y1="5.916" transform="translate(174.897 240.344)" fill="none" stroke="#000" stroke-miterlimit="10" stroke-width="3"/><line y1="5.916" transform="translate(239.975 241.084)" fill="none" stroke="#000" stroke-miterlimit="10" stroke-width="3"/></g><g transform="translate(493.692 277.34)"><g transform="translate(0 0)"><path d="M580.25,440.433a58.223,58.223,0,0,0-44.63,95.006l-40.252,41.406a6.3,6.3,0,0,0,.311,8.867,6.172,6.172,0,0,0,4.311,1.671,6.3,6.3,0,0,0,4.518-1.982l39.986-41.147A58.262,58.262,0,1,0,580.25,440.433Zm33.2,90.273a45.68,45.68,0,1,1,13.082-32.435A45.459,45.459,0,0,1,613.454,530.706Z" transform="translate(-493.692 -440.43)"/><path d="M702.9,521.468a45.728,45.728,0,1,1-13.7-32.184A45.4,45.4,0,0,1,702.9,521.468Z" transform="translate(-570.055 -463.628)" fill="#0b72b9"/></g><g transform="translate(46.14 13.527)"><text transform="translate(36.192 8)" fill="#f2f2f2" font-size="10" font-family="Courier-Oblique, Courier" font-style="oblique"><tspan x="0" y="0">11</tspan></text><text transform="translate(12.641 20.297)" fill="#f2f2f2" font-size="10" font-family="Courier-Oblique, Courier" font-style="oblique"><tspan x="0" y="0">001000101</tspan></text><text transform="translate(3.854 32.595)" fill="#f2f2f2" font-size="10" font-family="Courier-Oblique, Courier" font-style="oblique"><tspan x="0" y="0">011101001010</tspan></text><text transform="translate(0 44.892)" fill="#f2f2f2" font-size="10" font-family="Courier-Oblique, Courier" font-style="oblique"><tspan x="0" y="0">1000101010101</tspan></text><text transform="translate(0.94 57.189)" fill="#f2f2f2" font-size="10" font-family="Courier-Oblique, Courier" font-style="oblique"><tspan x="0" y="0">011011001001</tspan></text><text transform="translate(6.316 69.486)" fill="#f2f2f2" font-size="10" font-family="Courier-Oblique, Courier" font-style="oblique"><tspan x="0" y="0">00111011100</tspan></text><text transform="translate(17.856 81.784)" fill="#f2f2f2" font-size="10" font-family="Courier-Oblique, Courier" font-style="oblique"><tspan x="0" y="0">1010001</tspan></text></g></g></g></svg>