<svg xmlns="http://www.w3.org/2000/svg" width="58.346" height="82" viewBox="0 0 58.346 82">
  <path id="_ionicons_svg_ios-bulb" d="M166.346,75.774C166.346,60.418,152.528,48,137.173,48S108,60.438,108,75.774c0,6.111,2.6,11.058,5.953,15.789h-.059c2.149,2.957,4.218,3.489,6.209,6.9,2.9,4.967,3.568,8.023,3.686,10.979a3.162,3.162,0,0,0,3.154,3.016H128.7a.791.791,0,0,0,.788-.788V93.041a6.376,6.376,0,0,0-.67-2.819l-4.139-8.279a2.067,2.067,0,1,1,3.706-1.833l4.987,10.132a6.191,6.191,0,0,1,.65,2.779v18.647a.791.791,0,0,0,.788.788h4.731a.791.791,0,0,0,.788-.788V93.021a6.19,6.19,0,0,1,.65-2.779l5.007-10.171a1.983,1.983,0,1,1,3.548,1.774l-4.2,8.4a6.44,6.44,0,0,0-.67,2.819v18.608a.791.791,0,0,0,.788.788h1.971a3.153,3.153,0,0,0,3.154-2.957c.177-3.036.926-6.367,3.627-11.038,1.991-3.41,4.061-3.942,6.209-6.9h-.02C163.744,86.832,166.346,81.884,166.346,75.774ZM133.625,130h7.1a2.76,2.76,0,0,0,0-5.519h-7.1a2.76,2.76,0,0,0,0,5.519Zm-3.942-8.673h14.981a2.76,2.76,0,0,0,0-5.519H129.683a2.76,2.76,0,1,0,0,5.519Z" transform="translate(-108 -48)" fill="#ffba60"/>
</svg>
