<svg xmlns="http://www.w3.org/2000/svg" width="101.894" height="80.014" viewBox="0 0 101.894 80.014"><g transform="translate(-32 -80.1)"><path d="M130.71,142.828H35.184a3.184,3.184,0,1,0,0,6.368H130.71a3.184,3.184,0,1,0,0-6.368Zm0,10.917H35.184a3.184,3.184,0,1,0,0,6.368H130.71a3.184,3.184,0,1,0,0-6.368Zm-4.8-73.645H39.983A8.008,8.008,0,0,0,32,88.083v40.439a8.008,8.008,0,0,0,7.983,7.983h85.928a8.008,8.008,0,0,0,7.983-7.983V88.083A8.008,8.008,0,0,0,125.911,80.1ZM50.65,129.227H42.462a3.184,3.184,0,1,1,0-6.368H50.65a3.184,3.184,0,1,1,0,6.368Zm0-35.481H42.462a3.184,3.184,0,1,1,0-6.368H50.65a3.184,3.184,0,1,1,0,6.368Zm32.3,32.751a18.2,18.2,0,1,1,18.2-18.2A18.219,18.219,0,0,1,82.947,126.5Zm40.485,2.729h-8.188a3.184,3.184,0,1,1,0-6.368h8.188a3.184,3.184,0,1,1,0,6.368Zm0-35.481h-8.188a3.184,3.184,0,1,1,0-6.368h8.188a3.184,3.184,0,1,1,0,6.368Z" fill="#ffba60"/><ellipse cx="12.054" cy="12.054" rx="12.054" ry="12.054" transform="translate(70.893 96.68)" fill="#ffba60"/></g></svg>