<svg id="Layer_1" data-name="Layer 1" xmlns="http://www.w3.org/2000/svg" width="1920" height="1080" viewBox="0 0 1920 1080"><defs><style>.cls-1{fill:#b3b3b3;}.cls-2,.cls-3{stroke:#fff;stroke-miterlimit:10;stroke-width:5px;}.cls-3{stroke-linecap:round;}</style></defs><title>consultation_large</title><rect class="cls-1" width="1920" height="1080"/><path class="cls-2" d="M983.84077,580.86c-4.36128-.355-7.50428-4.50256-6.75385-12.75727s6.00342-12.75728,12.75728-16.50942,31.03918-17.12265,33.76926-18.7607c3.75214-2.25128,4.50257-6.00342,0-3.00171s-15.759,10.506-21.76241,13.5077-17.25985,10.506-24.76413,14.25813c-7.65289,3.82645-17.25984,5.253-21.76241,0s-6.75385-11.25642,0-20.26155,79.893-63.45321,116.31634-77.29409c37.5214-14.25813,18.7607-9.75556,51.02911-18.7607,30.3666-8.4744,41.10015-11.75869,50.27868-9.00514,7.50428,2.25129,36.771,83.29752,36.771,83.29752s-12.75728,15.759-15.759,18.01027-108.81006,61.77713-123.44541,71.66587c-27.76584,18.76071-60.091,11.16071-34.14447-5.62821,25.51455-16.50941,28.51626-18.01027,27.76583-19.51112s-6.28745,4.48936-17.25984,9.00513c-10.05786,4.13939-31.58076,14.29522-42.024,11.25642-5.095-1.48256-9.75557-8.25471-3.00171-15.759s36.02054-22.51284,37.5214-24.76412,1.57247-2.88461-4.50257.75043C1023.0913,567.64623,997.52163,581.97369,983.84077,580.86Z"/><path class="cls-2" d="M958.32622,533.583c-2.60609,3.08859-26.265-18.7607-26.265-18.7607,3.75214-9.75557,47.277-84.79837,47.277-84.79837,10.506,3.00171,18.76071,5.253,37.52141,0s42.77439-6.75385,55.53167-5.253,29.26669,3.00172,33.76926,6.00343,20.26156,19.51113,25.51455,28.51626,15.00857,17.25985,13.50771,26.265-4.50257,11.25642-11.25642,9.75557-17.25985-5.253-22.51284-9.75557a258.08578,258.08578,0,0,1-20.26156-20.26155c-4.50257-5.253-4.76591-7.45334-12.75728-5.253C1044.45744,469.38536,981.02626,506.68021,958.32622,533.583Z"/><polygon class="cls-2" points="1218.725 388 1156.439 419.518 1214.222 526.079 1263 504.316 1218.725 388"/><polygon class="cls-2" points="922.306 388 984.591 419.518 926.808 526.079 878.03 504.316 922.306 388"/><rect class="cls-3" x="1083.40771" y="590.24035" width="47.75695" height="28.51627" rx="14.25812" transform="translate(751.76159 -605.91606) rotate(45)"/><rect class="cls-3" x="1104.3797" y="568.66555" width="55.71644" height="28.51627" rx="14.25812" transform="translate(743.81409 -629.87871) rotate(45)"/><rect class="cls-3" x="1126.5417" y="549.34203" width="65.79846" height="28.51627" rx="14.25812" transform="translate(738.11788 -654.77388) rotate(45)"/><rect class="cls-3" x="1166.61647" y="527.76722" width="35.55239" height="28.51627" rx="14.25812" transform="translate(730.17038 -678.73653) rotate(45)"/></svg>