<svg id="Layer_1" data-name="Layer 1" xmlns="http://www.w3.org/2000/svg" width="1920" height="1080" viewBox="0 0 1920 1080"><defs><style>.cls-1{fill:#fbb03b;}.cls-2{fill:#b3b3b3;}.cls-3{fill:#7e8789;}.cls-4{fill:#999;}.cls-5,.cls-6,.cls-7,.cls-8{stroke:#000;stroke-linecap:round;stroke-miterlimit:10;}.cls-5{stroke-width:22px;}.cls-6,.cls-7,.cls-8{fill:none;}.cls-6{stroke-width:5px;}.cls-7{stroke-width:3px;}.cls-8{stroke-width:7px;}</style></defs><title>construction_large</title><rect class="cls-1" width="1920" height="1080"/><rect x="1139.34998" y="345.65217" width="8.94739" height="374.59751"/><rect x="1194.82381" y="345.65217" width="8.94739" height="374.59751"/><rect x="1253.8766" y="345.65217" width="10.14038" height="374.59751"/><rect x="1314.12238" y="345.65217" width="8.94739" height="374.59751"/><rect x="1373.17517" y="345.65217" width="10.14038" height="374.59751"/><path class="cls-2" d="M1172.15708,407.09093V720.84617h252.31648V407.09093Zm50.7019,300.0359h-28.63166V678.49518H1222.859Zm0-85.895h-28.63166V592.60021H1222.859Zm0-85.895h-28.63166V506.70524H1222.859Zm0-85.895h-28.63166V420.81027H1222.859Zm59.64928,257.68491H1253.8766V678.49518h28.63166Zm0-85.895H1253.8766V592.60021h28.63166Zm0-85.895H1253.8766V506.70524h28.63166Zm0-85.895H1253.8766V420.81027h28.63166Zm59.64928,257.68491h-28.63165V678.49518h28.63165Zm0-85.895h-28.63165V592.60021h28.63165Zm0-85.895h-28.63165V506.70524h28.63165Zm0-85.895h-28.63165V420.81027h28.63165Zm59.64929,257.68491h-28.63166V678.49518h28.63166Zm0-85.895h-28.63166V592.60021h28.63166Zm0-85.895h-28.63166V506.70524h28.63166Zm0-85.895h-28.63166V420.81027h28.63166Z"/><rect class="cls-3" x="1121.45519" y="464.95074" width="303.01837" height="7.15791"/><rect class="cls-3" x="1121.45519" y="548.45974" width="303.01837" height="7.15791"/><rect class="cls-3" x="1121.45519" y="631.96874" width="303.01837" height="7.15791"/><polygon class="cls-4" points="1471 710.109 1424.474 720.846 1424.474 407.091 1469.211 425.582 1471 710.109"/><rect x="876.74165" y="704.59728" width="218.54494" height="16.34417" transform="translate(1972.02823 1425.53874) rotate(-180)"/><rect x="913.63278" y="688.72008" width="144.76267" height="16.34417" transform="translate(1972.02823 1393.78434) rotate(-180)"/><rect x="950.99089" y="672.37591" width="70.04646" height="16.34417" transform="translate(1972.02823 1361.096) rotate(-180)"/><line class="cls-5" x1="1175.13955" y1="381.44963" x2="866.93514" y2="381.44963"/><line class="cls-6" x1="1166.73397" y1="385.18544" x2="1166.73397" y2="457.09981"/><line class="cls-6" x1="1155.29305" y1="385.41893" x2="1155.29305" y2="457.33329"/><line class="cls-6" x1="1003.99271" y1="441.92307" x2="965.70065" y2="441.92307"/><line class="cls-6" x1="1003.99271" y1="470.40863" x2="965.70065" y2="470.40863"/><line class="cls-6" x1="1003.99271" y1="498.89419" x2="965.70065" y2="498.89419"/><line class="cls-6" x1="1003.99271" y1="527.37975" x2="965.70065" y2="527.37975"/><line class="cls-6" x1="1004.45968" y1="555.86531" x2="966.16762" y2="555.86531"/><line class="cls-6" x1="1003.99271" y1="584.81784" x2="965.70065" y2="584.81784"/><line class="cls-6" x1="1004.45968" y1="613.77038" x2="966.16762" y2="613.77038"/><line class="cls-6" x1="1003.99271" y1="642.25594" x2="965.70065" y2="642.25594"/><line class="cls-6" x1="1004.45968" y1="672.14242" x2="967.56855" y2="643.65687"/><line class="cls-6" x1="965.70065" y1="672.14242" x2="1003.05875" y2="643.65687"/><line class="cls-6" x1="965.70065" y1="641.78896" x2="1002.1248" y2="615.17131"/><line class="cls-6" x1="965.70065" y1="613.3034" x2="1003.99271" y2="584.81784"/><line class="cls-6" x1="967.10157" y1="583.88389" x2="1003.52573" y2="557.26624"/><line class="cls-6" x1="967.10157" y1="554.93136" x2="1003.52573" y2="528.3137"/><line class="cls-6" x1="966.6346" y1="526.91277" x2="1003.05875" y2="500.29512"/><line class="cls-6" x1="966.6346" y1="498.42721" x2="1003.05875" y2="471.80956"/><line class="cls-6" x1="966.6346" y1="469.47468" x2="1003.05876" y2="442.85703"/><line class="cls-6" x1="1003.99271" y1="641.78896" x2="967.56855" y2="615.17131"/><line class="cls-6" x1="1003.05875" y1="612.36945" x2="966.6346" y2="585.7518"/><line class="cls-6" x1="1003.05875" y1="583.88389" x2="966.6346" y2="557.26624"/><line class="cls-6" x1="1003.05875" y1="555.39833" x2="966.6346" y2="528.78068"/><line class="cls-6" x1="1003.52573" y1="526.91277" x2="967.10157" y2="500.29512"/><line class="cls-6" x1="1003.52573" y1="498.42721" x2="967.10157" y2="471.80956"/><line class="cls-6" x1="1003.99271" y1="470.40863" x2="965.70065" y2="441.92307"/><line class="cls-7" x1="972.6024" y1="370.00871" x2="996.98806" y2="352.18842"/><line class="cls-7" x1="997.92201" y1="370.47569" x2="972.23831" y2="351.79663"/><line class="cls-7" x1="973.06937" y1="350.86268" x2="997.45504" y2="333.04239"/><line class="cls-7" x1="997.92201" y1="351.32966" x2="972.4441" y2="332.41711"/><line class="cls-7" x1="973.06937" y1="331.24967" x2="997.45504" y2="313.42938"/><line class="cls-7" x1="972.23831" y1="313" x2="998.02884" y2="313"/><line class="cls-7" x1="972.23831" y1="332.61301" x2="998.02884" y2="332.61301"/><line class="cls-7" x1="972.23831" y1="351.75904" x2="998.02884" y2="351.75904"/><line class="cls-7" x1="998.20892" y1="370.94267" x2="998.20892" y2="313.18007"/><line class="cls-7" x1="972.05824" y1="370.94267" x2="972.05824" y2="313.18007"/><line class="cls-7" x1="998.1555" y1="331.95014" x2="972.70529" y2="313.0376"/><line class="cls-6" x1="1004.45968" y1="439.12122" x2="1004.45968" y2="672.14242"/><line class="cls-6" x1="965.70065" y1="439.12122" x2="965.70065" y2="672.14242"/><path d="M958.92949,381.91661v58.839h52.30135v-58.839ZM964.5332,393.124h41.09393v27.55161H964.5332Z"/><rect x="964.5332" y="370.2422" width="41.09392" height="6.07069" transform="translate(1970.16033 746.55509) rotate(-180)"/><line class="cls-6" x1="997.45504" y1="313.50457" x2="1159.49584" y2="377.48033"/><line class="cls-6" x1="864.36677" y1="381.68312" x2="971.77134" y2="313.50457"/><rect x="866.23468" y="386.35289" width="57.43809" height="57.43809" transform="translate(1789.90745 830.14386) rotate(-180)"/><path d="M1169.53583,460.36864c-.46926,4.73907-3.90744,11.08373-4.20279,11.67441-.467.93395-.934,1.8679-2.33488,1.8679h-3.73581c-.93395,0-3.26883-3.26883-4.20279-5.60371s-2.33488-5.60372-1.8679-8.87255,1.8679-7.9386,7.00464-7.9386c3.73581,0,5.60372,1.32826,6.53767,2.29855a10.63037,10.63037,0,0,1,2.33488,3.77214A6.28769,6.28769,0,0,1,1169.53583,460.36864Z"/><path class="cls-8" d="M1161.13026,473.911v2.58173s-8.17209-.48033-8.17209,7.45827c0,2.33488.93395,4.20278,4.20279,5.13674,2.83978.81136,7.47162-.91941,7.47162-3.26884"/></svg>