<svg id="Layer_1" data-name="Layer 1" xmlns="http://www.w3.org/2000/svg" width="749" height="1334" viewBox="0 0 749 1334"><defs><style>.cls-1{fill:#fbb03b;}.cls-2{fill:#b3b3b3;}.cls-3{fill:#7e8789;}.cls-4{fill:#999;}.cls-5,.cls-6,.cls-7,.cls-8{stroke:#000;stroke-linecap:round;stroke-miterlimit:10;}.cls-5{stroke-width:22px;}.cls-6,.cls-7,.cls-8{fill:none;}.cls-6{stroke-width:2px;}.cls-7{stroke-width:5px;}.cls-8{stroke-width:3px;}</style></defs><title>construction_mobile</title><rect class="cls-1" width="749" height="1334"/><rect x="360.97443" y="925.15268" width="4.58702" height="192.04326"/><rect x="389.41396" y="925.15268" width="4.58702" height="192.04326"/><rect x="419.6883" y="925.15268" width="5.19862" height="192.04326"/><rect x="450.57424" y="925.15268" width="4.58702" height="192.04326"/><rect x="480.84857" y="925.15268" width="5.19862" height="192.04326"/><path class="cls-2" d="M378.79351,956.65022v160.85153h129.354V956.65022Zm25.99312,153.8181H390.10816v-14.67847h14.67847Zm0-44.0354H390.10816v-14.67847h14.67847Zm0-44.0354H390.10816v-14.67847h14.67847Zm0-44.0354H390.10816V963.68366h14.67847Zm30.58013,132.1062H420.6883v-14.67847h14.67846Zm0-44.0354H420.6883v-14.67847h14.67846Zm0-44.0354H420.6883v-14.67847h14.67846Zm0-44.0354H420.6883V963.68366h14.67846Zm30.58014,132.1062H451.26844v-14.67847H465.9469Zm0-44.0354H451.26844v-14.67847H465.9469Zm0-44.0354H451.26844v-14.67847H465.9469Zm0-44.0354H451.26844V963.68366H465.9469Zm30.58014,132.1062H481.84857v-14.67847H496.527Zm0-44.0354H481.84857v-14.67847H496.527Zm0-44.0354H481.84857v-14.67847H496.527Zm0-44.0354H481.84857V963.68366H496.527Z" transform="translate(-1 0)"/><rect class="cls-3" x="351.80039" y="986.31296" width="155.3471" height="3.66962"/><rect class="cls-3" x="351.80039" y="1029.12515" width="155.3471" height="3.66962"/><rect class="cls-3" x="351.80039" y="1071.93734" width="155.3471" height="3.66962"/><polygon class="cls-4" points="531 1111.997 507.147 1117.502 507.147 956.65 530.083 966.13 531 1111.997"/><rect x="227.34417" y="1109.1715" width="112.04048" height="8.3791" transform="translate(565.72882 2226.7221) rotate(-180)"/><rect x="246.25699" y="1101.03181" width="74.21485" height="8.3791" transform="translate(565.72882 2210.44272) rotate(-180)"/><rect x="265.40921" y="1092.65271" width="35.91041" height="8.3791" transform="translate(565.72882 2193.68452) rotate(-180)"/><line class="cls-5" x1="379.32252" y1="943.50481" x2="221.31672" y2="943.50481"/><line class="cls-6" x1="375.01327" y1="945.42003" x2="375.01327" y2="982.28806"/><line class="cls-6" x1="369.1479" y1="945.53974" x2="369.1479" y2="982.40776"/><line class="cls-7" x1="291.58142" y1="974.50747" x2="271.95039" y2="974.50747"/><line class="cls-8" x1="291.58142" y1="989.11103" x2="271.95039" y2="989.11103"/><line class="cls-8" x1="291.58142" y1="1003.7146" x2="271.95039" y2="1003.7146"/><line class="cls-8" x1="291.58142" y1="1018.31817" x2="271.95039" y2="1018.31817"/><line class="cls-8" x1="291.82082" y1="1032.92173" x2="272.1898" y2="1032.92173"/><line class="cls-8" x1="291.58142" y1="1047.7647" x2="271.95039" y2="1047.7647"/><line class="cls-8" x1="291.82082" y1="1062.60767" x2="272.1898" y2="1062.60767"/><line class="cls-8" x1="291.58142" y1="1077.21124" x2="271.95039" y2="1077.21124"/><line class="cls-8" x1="291.82082" y1="1092.53301" x2="272.908" y2="1077.92945"/><line class="cls-8" x1="271.95039" y1="1092.53301" x2="291.10261" y2="1077.92945"/><line class="cls-8" x1="271.95039" y1="1076.97184" x2="290.62381" y2="1063.32588"/><line class="cls-8" x1="271.95039" y1="1062.36827" x2="291.58142" y2="1047.7647"/><line class="cls-8" x1="272.6686" y1="1047.2859" x2="291.34201" y2="1033.63994"/><line class="cls-8" x1="272.6686" y1="1032.44293" x2="291.34201" y2="1018.79697"/><line class="cls-8" x1="272.4292" y1="1018.07876" x2="291.10261" y2="1004.43281"/><line class="cls-8" x1="272.4292" y1="1003.4752" x2="291.10261" y2="989.82924"/><line class="cls-8" x1="272.4292" y1="988.63223" x2="291.10261" y2="974.98627"/><line class="cls-8" x1="291.58142" y1="1076.97184" x2="272.908" y2="1063.32588"/><line class="cls-8" x1="291.10261" y1="1061.88946" x2="272.4292" y2="1048.24351"/><line class="cls-8" x1="291.10261" y1="1047.2859" x2="272.4292" y2="1033.63994"/><line class="cls-8" x1="291.10261" y1="1032.68233" x2="272.4292" y2="1019.03637"/><line class="cls-8" x1="291.34201" y1="1018.07876" x2="272.6686" y2="1004.43281"/><line class="cls-8" x1="291.34201" y1="1003.4752" x2="272.6686" y2="989.82924"/><line class="cls-8" x1="291.58142" y1="989.11103" x2="271.95039" y2="974.50747"/><line class="cls-8" x1="275.48868" y1="937.63945" x2="287.99038" y2="928.50359"/><line class="cls-8" x1="288.46918" y1="937.87885" x2="275.30203" y2="928.30274"/><line class="cls-8" x1="275.72809" y1="927.82393" x2="288.22978" y2="918.68808"/><line class="cls-8" x1="288.46918" y1="928.06334" x2="275.40753" y2="918.36753"/><line class="cls-8" x1="275.72809" y1="917.76902" x2="288.22978" y2="908.63317"/><line class="cls-8" x1="275.30203" y1="908.41304" x2="288.52395" y2="908.41304"/><line class="cls-8" x1="275.30203" y1="918.46795" x2="288.52395" y2="918.46795"/><line class="cls-8" x1="275.30203" y1="928.28347" x2="288.52395" y2="928.28347"/><line class="cls-8" x1="288.61627" y1="938.11825" x2="288.61627" y2="908.50536"/><line class="cls-8" x1="275.20971" y1="938.11825" x2="275.20971" y2="908.50536"/><line class="cls-8" x1="288.58888" y1="918.12812" x2="275.54143" y2="908.43231"/><line class="cls-8" x1="291.82082" y1="973.07105" x2="291.82082" y2="1092.53301"/><line class="cls-8" x1="271.95039" y1="973.07105" x2="271.95039" y2="1092.53301"/><path d="M269.479,943.74422V973.909h26.81311V943.74422Zm2.87284,5.74566h21.06744v14.12476H272.35189Z" transform="translate(-1 0)"/><rect x="272.35189" y="937.75915" width="21.06744" height="3.11224" transform="translate(564.77121 1878.63053) rotate(-180)"/><line class="cls-7" x1="288.22978" y1="908.67172" x2="371.30253" y2="941.46989"/><line class="cls-7" x1="220" y1="943.62451" x2="275.06263" y2="908.67172"/><rect x="221.95761" y="946.01854" width="29.44654" height="29.44654" transform="translate(472.36176 1921.48362) rotate(-180)"/><path d="M377.44968,983.96387a20.10969,20.10969,0,0,1-2.15462,5.98507c-.2394.47881-.47881.95761-1.197.95761h-1.91523c-.4788,0-1.67581-1.67582-2.15462-2.87283a9.11381,9.11381,0,0,1-.95761-4.54865c.2394-1.67582.95761-4.06985,3.591-4.06985a4.36829,4.36829,0,0,1,3.35164,1.17839,5.45,5.45,0,0,1,1.197,1.93385A3.22338,3.22338,0,0,1,377.44968,983.96387Z" transform="translate(-1 0)"/><path class="cls-6" d="M373.14044,990.90655v1.32357s-4.18955-.24625-4.18955,3.82359a2.51121,2.51121,0,0,0,2.15462,2.63343c1.45586.416,3.83045-.47134,3.83045-1.67582" transform="translate(-1 0)"/></svg>