<svg id="Layer_1" data-name="Layer 1" xmlns="http://www.w3.org/2000/svg" width="749" height="1334" viewBox="0 0 749 1334"><defs><style>.cls-1{fill:#b3b3b3;}.cls-2,.cls-3{stroke:#fff;stroke-miterlimit:10;stroke-width:5px;}.cls-3{stroke-linecap:round;}</style></defs><title>consultation_mobile</title><rect class="cls-1" width="749" height="1334"/><path class="cls-2" d="M308.18129,1146.83817c-3.38735-.27575-5.82846-3.49708-5.24562-9.90839s4.66277-9.90838,9.90838-12.82261,24.10766-13.2989,26.22807-14.57115c2.91423-1.74854,3.49708-4.66277,0-2.33138s-12.23976,8.15984-16.90253,10.49123-13.40546,8.15984-19.23392,11.07407c-5.94388,2.97194-13.40546,4.07992-16.90253,0s-5.24562-8.74269,0-15.73684S348.0848,1063.75,376.37427,1053c29.1423-11.07408,14.57115-7.577,39.63353-14.57115,23.58527-6.58194,31.92186-9.1328,39.05068-6.99415,5.82846,1.74853,28.55945,64.6959,28.55945,64.6959s-9.90838,12.23977-12.23976,13.98831-84.51112,47.98135-95.87817,55.66179c-21.5653,14.57115-46.67175,8.66835-26.51949-4.37134,19.81676-12.82262,22.14814-13.98831,21.5653-15.154s-4.88337,3.48682-13.40546,6.99415c-7.81179,3.215-24.52829,11.10288-32.63938,8.74269-3.95721-1.15148-7.577-6.4113-2.33138-12.23976s27.97661-17.48538,29.1423-19.23392,1.22132-2.24043-3.49708.58284C338.66657,1136.57523,318.807,1147.70315,308.18129,1146.83817Z"/><path class="cls-2" d="M288.36452,1110.11887c-2.02411,2.39886-20.39961-14.57115-20.39961-14.57115,2.91423-7.577,36.7193-65.8616,36.7193-65.8616,8.15984,2.33138,14.57115,4.07992,29.1423,0s33.22222-5.24562,43.13061-4.07992,22.731,2.33138,26.22807,4.66276,15.73684,15.154,19.81676,22.14815,11.65692,13.40546,10.49123,20.39961-3.49708,8.74269-8.74269,7.577-13.40546-4.07992-17.48538-7.577a200.45042,200.45042,0,0,1-15.73684-15.73684C388.03119,1053,387.82665,1051.291,381.61988,1053,355.26132,1060.25751,305.9953,1089.22385,288.36452,1110.11887Z"/><polygon class="cls-2" points="490.612 997.047 442.236 1021.526 487.115 1104.29 525 1087.388 490.612 997.047"/><polygon class="cls-2" points="260.388 997.047 308.764 1021.526 263.885 1104.29 226 1087.388 260.388 997.047"/><rect class="cls-3" x="385.51341" y="1154.12374" width="37.09209" height="22.14815" rx="11.07406" transform="translate(942.26555 55.56536) rotate(45)"/><rect class="cls-3" x="401.80203" y="1137.36692" width="43.27411" height="22.14815" rx="11.07406" transform="translate(936.09285 36.95393) rotate(45)"/><rect class="cls-3" x="419.01492" y="1122.35863" width="51.10466" height="22.14815" rx="11.07406" transform="translate(931.66869 17.61824) rotate(45)"/><rect class="cls-3" x="450.14038" y="1105.60181" width="27.613" height="22.14815" rx="11.07406" transform="translate(925.49598 -0.99319) rotate(45)"/></svg>