<svg id="Layer_1" data-name="Layer 1" xmlns="http://www.w3.org/2000/svg" width="749" height="1334" viewBox="0 0 749 1334"><defs><style>.cls-1{fill:#fbb03b;}.cls-2{fill:#b3b3b3;}.cls-3{fill:#7e8789;}.cls-4{fill:#999;}.cls-5,.cls-6,.cls-7,.cls-8{stroke:#000;stroke-linecap:round;stroke-miterlimit:10;}.cls-5{stroke-width:22px;}.cls-6,.cls-7,.cls-8{fill:none;}.cls-6{stroke-width:5px;}.cls-7{stroke-width:3px;}.cls-8{stroke-width:7px;}</style></defs><title>construction_medium</title><rect class="cls-1" width="749" height="1334"/><rect x="355.11242" y="814.9441" width="6.01315" height="251.75072"/><rect x="392.39397" y="814.9441" width="6.01315" height="251.75072"/><rect x="432.08079" y="814.9441" width="6.81491" height="251.75072"/><rect x="472.56936" y="814.9441" width="6.01315" height="251.75072"/><rect x="512.25618" y="814.9441" width="6.81491" height="251.75072"/><path class="cls-2" d="M378.16065,856.23443v210.86128H547.7316V856.23443Zm34.07454,201.64111H392.9931v-19.2421h19.24209Zm0-57.72629H392.9931V980.90716h19.24209Zm0-57.72628H392.9931V923.18088h19.24209Zm0-57.72628H392.9931V865.4546h19.24209Zm40.08769,173.17885H433.08079v-19.2421h19.24209Zm0-57.72629H433.08079V980.90716h19.24209Zm0-57.72628H433.08079V923.18088h19.24209Zm0-57.72628H433.08079V865.4546h19.24209Zm40.0877,173.17885H473.16849v-19.2421h19.24209Zm0-57.72629H473.16849V980.90716h19.24209Zm0-57.72628H473.16849V923.18088h19.24209Zm0-57.72628H473.16849V865.4546h19.24209Zm40.08769,173.17885H513.25618v-19.2421h19.24209Zm0-57.72629H513.25618V980.90716h19.24209Zm0-57.72628H513.25618V923.18088h19.24209Zm0-57.72628H513.25618V865.4546h19.24209Z" transform="translate(-1 0)"/><rect class="cls-3" x="343.08611" y="895.11949" width="203.64549" height="4.81052"/><rect class="cls-3" x="343.08611" y="951.24227" width="203.64549" height="4.81052"/><rect class="cls-3" x="343.08611" y="1007.36504" width="203.64549" height="4.81052"/><polygon class="cls-4" points="578 1059.88 546.732 1067.096 546.732 856.234 576.797 868.662 578 1059.88"/><rect x="179.62476" y="1056.17553" width="146.87457" height="10.98421" transform="translate(505.12409 2123.33527) rotate(-180)"/><rect x="204.41769" y="1045.50516" width="97.28871" height="10.98421" transform="translate(505.12409 2101.99453) rotate(-180)"/><rect x="229.52445" y="1034.52095" width="47.07518" height="10.98421" transform="translate(505.12409 2080.02611) rotate(-180)"/><line class="cls-5" x1="379.16503" y1="839.00203" x2="172.03423" y2="839.00203"/><line class="cls-6" x1="373.51601" y1="841.5127" x2="373.51601" y2="889.84322"/><line class="cls-6" x1="365.82707" y1="841.66962" x2="365.82707" y2="890.00014"/><line class="cls-6" x1="264.14467" y1="879.6436" x2="238.41024" y2="879.6436"/><line class="cls-6" x1="264.14467" y1="898.78751" x2="238.41024" y2="898.78751"/><line class="cls-6" x1="264.14467" y1="917.93142" x2="238.41024" y2="917.93142"/><line class="cls-6" x1="264.14467" y1="937.07532" x2="238.41024" y2="937.07532"/><line class="cls-6" x1="264.45851" y1="956.21923" x2="238.72407" y2="956.21923"/><line class="cls-6" x1="264.14467" y1="975.67697" x2="238.41024" y2="975.67697"/><line class="cls-6" x1="264.45851" y1="995.13471" x2="238.72407" y2="995.13471"/><line class="cls-6" x1="264.14467" y1="1014.27862" x2="238.41024" y2="1014.27862"/><line class="cls-6" x1="264.45851" y1="1034.36403" x2="239.66558" y2="1015.22012"/><line class="cls-6" x1="238.41024" y1="1034.36403" x2="263.517" y2="1015.22012"/><line class="cls-6" x1="238.41024" y1="1013.96479" x2="262.88933" y2="996.07622"/><line class="cls-6" x1="238.41024" y1="994.82088" x2="264.14467" y2="975.67697"/><line class="cls-6" x1="239.35174" y1="975.0493" x2="263.83084" y2="957.16073"/><line class="cls-6" x1="239.35174" y1="955.59156" x2="263.83084" y2="937.70299"/><line class="cls-6" x1="239.03791" y1="936.76149" x2="263.517" y2="918.87292"/><line class="cls-6" x1="239.03791" y1="917.61758" x2="263.517" y2="899.72901"/><line class="cls-6" x1="239.03791" y1="898.15984" x2="263.517" y2="880.27127"/><line class="cls-6" x1="264.14467" y1="1013.96479" x2="239.66558" y2="996.07622"/><line class="cls-6" x1="263.517" y1="994.19321" x2="239.03791" y2="976.30464"/><line class="cls-6" x1="263.517" y1="975.0493" x2="239.03791" y2="957.16073"/><line class="cls-6" x1="263.517" y1="955.9054" x2="239.03791" y2="938.01683"/><line class="cls-6" x1="263.83084" y1="936.76149" x2="239.35174" y2="918.87292"/><line class="cls-6" x1="263.83084" y1="917.61758" x2="239.35174" y2="899.72901"/><line class="cls-6" x1="264.14467" y1="898.78751" x2="238.41024" y2="879.6436"/><line class="cls-7" x1="243.04861" y1="831.31308" x2="259.43715" y2="819.33684"/><line class="cls-7" x1="260.06482" y1="831.62692" x2="242.80392" y2="819.07353"/><line class="cls-7" x1="243.36244" y1="818.44586" x2="259.75099" y2="806.46962"/><line class="cls-7" x1="260.06482" y1="818.7597" x2="242.94222" y2="806.0494"/><line class="cls-7" x1="243.36244" y1="805.26481" x2="259.75099" y2="793.28857"/><line class="cls-7" x1="242.80392" y1="793" x2="260.13662" y2="793"/><line class="cls-7" x1="242.80392" y1="806.18105" x2="260.13662" y2="806.18105"/><line class="cls-7" x1="242.80392" y1="819.04827" x2="260.13662" y2="819.04827"/><line class="cls-7" x1="260.25764" y1="831.94075" x2="260.25764" y2="793.12102"/><line class="cls-7" x1="242.6829" y1="831.94075" x2="242.6829" y2="793.12102"/><line class="cls-7" x1="260.22174" y1="805.73557" x2="243.11776" y2="793.02527"/><line class="cls-6" x1="264.45851" y1="877.76059" x2="264.45851" y2="1034.36403"/><line class="cls-6" x1="238.41024" y1="877.76059" x2="238.41024" y2="1034.36403"/><path d="M234.85964,839.31586V878.859h35.14947V839.31586Zm3.766,7.532h27.61744v18.51624H238.62565Z" transform="translate(-1 0)"/><rect x="238.62565" y="831.47" width="27.61744" height="4.07985" transform="translate(503.86875 1667.01985) rotate(-180)"/><line class="cls-6" x1="259.75099" y1="793.3391" x2="368.65158" y2="836.33443"/><line class="cls-6" x1="170.30814" y1="839.15894" x2="242.49009" y2="793.3391"/><rect x="172.56348" y="842.29729" width="38.60165" height="38.60165" transform="translate(382.72861 1723.19623) rotate(-180)"/><path d="M376.399,892.04007c-.31537,3.18492-2.626,7.44889-2.82451,7.84586-.31384.62767-.62767,1.25534-1.56917,1.25534h-2.51068c-.62767,0-2.19684-2.19684-2.82451-3.766s-1.56917-3.766-1.25534-5.96285,1.25534-5.33519,4.70752-5.33519A5.72642,5.72642,0,0,1,374.516,887.622a7.1443,7.1443,0,0,1,1.56917,2.5351A4.22555,4.22555,0,0,1,376.399,892.04007Z" transform="translate(-1 0)"/><path class="cls-8" d="M370.75,901.14127v1.73507s-5.49211-.32282-5.49211,5.01237c0,1.56917.62767,2.82451,2.82451,3.45218,1.9085.54528,5.02136-.61789,5.02136-2.19684" transform="translate(-1 0)"/></svg>