<svg id="Layer_1" data-name="Layer 1" xmlns="http://www.w3.org/2000/svg" viewBox="0 0 1920 1080"><defs><style>.cls-1{fill:#fbb03b;}.cls-2{fill:#b3b3b3;}.cls-3{fill:#7e8789;}.cls-4{fill:#999;}.cls-5,.cls-6,.cls-7,.cls-8{stroke:#000;stroke-linecap:round;stroke-miterlimit:10;}.cls-5{stroke-width:22px;}.cls-6,.cls-7,.cls-8{fill:none;}.cls-6{stroke-width:5px;}.cls-7{stroke-width:3px;}.cls-8{stroke-width:7px;}</style></defs><title>construction</title><rect class="cls-1" width="1920" height="1080"/><rect x="1132" y="245" width="15" height="628"/><rect x="1225" y="245" width="15" height="628"/><rect x="1324" y="245" width="17" height="628"/><rect x="1425" y="245" width="15" height="628"/><rect x="1524" y="245" width="17" height="628"/><path class="cls-2" d="M1187,348V874h423V348Zm85,503h-48V803h48Zm0-144h-48V659h48Zm0-144h-48V515h48Zm0-144h-48V371h48Zm100,432h-48V803h48Zm0-144h-48V659h48Zm0-144h-48V515h48Zm0-144h-48V371h48Zm100,432h-48V803h48Zm0-144h-48V659h48Zm0-144h-48V515h48Zm0-144h-48V371h48Zm100,432h-48V803h48Zm0-144h-48V659h48Zm0-144h-48V515h48Zm0-144h-48V371h48Z"/><rect class="cls-3" x="1102" y="445" width="508" height="12"/><rect class="cls-3" x="1102" y="585" width="508" height="12"/><rect class="cls-3" x="1102" y="725" width="508" height="12"/><polygon class="cls-4" points="1688 856 1610 874 1610 348 1685 379 1688 856"/><rect x="691.75" y="846.76" width="366.38" height="27.4" transform="translate(1749.88 1720.92) rotate(-180)"/><rect x="753.59" y="820.14" width="242.69" height="27.4" transform="translate(1749.88 1667.68) rotate(-180)"/><rect x="816.22" y="792.74" width="117.43" height="27.4" transform="translate(1749.88 1612.88) rotate(-180)"/><line class="cls-5" x1="1192" y1="305.01" x2="675.31" y2="305.01"/><line class="cls-6" x1="1177.91" y1="311.28" x2="1177.91" y2="431.84"/><line class="cls-6" x1="1158.73" y1="311.67" x2="1158.73" y2="432.23"/><line class="cls-6" x1="905.08" y1="406.39" x2="840.88" y2="406.39"/><line class="cls-6" x1="905.08" y1="454.15" x2="840.88" y2="454.15"/><line class="cls-6" x1="905.08" y1="501.91" x2="840.88" y2="501.91"/><line class="cls-6" x1="905.08" y1="549.66" x2="840.88" y2="549.66"/><line class="cls-6" x1="905.86" y1="597.42" x2="841.67" y2="597.42"/><line class="cls-6" x1="905.08" y1="645.95" x2="840.88" y2="645.95"/><line class="cls-6" x1="905.86" y1="694.49" x2="841.67" y2="694.49"/><line class="cls-6" x1="905.08" y1="742.25" x2="840.88" y2="742.25"/><line class="cls-6" x1="905.86" y1="792.35" x2="844.01" y2="744.59"/><line class="cls-6" x1="840.88" y1="792.35" x2="903.51" y2="744.59"/><line class="cls-6" x1="840.88" y1="741.46" x2="901.95" y2="696.84"/><line class="cls-6" x1="840.88" y1="693.71" x2="905.08" y2="645.95"/><line class="cls-6" x1="843.23" y1="644.39" x2="904.3" y2="599.76"/><line class="cls-6" x1="843.23" y1="595.85" x2="904.3" y2="551.23"/><line class="cls-6" x1="842.45" y1="548.88" x2="903.51" y2="504.25"/><line class="cls-6" x1="842.45" y1="501.12" x2="903.51" y2="456.5"/><line class="cls-6" x1="842.45" y1="452.58" x2="903.51" y2="407.96"/><line class="cls-6" x1="905.08" y1="741.46" x2="844.01" y2="696.84"/><line class="cls-6" x1="903.51" y1="692.14" x2="842.45" y2="647.52"/><line class="cls-6" x1="903.51" y1="644.39" x2="842.45" y2="599.76"/><line class="cls-6" x1="903.51" y1="596.63" x2="842.45" y2="552.01"/><line class="cls-6" x1="904.3" y1="548.88" x2="843.23" y2="504.25"/><line class="cls-6" x1="904.3" y1="501.12" x2="843.23" y2="456.5"/><line class="cls-6" x1="905.08" y1="454.15" x2="840.88" y2="406.39"/><line class="cls-7" x1="852.45" y1="285.83" x2="893.34" y2="255.96"/><line class="cls-7" x1="894.9" y1="286.62" x2="851.84" y2="255.3"/><line class="cls-7" x1="853.24" y1="253.74" x2="894.12" y2="223.86"/><line class="cls-7" x1="894.9" y1="254.52" x2="852.19" y2="222.81"/><line class="cls-7" x1="853.24" y1="220.85" x2="894.12" y2="190.98"/><line class="cls-7" x1="851.84" y1="190.26" x2="895.08" y2="190.26"/><line class="cls-7" x1="851.84" y1="223.14" x2="895.08" y2="223.14"/><line class="cls-7" x1="851.84" y1="255.24" x2="895.08" y2="255.24"/><line class="cls-7" x1="895.38" y1="287.4" x2="895.38" y2="190.56"/><line class="cls-7" x1="851.54" y1="287.4" x2="851.54" y2="190.56"/><line class="cls-7" x1="895.29" y1="222.03" x2="852.63" y2="190.32"/><line class="cls-6" x1="905.86" y1="401.7" x2="905.86" y2="792.35"/><line class="cls-6" x1="840.88" y1="401.7" x2="840.88" y2="792.35"/><path d="M829.53,305.8v98.64h87.68V305.8Zm9.4,18.78h68.89v46.19H838.93Z"/><rect x="838.93" y="286.22" width="68.89" height="10.18" transform="translate(1746.74 582.63) rotate(-180)"/><line class="cls-6" x1="894.12" y1="191.11" x2="1165.77" y2="298.36"/><line class="cls-6" x1="671" y1="305.4" x2="851.06" y2="191.11"/><rect x="674.13" y="313.23" width="96.29" height="96.29" transform="translate(1444.56 722.76) rotate(-180)"/><path d="M1182.61,437.32c-.79,7.94-6.56,18.58-7,19.57-.78,1.57-1.57,3.13-3.91,3.13h-6.27c-1.56,0-5.48-5.48-7-9.39s-3.92-9.4-3.13-14.88,3.13-13.31,11.74-13.31c6.26,0,9.39,2.23,11,3.86a17.77,17.77,0,0,1,3.91,6.32A10.58,10.58,0,0,1,1182.61,437.32Z"/><path class="cls-8" d="M1168.51,460v4.33s-13.7-.81-13.7,12.5c0,3.92,1.57,7,7,8.61,4.76,1.37,12.53-1.54,12.53-5.48"/></svg>