<svg id="Layer_1" data-name="Layer 1" xmlns="http://www.w3.org/2000/svg" viewBox="0 0 1920 1080"><defs><style>.cls-1{fill:#b3b3b3;}.cls-2,.cls-3{stroke:#fff;stroke-miterlimit:10;stroke-width:5px;}.cls-3{stroke-linecap:round;}</style></defs><title>consultation</title><rect class="cls-1" width="1920" height="1080"/><path class="cls-2" d="M854,678c-5.81-.47-10-6-9-17s8-17,17-22,41.36-22.82,45-25c5-3,6-8,0-4s-21,14-29,18-23,14-33,19c-10.2,5.1-23,7-29,0s-9-15,0-27,106.46-84.56,155-103c50-19,25-13,68-25,40.47-11.29,54.77-15.67,67-12,10,3,49,111,49,111s-17,21-21,24-145,82.32-164.5,95.5c-37,25-80.08,14.87-45.5-7.5,34-22,38-24,37-26s-8.38,6-23,12c-13.4,5.52-42.08,19-56,15-6.79-2-13-11-4-21s48-30,50-33,2.1-3.84-6,1C906.3,660.39,872.23,679.48,854,678Z"/><path class="cls-2" d="M820,615c-3.47,4.12-35-25-35-25,5-13,63-113,63-113,14,4,25,7,50,0s57-9,74-7,39,4,45,8,27,26,34,38,20,23,18,35-6,15-15,13-23-7-30-13a343.92,343.92,0,0,1-27-27c-6-7-6.35-9.93-17-7C934.78,529.45,850.25,579.15,820,615Z"/><polygon class="cls-2" points="1167 421 1084 463 1161 605 1226 576 1167 421"/><polygon class="cls-2" points="772 421 855 463 778 605 713 576 772 421"/><rect class="cls-3" x="986.68" y="690.5" width="63.64" height="38" rx="19" transform="translate(800 -512.38) rotate(45)"/><rect class="cls-3" x="1014.63" y="661.75" width="74.25" height="38" rx="19" transform="translate(789.41 -544.31) rotate(45)"/><rect class="cls-3" x="1044.16" y="636" width="87.68" height="38" rx="19" transform="translate(781.82 -577.49) rotate(45)"/><rect class="cls-3" x="1097.56" y="607.25" width="47.38" height="38" rx="19" transform="translate(771.23 -609.42) rotate(45)"/></svg>