<svg xmlns="http://www.w3.org/2000/svg" width="185.894" height="211.49" viewBox="0 0 185.894 211.49"><g transform="translate(-711.371 -125.906)"><path d="M843.131,427.36l-83.3,18.209a18.612,18.612,0,0,1-22.158-14.208l-27.872-127.5a18.612,18.612,0,0,1,16.745-22.531l73.143-5.668A18.612,18.612,0,0,1,818.8,288.376l38.024,114.957A18.612,18.612,0,0,1,843.131,427.36Z" transform="translate(2 -108.607)" fill="#05436f"/><path d="M861.131,407.36l-83.3,18.209a18.612,18.612,0,0,1-22.158-14.208l-27.872-127.5a18.612,18.612,0,0,1,16.745-22.531l73.143-5.668A18.612,18.612,0,0,1,836.8,268.376l38.024,114.957A18.612,18.612,0,0,1,861.131,407.36Z" transform="translate(2.399 -108.603)" fill="#0b72b9"/><path d="M861.131,409.37l-83.3,16.2a18.612,18.612,0,0,1-22.158-14.208l-27.872-127.5a18.612,18.612,0,0,1,16.745-22.531l73.143-5.668A18.612,18.612,0,0,1,836.8,268.376l38.024,114.957C878.3,393.819,871.921,407.011,861.131,409.37Z" transform="translate(21.489 -129.703)" fill="#7fc4fd"/></g></svg>