<?xml version="1.0" encoding="utf-8"?>
<!-- Generator: Adobe Illustrator 23.0.4, SVG Export Plug-In . SVG Version: 6.00 Build 0)  -->
<svg version="1.1" id="Layer_1" xmlns="http://www.w3.org/2000/svg" xmlns:xlink="http://www.w3.org/1999/xlink" x="0px" y="0px"
	 viewBox="0 0 512 512" style="enable-background:new 0 0 512 512;" xml:space="preserve">
<style type="text/css">
	.st0{fill:#0B72B9;}
</style>
<circle class="st0" cx="144" cy="368" r="42"/>
<path class="st0" d="M367.5,272h-223C91.2,272,48,315.2,48,368.5S91.2,464,144.5,464h223c53.3,0,96.5-42.2,96.5-95.5
	S420.8,272,367.5,272z M144,432c-35.3,0-64-28.7-64-64s28.7-64,64-64s64,28.7,64,64S179.3,432,144,432z"/>
<circle class="st0" cx="368" cy="144" r="42"/>
<path class="st0" d="M144.5,240h223c53.3,0,96.5-42.2,96.5-95.5S420.8,48,367.5,48h-223C91.2,48,48,91.2,48,144.5
	S91.2,240,144.5,240z M368,80c35.3,0,64,28.7,64,64s-28.7,64-64,64s-64-28.7-64-64S332.7,80,368,80z"/>
</svg>
