<svg id="Layer_1" data-name="Layer 1" xmlns="http://www.w3.org/2000/svg" width="750" height="1334" viewBox="0 0 750 1334"><defs><style>.cls-1{fill:#a67c52;}.cls-2{fill:#29abe2;}.cls-3{fill:#d08f33;}</style></defs><title>design_mobile</title><rect class="cls-1" width="750" height="1334"/><path class="cls-2" d="M190.27,935.54218c6.564-1.24311,13.52057-1.9831,20.66467-2.73627,3.57367-.35407,7.19824-.65711,10.85016-.93353l11.00043-.9115c14.70965-1.15717,29.4447-2.65876,42.53631-5.71363,15.66352-3.96533,32.03864-7.22662,48.39917-10.52716,8.18677-1.59192,16.37287-3.18371,24.47718-4.75964q6.07058-1.21344,12.06964-2.4126,2.99817-.59215,5.972-1.17956,2.966-.62284,5.90393-1.23981c.37165,1.777-1.69763,4.994,1.10785,5.33441,11.04267.4657,11.83258,4.01318,12.59473,7.564.38275,1.77557-7.92493,1.66223-4.90686,2.88507a117.68158,117.68158,0,0,0-12.43189,3.2904c-3.22705,1.09381-4.42559,2.02191-.25769,2.1308,3.02314,1.2677,13.25055-2.767,16.47113-.64972,3.23591,2.10614-1.52185,5.887,1.70935,7.99024,2.68012-.53577,8.00586-1.73847,10.6695-2.33631,3.0589,1.17926-1.48816,5.91943,1.1828,5.32129a63.73707,63.73707,0,0,0,13.95349-1.99756c5.0022-1.19171,10.28345-2.68365,15.61444-3.95416.41431,1.76013,3.548,2.88769-1.58838,5.04663-46.55652,12.2757-94.41125,22.71161-142.8222,29.9809-48.39258,7.28558-97.33191,11.42224-145.59961,11.38311-11.04462-.56634-2.84528-4.452,5.28155-7.4292-2.71142.99347-2.79229-1.731-5.50775-.73748-.07092-2.74,5.26673-7.39313,16.11139-8.71167-2.72113.13745-5.44214.20092-8.16809.28936-2.75238-.82257-.08972-2.7221-.15289-4.53643,2.7171-.084,5.42859-.16779,5.394-1.07734-.03418-.90551-.1026-2.72161-.13678-3.62817-2.70209.08344-8.11511.25067-10.8172.33417,2.70209-.0835,5.40747-.16712,5.37659-1.07373-.03064-.90772-.0918-2.72309-.12244-3.63275,5.35761-1.02668,13.51007.36743,18.865-.766l-.12964-2.71851c-5.42267-.68481-13.44134.64349-18.827.7644,2.66247-.99182,2.62829-1.89837,2.56384-3.7146a78.036,78.036,0,0,1,12.077-.27331c4.03119.032,8.06158-.09308,12.00274-1.71423-2.67523.17034-5.35559.2843-8.0329.40094a10.50664,10.50664,0,0,1,5.20868-2.31141,38.27523,38.27523,0,0,1,7.04755-.60809C180.8963,935.89587,186.293,936.31494,190.27,935.54218Z"/><path d="M407.86252,867.09047a26.45563,26.45563,0,0,0-26.73572,26.2063c0,11.45816-10.32369,17.47087-17.849,17.47087A46.35758,46.35758,0,0,0,398.938,928.27631c19.702,0,35.66023-15.65571,35.66023-34.94173a26.46313,26.46313,0,0,0-26.73571-26.24411Z"/><path class="cls-3" d="M530.083,785.21942,518.32226,773.61a9.23025,9.23025,0,0,0-12.74391-.11344l-79.90462,78.31636,24.50459,24.013,79.86681-78.27856A8.55309,8.55309,0,0,0,530.083,785.21942Z"/></svg>