<svg id="Layer_1" data-name="Layer 1" xmlns="http://www.w3.org/2000/svg" width="1920" height="1080" viewBox="0 0 1920 1080"><defs><style>.cls-1{fill:#a67c52;}.cls-2{fill:#29abe2;}.cls-3{fill:#d08f33;}</style></defs><title>design</title><rect class="cls-1" width="1920" height="1080"/><path class="cls-2" d="M326.80887,786.58813c8.7579-1.19177,17.766-2.239,26.96484-3.17706,9.20041-.90124,18.58368-1.82043,28.09094-2.75171,9.51011-.88507,19.1507-1.69812,28.86045-2.47369,9.702-.86682,19.46863-1.73938,29.24051-2.61243,39.0971-3.38067,78.22357-7.7113,113.25479-14.27185,10.4975-2.04138,21.0841-4.21094,31.77362-6.20831q8.01719-1.48865,16.09216-2.9881c5.3888-.94769,10.76923-2.06464,16.17975-3.06671q16.221-3.07764,32.598-5.99481,16.33923-3.05053,32.733-6.11139,8.19516-1.4881,16.38684-2.97565,8.17566-1.56372,16.33771-3.12488l32.54706-6.1214q16.17462-3.20334,32.15863-6.36883,7.98642-1.574,15.90814-3.13526,7.90027-1.65819,15.72577-3.30065c.5575,2.6654-5.58514,8.12835,1.6618,8.00158,28.71534-1.85034,29.90015,3.47089,31.04334,8.79712.57422,2.66333-21,4.40473-13.43756,5.60236-10.50861,2.18872-24.44348,5.51007-33.084,7.94873-8.64971,2.386-11.97113,4.07623-1.14532,3.34466,7.58331,1.31348,35.06854-7.32318,42.93695-4.77282,7.89581,2.521-5.31811,9.46722,2.564,11.98529,7.06848-1.41278,21.11419-4.5849,28.139-6.16169,7.61206,1.09168-5.262,9.55768,1.7743,7.98194,5.42736-.5174,11.24273-1.38361,17.35162-2.49024,6.10663-1.11663,12.52045-2.41412,19.09363-4.02075,13.16467-3.13641,27.12457-6.81286,41.15661-10.15661.32471,1.323,2.395,2.21728,2.683,3.37378.29174,1.15887-1.19532,2.58032-8.07923,4.91418-122.61621,31.2713-248.6167,57.17395-375.84967,75.37439C441.267,839.87164,312.857,850.47052,186.15277,851.90326c-28.9767-.46607-7.36783-6.58222,14.12894-11.33557-7.167,1.58594-7.28833-2.50067-14.4682-.91443-.05655-2.04273,3.4745-4.877,10.59944-7.48181a90.60624,90.60624,0,0,1,13.38685-3.60767c5.36293-1.06817,11.62972-1.89691,18.799-2.5954-7.18274.3628-14.365.53022-21.56052.76368-7.23188-1.13794-.13453-4.0832-.22926-6.80463,7.18237-.222,14.34946-.44348,14.29752-1.8078-.0512-1.35834-.15389-4.08246-.20514-5.44232l-28.63561.88476c7.153-.221,14.31436-.44232,14.268-1.8023-.04587-1.36152-.13762-4.0846-.18359-5.4491a115.59729,115.59729,0,0,1,11.82246-.74683c4.24454-.07843,8.71289-.15551,13.18471-.169,8.94194-.057,17.89016-.115,25.00561-1.11481l-.19444-4.07776c-14.34152-.76916-35.6687,1.70709-49.95581,2.02832,7.10049-1.5838,7.04924-2.9436,6.95254-5.668,2.66584-.25805,5.33532-.40832,8.00553-.5412,2.66974-.1455,5.34173-.23242,8.01523-.28747,5.3469-.11011,10.7-.09253,16.05035-.16s10.69748-.22009,16.029-.67028c2.66559-.22821,5.32783-.51758,7.98288-.93207,2.6539-.43689,5.30182-.97467,7.94156-1.64-7.10878.45221-14.23142.75538-21.34584,1.06537,3.4776-1.86682,8.32275-2.99377,13.96472-3.74841a179.94521,179.94521,0,0,1,18.753-1.38733c6.67316-.21686,13.58014-.27655,20.14825-.44446,3.28345-.0921,6.48429-.17669,9.524-.38434C321.27341,787.21979,324.15582,786.9491,326.80887,786.58813Z" transform="translate(-0.5 -0.5)"/><path d="M900.9,586.2c-39.1,0-70.7,31-70.7,69.3,0,30.3-27.3,46.2-47.2,46.2C804.7,730,841.7,748,877.3,748c52.1,0,94.3-41.4,94.3-92.4,0-38.4-31.6-69.4-70.7-69.4Z" transform="translate(-0.5 -0.5)"/><path class="cls-3" d="M1224.1,369.7,1193,339c-9.2-9-24.5-9.3-33.7-.3L948,545.8l64.8,63.5,211.2-207A22.61782,22.61782,0,0,0,1224.1,369.7Z" transform="translate(-0.5 -0.5)"/></svg>