<svg xmlns="http://www.w3.org/2000/svg" width="19.365" height="13.407" viewBox="0 0 19.365 13.407"><path d="M67.207,146.713,62.2,151.7a.087.087,0,0,0,0,.127l3.505,3.65a.581.581,0,0,1,0,.837.617.617,0,0,1-.857,0l-3.491-3.636a.1.1,0,0,0-.135,0l-.852.847a3.791,3.791,0,0,1-2.672,1.1,3.866,3.866,0,0,1-2.728-1.133l-.819-.815a.1.1,0,0,0-.135,0l-3.491,3.636a.617.617,0,0,1-.857,0,.581.581,0,0,1,0-.837l3.505-3.65a.1.1,0,0,0,0-.127l-5.014-4.988a.092.092,0,0,0-.158.064v9.981a1.478,1.478,0,0,0,1.49,1.456H65.876a1.478,1.478,0,0,0,1.49-1.456v-9.981A.093.093,0,0,0,67.207,146.713Z" transform="translate(-48 -144.807)" fill="#0b72b9"/><path d="M69.128,121.912a2.337,2.337,0,0,0,1.8-.888l7.231-8.645a1.322,1.322,0,0,0-.912-.379H61.012a1.314,1.314,0,0,0-.912.379l7.231,8.645A2.339,2.339,0,0,0,69.128,121.912Z" transform="translate(-59.445 -112)" fill="#0b72b9"/></svg>