<?xml version="1.0" encoding="utf-8"?>
<!-- Generator: Adobe Illustrator 23.0.4, SVG Export Plug-In . SVG Version: 6.00 Build 0)  -->
<svg version="1.1" id="Layer_1" xmlns="http://www.w3.org/2000/svg" xmlns:xlink="http://www.w3.org/1999/xlink" x="0px" y="0px"
	 viewBox="0 0 512 512" style="enable-background:new 0 0 512 512;" xml:space="preserve">
<style type="text/css">
	.st0{fill:#0B72B9;}
</style>
<path class="st0" d="M235.4,172.2c0-11.4,9.3-19.9,20.5-19.9c11.4,0,20.7,8.5,20.7,19.9s-9.3,20-20.7,20
	C244.7,192.2,235.4,183.6,235.4,172.2L235.4,172.2z M236.8,207.9H275V352h-38.2L236.8,207.9L236.8,207.9z"/>
<path class="st0" d="M256,76c48.1,0,93.3,18.7,127.3,52.7S436,207.9,436,256s-18.7,93.3-52.7,127.3S304.1,436,256,436
	s-93.3-18.7-127.3-52.7S76,304.1,76,256s18.7-93.3,52.7-127.3S207.9,76,256,76 M256,48C141.1,48,48,141.1,48,256s93.1,208,208,208
	s208-93.1,208-208S370.9,48,256,48z"/>
</svg>
