<svg xmlns="http://www.w3.org/2000/svg" width="750" height="1334" viewBox="0 0 750 1334"><defs><style>.cls-1{fill:#29abe2;}.cls-2{fill:#fff;}.cls-3{fill:#f2f2f2;}.cls-4{fill:none;stroke:#ccc;stroke-miterlimit:10;}.cls-5{fill:#e6e6e6;}.cls-6{fill:#ccc;}</style></defs><title>iterate_medium</title><g id="Background_Color" data-name="Background Color"><rect class="cls-1" width="750" height="1334"/></g><g id="Dominos"><polygon class="cls-2" points="576.285 984.253 577.754 765.308 525.344 751.103 525.344 951.436 576.285 984.253"/><polygon class="cls-3" points="614 981.314 614 762.859 577.754 765.308 576.285 984.253 614 981.314"/><line class="cls-4" x1="540.53809" y1="867.35092" x2="575.57141" y2="874.8962"/><path d="M541.61377,928.52215c-.174-3.93168-1.65364-7.89462-3.27514-7.82287s-2.77081,4.151-2.59684,8.08269,1.32506,8.96714,2.94657,8.8954S541.78774,932.45383,541.61377,928.52215Z"/><polygon class="cls-5" points="614 762.859 560.611 747.674 525.344 751.103 577.754 765.308 614 762.859"/><polygon class="cls-2" points="492.527 981.804 540.528 755.022 492.527 747.674 449.423 957.314 492.527 981.804"/><polygon class="cls-3" points="530.732 985.723 576.249 765.381 540.528 755.022 492.527 981.804 530.732 985.723"/><line class="cls-4" x1="478.07742" y1="866.94337" x2="513.34382" y2="873.31091"/><path d="M499.83305,891.29835c.72031-3.86905.17587-8.064-1.41981-8.36111s-3.63832,3.41626-4.35864,7.28531-.73864,9.03437.857,9.33144S499.11273,895.16739,499.83305,891.29835Z"/><path d="M466.51869,933.6855c.42494-3.91252-.43594-8.05416-2.04955-8.22941s-3.36888,3.68224-3.79382,7.59476-.05165,9.06437,1.562,9.23962S466.09375,937.598,466.51869,933.6855Z"/><path d="M522.85417,784.02972c.72031-3.86905-.11292-8.1178-2.06832-8.48185s-4.29248,3.29448-5.0128,7.16353-.5331,9.07263,1.42229,9.43668S522.13385,787.89876,522.85417,784.02972Z"/><path d="M510.11908,843.29686c.72031-3.86905.17587-8.064-1.4198-8.36111s-3.63833,3.41627-4.35865,7.28531-.73864,9.03437.857,9.33145S509.39876,847.16591,510.11908,843.29686Z"/><path d="M498.85342,776.68255c.72032-3.86905-.11292-8.1178-2.06831-8.48184s-4.29249,3.29447-5.0128,7.16352-.53311,9.07264,1.42229,9.43668S498.13311,780.5516,498.85342,776.68255Z"/><path d="M486.11833,835.94969c.72032-3.86905.17588-8.064-1.4198-8.3611s-3.63832,3.41626-4.35864,7.28531-.73864,9.03437.857,9.33144S485.398,839.81874,486.11833,835.94969Z"/><polygon class="cls-2" points="378.891 975.926 498.894 774.614 459.22 760.409 342.155 951.436 378.891 975.926"/><polygon class="cls-3" points="416.116 996.498 536.12 795.676 498.894 774.614 378.891 975.926 416.116 996.498"/><path d="M424.99571,845.85512c2.11891-3.31641,3.18766-7.40934,1.8199-8.28323s-4.65407,1.80221-6.773,5.11862-4.0733,8.09775-2.70554,8.97164S422.87679,849.17153,424.99571,845.85512Z"/><path d="M391.40765,920.059c2.11891-3.31642,3.18766-7.40935,1.8199-8.28323s-4.65406,1.8022-6.773,5.11861-4.07329,8.09776-2.70554,8.97164S389.28873,923.37537,391.40765,920.059Z"/><path d="M476.09724,799.35286c2.11891-3.31641,3.18766-7.40935,1.8199-8.28323s-4.65406,1.8022-6.773,5.11861-4.07329,8.09776-2.70554,8.97165S473.97832,802.66927,476.09724,799.35286Z"/><path d="M366.70586,934.81425c2.11892-3.31641,3.18766-7.40934,1.81991-8.28323s-4.65407,1.80221-6.773,5.11862-4.07329,8.09776-2.70554,8.97164S364.58694,938.13066,366.70586,934.81425Z"/><path d="M387.32368,945.69569c2.11892-3.31641,3.18766-7.40934,1.81991-8.28323s-4.65407,1.80221-6.773,5.11862-4.07329,8.09776-2.70554,8.97164S385.20476,949.0121,387.32368,945.69569Z"/><path d="M416.82777,897.12859c2.11892-3.31641,3.18766-7.40934,1.81991-8.28323s-4.65407,1.80221-6.773,5.11862-4.07329,8.09775-2.70554,8.97164S414.70885,900.445,416.82777,897.12859Z"/><path d="M394.32751,895.444c2.11892-3.31641,3.18766-7.40934,1.81991-8.28323s-4.65407,1.80221-6.773,5.11862-4.0733,8.09776-2.70554,8.97164S392.2086,898.7604,394.32751,895.444Z"/><line class="cls-4" x1="395.78951" y1="872.43002" x2="436.27595" y2="877.70042"/><polygon class="cls-2" points="267.704 968.089 439.137 807.431 397.503 793.227 231.933 946.521 267.704 968.089"/><polygon class="cls-3" points="294.153 999.437 466.322 840.004 438.725 807.298 267.704 968.089 294.153 999.437"/><polygon class="cls-6" points="294.153 999.437 267.704 968.089 231.947 946.538 260.356 972.987 294.153 999.437"/><path d="M348.05944,855.47564c2.95133-2.60347,5.10734-6.243,4.03361-7.46015s-4.97059.44886-7.92191,3.05234-6.14847,6.66046-5.07475,7.87764S345.10812,858.07912,348.05944,855.47564Z"/><path d="M295.31055,917.53949c2.95133-2.60347,5.10734-6.243,4.03361-7.46015s-4.97059.44886-7.92191,3.05234-6.14847,6.66046-5.07475,7.87764S292.35923,920.143,295.31055,917.53949Z"/><path d="M376.98858,841.65029c2.95132-2.60347,5.10734-6.243,4.03361-7.46015s-4.97059.44886-7.92191,3.05234-6.14847,6.66046-5.07475,7.87764S374.03726,844.25377,376.98858,841.65029Z"/><path d="M410.00341,824.8689c2.95132-2.60348,5.10733-6.243,4.0336-7.46015s-4.97059.44886-7.92191,3.05234-6.14847,6.66046-5.07475,7.87764S407.05208,827.47238,410.00341,824.8689Z"/><line class="cls-4" x1="312.65718" y1="872.96584" x2="350.12027" y2="889.19686"/><polygon class="cls-2" points="170.231 971.518 358.808 832.412 319.134 813.309 136.434 946.048 170.231 971.518"/><polygon class="cls-3" points="191.783 1005.805 382.074 867.923 358.564 832.167 169.986 971.273 191.783 1005.805"/><polygon class="cls-6" points="191.783 1005.805 170.231 971.518 136.434 946.048 159.21 980.58 191.783 1005.805"/><path d="M262.81119,869.21755c3.24-2.23393,5.81368-5.59112,4.89236-6.92739s-4.98869-.14558-8.22875,2.08835-6.89708,5.8818-5.97577,7.21806S259.57113,871.45147,262.81119,869.21755Z"/><path d="M203.05423,924.5662c3.24006-2.23393,5.81369-5.59112,4.89237-6.92738s-4.9887-.14559-8.22875,2.08834-6.89709,5.8818-5.97577,7.21807S199.81418,926.80013,203.05423,924.5662Z"/><path d="M281.91382,879.50358c3.24006-2.23393,5.81368-5.59112,4.89237-6.92739s-4.9887-.14558-8.22875,2.08835-6.89709,5.8818-5.97577,7.21807S278.67377,881.73751,281.91382,879.50358Z"/><path d="M327.95606,846.19642c3.24006-2.23392,5.81369-5.59112,4.89237-6.92738s-4.9887-.14558-8.22875,2.08835-6.89709,5.8818-5.97577,7.21806S324.716,848.43035,327.95606,846.19642Z"/><path d="M307.87381,835.91039c3.24-2.23393,5.81368-5.59112,4.89237-6.92738s-4.9887-.14558-8.22875,2.08834-6.89709,5.8818-5.97578,7.21807S304.63376,838.14432,307.87381,835.91039Z"/><line class="cls-4" x1="225.5798" y1="882.37242" x2="260.8462" y2="902.94448"/></g></svg>