<svg id="Layer_1" data-name="Layer 1" xmlns="http://www.w3.org/2000/svg" width="749" height="1334" viewBox="0 0 749 1334"><defs><style>.cls-1{fill:#c1272d;}.cls-2{fill:#fff;}.cls-3{fill:#434444;}.cls-4{fill:#333;}.cls-5,.cls-6{fill:#1a1a1a;}.cls-5{opacity:0.4;}.cls-7{fill:#4d5458;}.cls-8{fill:#ccc;}</style></defs><title>launch_mobile</title><rect class="cls-1" width="749" height="1334"/><path class="cls-2" d="M361.7457,829.85556v40.29292c0,6.63648.474,72.52726.474,77.26761V1028.95c0,1.89614-.474,76.31954-.474,78.68971s-.474,36.02662-.474,39.34486.34845,17.23946.94807,17.53927c1.89613.94807,19.43541,1.4221,22.75365.474s3.79227-9.48068,3.31824-20.38348c-.44551-7.12817-1.42211-57.83219-.94807-114.24228.53184-63.28891,0-130.4627,0-136.99594,0-6.267.5322-30.80535.474-58.78027-.05622-27.04157-.707-57.62333-.474-59.2543.474-3.31824,5.68841-4.74034,5.68841-11.37682,0-9.48069.474-39.81889,0-48.82555s-4.74034-27.494-14.221-34.13047-21.32434,15.91579-21.80558,29.39013c-.474,13.273-.94807,41.715-.94807,47.40344,0,14.221,3.40309,12.4946,5.21438,16.11717C362.21974,775.81564,361.7457,829.85556,361.7457,829.85556Z" transform="translate(0)"/><path class="cls-2" d="M331.88153,893.37617v261.667c0,6.16245,7.11052,7.11052,12.3249,7.11052s13.747,1.4221,13.747-21.80559-.474-131.78156-.474-140.78821V893.37617c0-2.84421,1.89614-20.38348-1.4221-28.44207s-8.05859-14.221-11.37683-14.221-9.00665,6.16245-10.90279,12.79893a54.39555,54.39555,0,0,0-2.37017,16.5912C331.4075,886.26565,331.88153,893.37617,331.88153,893.37617Z" transform="translate(0)"/><path class="cls-2" d="M392.0839,892.90213v261.667c0,6.16244,7.11052,7.11051,12.3249,7.11051s13.747,1.42211,13.747-21.80558-.474-131.78156-.474-140.78821V892.90213c0-2.84421,1.89614-20.38348-1.4221-28.44206s-8.05859-14.221-11.37683-14.221S395.87618,856.40148,393.98,863.038a54.39557,54.39557,0,0,0-2.37017,16.59121C391.60987,885.79162,392.0839,892.90213,392.0839,892.90213Z" transform="translate(0)"/><path class="cls-3" d="M342.78432,879.62917h4.26631s.474,4.74034,0,4.74034-1.4221,2.37017-1.4221,4.26631-.474,1.4221-.474,2.84421v27.968c0,1.4221.474,2.37017.474,4.74034v12.3249c0,.94806-.474.94806-.474,3.31824v193.406c0,1.89614.165,20.73426.165,20.73426l1.25708,1.54536-1.89614.94806-2.53494-1.037s2.06091.089,2.06091-1.33313v-27.494c0-1.89614-.474-44.0852-.474-46.45537V893.37617c0-2.37018.474-6.63649,0-7.11052s-.94807-1.89614-.94807-4.26631Z" transform="translate(0)"/><path class="cls-3" d="M372.64849,878.6811h4.26631s.474,4.74034,0,4.74034-1.4221,2.37018-1.4221,4.26631-.474,1.42211-.474,2.84421V918.5c0,1.4221.474,2.37017.474,4.74034v12.3249c0,.94807-.474.94807-.474,3.31824v193.406c0,1.89614.165,20.73426.165,20.73426l1.25708,1.54536-1.89614.94807-2.53494-1.03705s2.0609.089,2.0609-1.33313v-27.494c0-1.89614-.474-44.0852-.474-46.45537V892.4281c0-2.37018.474-6.63648,0-7.11052s-.94807-1.89614-.94807-4.26631Z" transform="translate(0)"/><path class="cls-3" d="M402.51266,879.62917H406.779v7.11051c0,1.89614,0,2.84421,1.89614,2.84421s1.89613,1.4221,1.89613,3.31824v6.16245s.474,1.89614-1.89613,1.89614-1.89614,1.4221-1.89614,3.31824v5.68841c0,2.84421-.94807,1.4221-.94807,7.58455v109.976c0,1.4221.474,17.06524.474,18.96137s-.94807,3.31825,2.84421,3.31825,3.31824,0,3.31824,7.11051-.474,4.74035-3.31824,5.21438-1.89614,0-1.89614,4.26631v8.53262c0,1.89614-.94807,0-.94807,5.68841v73.47533l-.94807,1.89614-1.4221-.94807s-.94807-23.22768-.94807-27.02v-8.05858c0-2.37018.474-2.84421-.94807-4.26631s-.94806-2.84421-.94806-4.26631,0-3.31824,1.4221-3.79228.474-6.63648.474-9.00665v-6.16245c0-1.4221,0-1.89614-1.4221-3.31824s-.94807-6.16245.474-6.63648.94807-1.89614.94807-5.68841V908.07123c0-1.89614-.474-14.221-.474-15.64313Z" transform="translate(0)"/><path class="cls-4" d="M346.5766,1144.61439c0,.474-.62675,6.13069-.94807,8.05859-.474,2.84421-.94807,1.89614-1.89614-3.31824-.78683-4.32756-1.7786-11.71676-2.68542-19.29862-.05542-.46333,1.318-1.09478,1.26332-1.5589-.06017-.51035-1.54843-.85338-1.60758-1.363-.56776-4.89171-1.08471-9.71044-1.47306-13.68631-.05267-.53924,1.70628-1.03554,1.65854-1.54186-.0515-.54609-1.71407-1.15824-1.95458-1.60249-.41559-.76768-.81244-5.0558-.88963-5.98206-.474-5.68841-.474-11.37682-.94807-12.32489s-1.4221-3.31824-2.8442,0a35.87356,35.87356,0,0,0-1.89614,4.74034c0,.474-.474,3.31824-.474,4.26631v12.79893c0,1.4221-.474,11.37682-.474,14.221s-.474,9.48069-.474,11.37683-.474,9.00665-.474,9.95472-.474,6.16245-.474,6.63648c0,3.31824.94807,3.79227-.474,5.68841s.474,2.37017,1.42211,2.37017,1.4221,1.42211,1.4221,1.89614h23.70172c.94807,0,3.31824,0,3.31824-5.68841s-.474-18.01331-.474-21.33155-1.4221-31.28627-1.4221-35.07854,0-7.11052-1.4221-9.95473a16.16778,16.16778,0,0,1-.766-1.75636c-.26-.71962-.2303-1.23-.65614-1.56188a1.38546,1.38546,0,0,0-.96809-.27058c-1.3813.21168-1.35254,3.50321-1.40208,4.06286-.56193,6.34548-1.03794,11.39723-1.4221,15.64313-.05248.58-2.32083,1.35256-2.37017,1.89614-.04355.47974,1.93727.97022,1.89614,1.4221-.80335,8.82563-1.35734,12.89412-1.42211,13.747-.03342.44017-1.846.81532-1.89614,1.4221-.0368.44528,1.46776.90636,1.42211,1.42211" transform="translate(0)"/><path class="cls-5" d="M332.8296,1134.65967c-1.4221.474-1.4221,5.68841-1.89613,11.85086s-.474,12.213-.474,13.273c0,.94807-1.725,2.71242-1.4221,3.31825.474.94806,2.30367.88157,2.8442,1.4221.474.474.2876,1.4221.474,1.4221h21.80558c2.37017,0,5.21438.94807,5.21438-6.63648a168.53727,168.53727,0,0,0-1.89614-22.27962c-.474-1.89613-2.84421-.94806-3.31824,0s-3.79227,12.3249-5.21438,15.64314-1.4221,4.26631-2.37017,5.68841-1.89614,4.26631-2.84421,1.4221-7.11051-18.96137-8.05858-20.85751S334.202,1134.20222,332.8296,1134.65967Z" transform="translate(0)"/><path class="cls-6" d="M335.19977,1149.82877c-1.4221,0-3.31824,0-3.31824,2.37017,0,0-.474,3.79228-.474,5.21438s-.474,1.89614,2.37017,1.89614h6.63648a.97378.97378,0,0,0,.94807-1.4221,62.19823,62.19823,0,0,0-2.37017-6.16245c-.474-.94807,0-1.89614-1.89614-1.89614Z" transform="translate(0)"/><path class="cls-6" d="M354.7023,1149.82877c1.4221,0,3.31824,0,3.31824,2.37017,0,0,.474,3.79228.474,5.21438s.474,1.89614-2.37017,1.89614h-6.63648a.97378.97378,0,0,1-.94807-1.4221,62.20319,62.20319,0,0,1,2.37017-6.16245c.474-.94807,0-1.89614,1.89614-1.89614Z" transform="translate(0)"/><path class="cls-4" d="M403.4234,1144.61439c0,.474.62675,6.13069.94807,8.05859.474,2.84421.94807,1.89614,1.89614-3.31824.78683-4.32756,1.7786-11.71676,2.68542-19.29862.05542-.46333-1.318-1.09478-1.26332-1.5589.06017-.51035,1.54843-.85338,1.60758-1.363.56776-4.89171,1.08471-9.71044,1.47306-13.68631.05267-.53924-1.70628-1.03554-1.65854-1.54186.0515-.54609,1.71407-1.15824,1.95458-1.60249.41559-.76768.81244-5.0558.88963-5.98206.474-5.68841.474-11.37682.94807-12.32489s1.4221-3.31824,2.8442,0a35.87356,35.87356,0,0,1,1.89614,4.74034c0,.474.474,3.31824.474,4.26631v12.79893c0,1.4221.474,11.37682.474,14.221s.474,9.48069.474,11.37683.474,9.00665.474,9.95472.474,6.16245.474,6.63648c0,3.31824-.94807,3.79227.474,5.68841s-.474,2.37017-1.42211,2.37017-1.4221,1.42211-1.4221,1.89614H393.94271c-.94807,0-3.31824,0-3.31824-5.68841s.474-18.01331.474-21.33155,1.4221-31.28627,1.4221-35.07854,0-7.11052,1.4221-9.95473a16.16778,16.16778,0,0,0,.766-1.75636c.26-.71962.2303-1.23.65614-1.56188a1.38546,1.38546,0,0,1,.96809-.27058c1.3813.21168,1.35254,3.50321,1.40208,4.06286.56193,6.34548,1.03794,11.39723,1.4221,15.64313.05248.58,2.32083,1.35256,2.37017,1.89614.04355.47974-1.93727.97022-1.89614,1.4221.80335,8.82563,1.35734,12.89412,1.42211,13.747.03342.44017,1.846.81532,1.89614,1.4221.0368.44528-1.46776.90636-1.42211,1.42211" transform="translate(0)"/><path class="cls-5" d="M417.1704,1134.65967c1.4221.474,1.4221,5.68841,1.89613,11.85086s.474,12.213.474,13.273c0,.94807,1.725,2.71242,1.4221,3.31825-.474.94806-2.30367.88157-2.8442,1.4221-.474.474-.2876,1.4221-.474,1.4221H395.83885c-2.37017,0-5.21438.94807-5.21438-6.63648a168.53727,168.53727,0,0,1,1.89614-22.27962c.474-1.89613,2.84421-.94806,3.31824,0s3.79227,12.3249,5.21438,15.64314,1.4221,4.26631,2.37017,5.68841,1.89614,4.26631,2.84421,1.4221,7.11051-18.96137,8.05858-20.85751S415.79805,1134.20222,417.1704,1134.65967Z" transform="translate(0)"/><path class="cls-6" d="M414.80023,1149.82877c1.4221,0,3.31824,0,3.31824,2.37017,0,0,.474,3.79228.474,5.21438s.474,1.89614-2.37017,1.89614h-6.63648a.97378.97378,0,0,1-.94807-1.4221,62.19823,62.19823,0,0,1,2.37017-6.16245c.474-.94807,0-1.89614,1.89614-1.89614Z" transform="translate(0)"/><path class="cls-6" d="M395.2977,1149.82877c-1.4221,0-3.31824,0-3.31824,2.37017,0,0-.474,3.79228-.474,5.21438s-.474,1.89614,2.37017,1.89614h6.63648a.97378.97378,0,0,0,.94807-1.4221,62.20319,62.20319,0,0,0-2.37017-6.16245c-.474-.94807,0-1.89614-1.89614-1.89614Z" transform="translate(0)"/><path class="cls-4" d="M376.44077,1144.61439c0,.474-.62676,6.13069-.94807,8.05859-.474,2.84421-.94807,1.89614-1.89614-3.31824-.78683-4.32756-1.7786-11.71676-2.68543-19.29862-.05541-.46333,1.318-1.09478,1.26333-1.5589-.06017-.51035-1.54843-.85338-1.60758-1.363-.56777-4.89171-1.08472-9.71044-1.47306-13.68631-.05267-.53924,1.70628-1.03554,1.65853-1.54186-.05149-.54609-1.71407-1.15824-1.95457-1.60249-.4156-.76768-.81244-5.0558-.88963-5.98206-.474-5.68841-.474-11.37682-.94807-12.32489s-1.4221-3.31824-2.84421,0a35.8745,35.8745,0,0,0-1.89613,4.74034c0,.474-.474,3.31824-.474,4.26631v12.79893c0,1.4221-.474,11.37682-.474,14.221s-.474,9.48069-.474,11.37683-.474,9.00665-.474,9.95472-.474,6.16245-.474,6.63648a23.3802,23.3802,0,0,0,.474,6.16245c.474,2.37017.94807,2.8442.94807,2.8442.474.94807.94807.474.94807.94807h23.70171c.94807,0,3.31825,0,3.31825-5.68841s-.474-18.01331-.474-21.33155-1.4221-31.28627-1.4221-35.07854,0-7.11052-1.42211-9.95473a16.16732,16.16732,0,0,1-.766-1.75636c-.26-.71962-.23031-1.23-.65614-1.56188a1.38548,1.38548,0,0,0-.96809-.27058c-1.38131.21168-1.35255,3.50321-1.40208,4.06286-.56194,6.34548-1.03794,11.39723-1.4221,15.64313-.05248.58-2.32084,1.35256-2.37018,1.89614-.04354.47974,1.93727.97022,1.89614,1.4221-.80334,8.82563-1.35733,12.89412-1.4221,13.747-.03343.44017-1.846.81532-1.89614,1.4221-.03681.44528,1.46776.90636,1.4221,1.42211" transform="translate(0)"/><path class="cls-5" d="M362.69377,1134.65967c-1.4221.474-1.4221,5.68841-1.89614,11.85086s-.474,12.213-.474,13.273a7.82923,7.82923,0,0,0,.474,2.84421c.474.94807.40754,1.35561.94807,1.89614.474.474.28759,1.4221.474,1.4221h21.80558c2.37017,0,5.21438.94807,5.21438-6.63648a168.539,168.539,0,0,0-1.89614-22.27962c-.474-1.89613-2.84421-.94806-3.31824,0s-3.79228,12.3249-5.21438,15.64314-1.4221,4.26631-2.37017,5.68841-1.89614,4.26631-2.84421,1.4221-7.11052-18.96137-8.05858-20.85751S364.06612,1134.20222,362.69377,1134.65967Z" transform="translate(0)"/><path class="cls-6" d="M365.06394,1149.82877c-1.4221,0-3.31824,0-3.31824,2.37017,0,0-.474,3.79228-.474,5.21438s-.474,1.89614,2.37017,1.89614h6.63648a.97378.97378,0,0,0,.94807-1.4221,62.20319,62.20319,0,0,0-2.37017-6.16245c-.474-.94807,0-1.89614-1.89614-1.89614Z" transform="translate(0)"/><path class="cls-6" d="M384.56647,1149.82877c1.4221,0,3.31824,0,3.31824,2.37017,0,0,.474,3.79228.474,5.21438s.474,1.89614-2.37017,1.89614h-6.63648a.97378.97378,0,0,1-.94807-1.4221,62.20071,62.20071,0,0,1,2.37017-6.16245c.474-.94807,0-1.89614,1.89614-1.89614Z" transform="translate(0)"/><path class="cls-4" d="M334.2464,1172.91665c-.20831.53237-.20832,1.08788,1.273,1.08788h4.26631c1.42211,0,1.36383.18264.94807-1.89614a10.39034,10.39034,0,0,0-1.4221-3.79228,5.86692,5.86692,0,0,0-.94807-1.4221,1.1851,1.1851,0,0,0-1.89614,0,16.62211,16.62211,0,0,0-1.4221,2.37017C334.76065,1170.03244,334.2464,1172.91665,334.2464,1172.91665Z" transform="translate(0)"/><rect class="cls-4" x="335.43679" y="1165.94594" width="4.26631" height="0.94807"/><path class="cls-4" d="M341.35692,1172.91665c-.20832.53237-.20832,1.08788,1.273,1.08788h4.26631c1.4221,0,1.36382.18264.94807-1.89614a10.39052,10.39052,0,0,0-1.4221-3.79228,5.86692,5.86692,0,0,0-.94807-1.4221,1.1851,1.1851,0,0,0-1.89614,0,16.62211,16.62211,0,0,0-1.4221,2.37017C341.87116,1170.03244,341.35692,1172.91665,341.35692,1172.91665Z" transform="translate(0)"/><rect class="cls-4" x="342.54731" y="1165.94594" width="4.26631" height="0.94807"/><path class="cls-4" d="M348.46744,1172.91665c-.20832.53237-.20832,1.08788,1.273,1.08788h4.26631c1.4221,0,1.36382.18264.94806-1.89614a10.39015,10.39015,0,0,0-1.4221-3.79228,5.86657,5.86657,0,0,0-.94807-1.4221,1.1851,1.1851,0,0,0-1.89614,0,16.62211,16.62211,0,0,0-1.4221,2.37017C348.98168,1170.03244,348.46744,1172.91665,348.46744,1172.91665Z" transform="translate(0)"/><rect class="cls-4" x="349.65782" y="1165.94594" width="4.26631" height="0.94807"/><path class="cls-7" d="M330.92816,1172.91665c-.20831.53237-.20832,1.08788,1.273,1.08788h4.26631c1.42211,0,1.36383.18264.94807-1.89614a10.39034,10.39034,0,0,0-1.4221-3.79228,5.86692,5.86692,0,0,0-.94807-1.4221,1.1851,1.1851,0,0,0-1.89614,0,16.62211,16.62211,0,0,0-1.4221,2.37017C331.4424,1170.03244,330.92816,1172.91665,330.92816,1172.91665Z" transform="translate(0)"/><rect class="cls-7" x="332.11855" y="1165.94594" width="4.26631" height="0.94807"/><path class="cls-7" d="M338.03868,1172.91665c-.20832.53237-.20832,1.08788,1.273,1.08788H343.578c1.4221,0,1.36382.18264.94807-1.89614a10.39029,10.39029,0,0,0-1.42211-3.79228,5.86675,5.86675,0,0,0-.94806-1.4221,1.1851,1.1851,0,0,0-1.89614,0,16.62286,16.62286,0,0,0-1.42211,2.37017C338.55292,1170.03244,338.03868,1172.91665,338.03868,1172.91665Z" transform="translate(0)"/><rect class="cls-7" x="339.22907" y="1165.94594" width="4.26631" height="0.94807"/><path class="cls-7" d="M345.14919,1172.91665c-.20831.53237-.20831,1.08788,1.27305,1.08788h4.2663c1.42211,0,1.36383.18264.94807-1.89614a10.39034,10.39034,0,0,0-1.4221-3.79228,5.86657,5.86657,0,0,0-.94807-1.4221,1.1851,1.1851,0,0,0-1.89614,0,16.62211,16.62211,0,0,0-1.4221,2.37017C345.66344,1170.03244,345.14919,1172.91665,345.14919,1172.91665Z" transform="translate(0)"/><rect class="cls-7" x="346.33958" y="1165.94594" width="4.26631" height="0.94807"/><path class="cls-7" d="M352.25971,1172.91665c-.20832.53237-.20832,1.08788,1.273,1.08788h4.26631c1.4221,0,1.36383.18264.94807-1.89614a10.39034,10.39034,0,0,0-1.4221-3.79228,5.86692,5.86692,0,0,0-.94807-1.4221,1.1851,1.1851,0,0,0-1.89614,0,16.62211,16.62211,0,0,0-1.4221,2.37017C352.774,1170.03244,352.25971,1172.91665,352.25971,1172.91665Z" transform="translate(0)"/><rect class="cls-7" x="353.4501" y="1165.94594" width="4.26631" height="0.94807"/><path class="cls-4" d="M364.11057,1172.91665c-.20832.53237-.20832,1.08788,1.273,1.08788h4.26631c1.4221,0,1.36382.18264.94807-1.89614a10.39052,10.39052,0,0,0-1.4221-3.79228,5.86692,5.86692,0,0,0-.94807-1.4221,1.1851,1.1851,0,0,0-1.89614,0,16.62211,16.62211,0,0,0-1.4221,2.37017C364.62481,1170.03244,364.11057,1172.91665,364.11057,1172.91665Z" transform="translate(0)"/><rect class="cls-4" x="365.30096" y="1165.94594" width="4.26631" height="0.94807"/><path class="cls-4" d="M371.22109,1172.91665c-.20832.53237-.20832,1.08788,1.273,1.08788h4.26631c1.4221,0,1.36382.18264.94807-1.89614a10.39029,10.39029,0,0,0-1.42211-3.79228,5.86657,5.86657,0,0,0-.94807-1.4221,1.18509,1.18509,0,0,0-1.89613,0,16.6219,16.6219,0,0,0-1.42211,2.37017C371.73533,1170.03244,371.22109,1172.91665,371.22109,1172.91665Z" transform="translate(0)"/><rect class="cls-4" x="372.41147" y="1165.94594" width="4.26631" height="0.94807"/><path class="cls-4" d="M378.3316,1172.91665c-.20831.53237-.20832,1.08788,1.273,1.08788H383.871c1.42211,0,1.36383.18264.94807-1.89614a10.39034,10.39034,0,0,0-1.4221-3.79228,5.86692,5.86692,0,0,0-.94807-1.4221,1.1851,1.1851,0,0,0-1.89614,0,16.62211,16.62211,0,0,0-1.4221,2.37017C378.84584,1170.03244,378.3316,1172.91665,378.3316,1172.91665Z" transform="translate(0)"/><rect class="cls-4" x="379.52199" y="1165.94594" width="4.26631" height="0.94807"/><path class="cls-7" d="M360.79233,1172.91665c-.20832.53237-.20832,1.08788,1.273,1.08788h4.26631c1.4221,0,1.36382.18264.94807-1.89614a10.39052,10.39052,0,0,0-1.4221-3.79228,5.86692,5.86692,0,0,0-.94807-1.4221,1.1851,1.1851,0,0,0-1.89614,0,16.62211,16.62211,0,0,0-1.4221,2.37017C361.30657,1170.03244,360.79233,1172.91665,360.79233,1172.91665Z" transform="translate(0)"/><rect class="cls-7" x="361.98272" y="1165.94594" width="4.26631" height="0.94807"/><path class="cls-7" d="M367.90285,1172.91665c-.20832.53237-.20832,1.08788,1.273,1.08788h4.26631c1.4221,0,1.36382.18264.94806-1.89614a10.39015,10.39015,0,0,0-1.4221-3.79228,5.86657,5.86657,0,0,0-.94807-1.4221,1.1851,1.1851,0,0,0-1.89614,0,16.62211,16.62211,0,0,0-1.4221,2.37017C368.41709,1170.03244,367.90285,1172.91665,367.90285,1172.91665Z" transform="translate(0)"/><rect class="cls-7" x="369.09323" y="1165.94594" width="4.26631" height="0.94807"/><path class="cls-7" d="M375.01336,1172.91665c-.20832.53237-.20832,1.08788,1.273,1.08788h4.26631c1.4221,0,1.36383.18264.94807-1.89614a10.39034,10.39034,0,0,0-1.4221-3.79228,5.86692,5.86692,0,0,0-.94807-1.4221,1.1851,1.1851,0,0,0-1.89614,0,16.62211,16.62211,0,0,0-1.4221,2.37017C375.5276,1170.03244,375.01336,1172.91665,375.01336,1172.91665Z" transform="translate(0)"/><rect class="cls-7" x="376.20375" y="1165.94594" width="4.26631" height="0.94807"/><path class="cls-7" d="M382.12388,1172.91665c-.20832.53237-.20832,1.08788,1.273,1.08788h4.26631c1.4221,0,1.36382.18264.94807-1.89614a10.39029,10.39029,0,0,0-1.42211-3.79228,5.86657,5.86657,0,0,0-.94807-1.4221,1.18509,1.18509,0,0,0-1.89613,0,16.6219,16.6219,0,0,0-1.42211,2.37017C382.63812,1170.03244,382.12388,1172.91665,382.12388,1172.91665Z" transform="translate(0)"/><rect class="cls-7" x="383.31427" y="1165.94594" width="4.26631" height="0.94807"/><path class="cls-4" d="M394.44877,1172.91665c-.20832.53237-.20832,1.08788,1.273,1.08788h4.26631c1.4221,0,1.36383.18264.94807-1.89614a10.39034,10.39034,0,0,0-1.4221-3.79228,5.86692,5.86692,0,0,0-.94807-1.4221,1.1851,1.1851,0,0,0-1.89614,0,16.62211,16.62211,0,0,0-1.4221,2.37017C394.963,1170.03244,394.44877,1172.91665,394.44877,1172.91665Z" transform="translate(0)"/><rect class="cls-4" x="395.63916" y="1165.94594" width="4.26631" height="0.94807"/><path class="cls-4" d="M401.55929,1172.91665c-.20832.53237-.20832,1.08788,1.273,1.08788h4.26631c1.4221,0,1.36382.18264.94807-1.89614a10.39029,10.39029,0,0,0-1.42211-3.79228,5.86657,5.86657,0,0,0-.94807-1.4221,1.18509,1.18509,0,0,0-1.89613,0,16.6219,16.6219,0,0,0-1.42211,2.37017C402.07353,1170.03244,401.55929,1172.91665,401.55929,1172.91665Z" transform="translate(0)"/><rect class="cls-4" x="402.74968" y="1165.94594" width="4.26631" height="0.94807"/><path class="cls-4" d="M408.6698,1172.91665c-.20831.53237-.20832,1.08788,1.273,1.08788h4.26631c1.42211,0,1.36383.18264.94807-1.89614a10.39034,10.39034,0,0,0-1.4221-3.79228,5.86692,5.86692,0,0,0-.94807-1.4221,1.1851,1.1851,0,0,0-1.89614,0,16.62211,16.62211,0,0,0-1.4221,2.37017C409.18405,1170.03244,408.6698,1172.91665,408.6698,1172.91665Z" transform="translate(0)"/><rect class="cls-4" x="409.86019" y="1165.94594" width="4.26631" height="0.94807"/><path class="cls-7" d="M391.13053,1172.91665c-.20832.53237-.20832,1.08788,1.273,1.08788h4.26631c1.4221,0,1.36383.18264.94807-1.89614a10.39034,10.39034,0,0,0-1.4221-3.79228,5.86692,5.86692,0,0,0-.94807-1.4221,1.1851,1.1851,0,0,0-1.89614,0,16.62211,16.62211,0,0,0-1.4221,2.37017C391.64477,1170.03244,391.13053,1172.91665,391.13053,1172.91665Z" transform="translate(0)"/><rect class="cls-7" x="392.32092" y="1165.94594" width="4.26631" height="0.94807"/><path class="cls-7" d="M398.241,1172.91665c-.20832.53237-.20832,1.08788,1.273,1.08788h4.26631c1.4221,0,1.36382.18264.94807-1.89614a10.39029,10.39029,0,0,0-1.42211-3.79228,5.86657,5.86657,0,0,0-.94807-1.4221,1.18509,1.18509,0,0,0-1.89613,0,16.6219,16.6219,0,0,0-1.42211,2.37017C398.75529,1170.03244,398.241,1172.91665,398.241,1172.91665Z" transform="translate(0)"/><rect class="cls-7" x="399.43144" y="1165.94594" width="4.26631" height="0.94807"/><path class="cls-7" d="M405.35156,1172.91665c-.20831.53237-.20832,1.08788,1.273,1.08788h4.26631c1.42211,0,1.36383.18264.94807-1.89614a10.39034,10.39034,0,0,0-1.4221-3.79228,5.86692,5.86692,0,0,0-.94807-1.4221,1.1851,1.1851,0,0,0-1.89614,0,16.62211,16.62211,0,0,0-1.4221,2.37017C405.8658,1170.03244,405.35156,1172.91665,405.35156,1172.91665Z" transform="translate(0)"/><rect class="cls-7" x="406.54195" y="1165.94594" width="4.26631" height="0.94807"/><path class="cls-7" d="M412.46208,1172.91665c-.20832.53237-.20832,1.08788,1.273,1.08788h4.26631c1.4221,0,1.36382.18264.94807-1.89614a10.39029,10.39029,0,0,0-1.42211-3.79228,5.86675,5.86675,0,0,0-.94806-1.4221,1.1851,1.1851,0,0,0-1.89614,0,16.62286,16.62286,0,0,0-1.42211,2.37017C412.97632,1170.03244,412.46208,1172.91665,412.46208,1172.91665Z" transform="translate(0)"/><rect class="cls-7" x="413.65247" y="1165.94594" width="4.26631" height="0.94807"/><polygon class="cls-3" points="331.407 883.895 332.83 881.051 335.674 881.051 338.518 884.37 338.518 892.902 331.407 892.902 331.407 883.895"/><polygon class="cls-3" points="361.272 883.895 362.694 881.051 365.538 881.051 368.382 884.37 368.382 892.902 361.272 892.902 361.272 883.895"/><polygon class="cls-3" points="391.61 883.895 393.032 881.051 395.876 881.051 398.72 884.37 398.72 892.902 391.61 892.902 391.61 883.895"/><polygon class="cls-3" points="418.63 883.895 417.208 881.051 414.364 881.051 411.519 884.37 411.519 892.902 418.63 892.902 418.63 883.895"/><polygon class="cls-3" points="388.292 883.895 386.87 881.051 384.025 881.051 381.181 884.37 381.181 892.902 388.292 892.902 388.292 883.895"/><polygon class="cls-3" points="358.427 883.895 357.005 881.051 354.161 881.051 351.317 884.37 351.317 892.902 358.427 892.902 358.427 883.895"/><path class="cls-8" d="M361.76973,875.86128c-2.3942,1.39772-1.92017,1.39772-5.23841,1.39772s-7.58455-.474-9.00665-.474-2.84421-2.37017-4.26631,0-1.4221,2.84421-.94807,2.84421h4.74034s-.474-.474.94807-.474h4.74035c.474,0,2.96688-.17614,5.27571-.08807s5.153.08807,6.57515.08807,4.26631.474,5.21438,0a8.34036,8.34036,0,0,1,2.8442-.474h5.68841s0,.474.94807.474h20.38348a6.88071,6.88071,0,0,1,2.84421.474H407.253s0-2.84421-1.89614-3.79228-.94806.94807-2.8442.94807H393.032c-1.89614,0-1.89614.474-3.31824,0a7.62784,7.62784,0,0,1-2.1574-.975s-.68681.027-3.531.027-5.57651-.474-6.63648-.474c-.94807,0-1.42211,1.4221-2.84421,1.4221s-.94807-1.4221-2.37017-1.4221S361.76973,875.86128,361.76973,875.86128Z" transform="translate(0)"/></svg>