<svg id="Layer_1" data-name="Layer 1" xmlns="http://www.w3.org/2000/svg" width="1920" height="1080" viewBox="0 0 1920 1080"><defs><style>.cls-1{fill:#c1272d;}.cls-2{fill:#fff;}.cls-3{fill:#434444;}.cls-4{fill:#333;}.cls-5,.cls-6{fill:#1a1a1a;}.cls-5{opacity:0.4;}.cls-7{fill:#4d5458;}.cls-8{fill:#ccc;}</style></defs><title>launch_medium</title><rect class="cls-1" width="1920" height="1080"/><path class="cls-2" d="M946.16943,671.087v42.04479c0,6.925.49464,75.68062.49464,80.62707v85.07887c0,1.97858-.49464,79.63778-.49464,82.111s-.49465,37.593-.49465,41.0555.36361,17.989.98929,18.30185c1.97858.98929,20.28043,1.48393,23.74294.49464s3.95716-9.89289,3.46251-21.26971c-.46488-7.4381-1.48393-60.34664-.98929-119.20935.555-66.04059,0-136.135,0-142.95228,0-6.53947.55534-32.14471.49465-61.33593-.05867-28.21729-.73777-60.12869-.49465-61.83058.49465-3.46251,5.93574-4.94644,5.93574-11.87147,0-9.89289.49464-41.55014,0-50.94839s-4.94645-28.68938-14.83934-35.61441-22.25149,16.60779-22.75365,30.668c-.49464,13.85-.98929,43.52872-.98929,49.46445,0,14.83934,3.55106,13.03785,5.44109,16.81792C946.66407,614.69748,946.16943,671.087,946.16943,671.087Z"/><path class="cls-2" d="M915.00682,737.36934v273.04381c0,6.43038,7.41967,7.41967,12.86076,7.41967s14.34469,1.48393,14.34469-22.75366-.49464-137.51119-.49464-146.90944V737.36934c0-2.96787,1.97857-21.26972-1.48394-29.67868s-8.409-14.83934-11.87147-14.83934-9.39825,6.43038-11.37682,13.35541a56.76059,56.76059,0,0,0-2.47323,17.31256C914.51217,729.94967,915.00682,737.36934,915.00682,737.36934Z"/><path class="cls-2" d="M977.82668,736.87469V1009.9185c0,6.43038,7.41967,7.41967,12.86076,7.41967s14.34469,1.48394,14.34469-22.75365-.49464-137.51119-.49464-146.90944V736.87469c0-2.96787,1.97858-21.26972-1.48394-29.67867s-8.409-14.83934-11.87147-14.83934-9.39824,6.43038-11.37682,13.3554a56.76062,56.76062,0,0,0-2.47322,17.31256C977.332,729.455,977.82668,736.87469,977.82668,736.87469Z"/><path class="cls-3" d="M926.38364,723.02464h4.4518s.49465,4.94645,0,4.94645-1.48393,2.47322-1.48393,4.4518-.49464,1.48393-.49464,2.96787v29.184c0,1.48393.49464,2.47322.49464,4.94644V782.382c0,.98929-.49464.98929-.49464,3.46252v201.815c0,1.97857.17219,21.63575.17219,21.63575l1.31174,1.61254-1.97858.98929-2.64515-1.08213s2.15051.09284,2.15051-1.39109V980.73447c0-1.97858-.49465-46.00194-.49465-48.47517v-194.89c0-2.47323.49465-6.925,0-7.41967s-.98929-1.97858-.98929-4.4518Z"/><path class="cls-3" d="M957.54625,722.03535h4.4518s.49465,4.94645,0,4.94645-1.48393,2.47322-1.48393,4.4518-.49464,1.48393-.49464,2.96787v29.184c0,1.48393.49464,2.47322.49464,4.94644V781.3927c0,.98929-.49464.98929-.49464,3.46252v201.815c0,1.97858.17219,21.63575.17219,21.63575l1.31174,1.61254-1.97858.98929-2.64515-1.08213s2.15051.09284,2.15051-1.39109V979.74518c0-1.97858-.49465-46.00194-.49465-48.47517v-194.89c0-2.47323.49465-6.925,0-7.41967s-.98929-1.97858-.98929-4.4518Z"/><path class="cls-3" d="M988.70886,723.02464h4.4518v7.41967c0,1.97858,0,2.96787,1.97858,2.96787s1.97858,1.48393,1.97858,3.46251v6.43038s.49464,1.97858-1.97858,1.97858-1.97858,1.48393-1.97858,3.46251v5.93574c0,2.96786-.98929,1.48393-.98929,7.91431V877.35375c0,1.48394.49465,17.80721.49465,19.78579s-.98929,3.46251,2.96787,3.46251,3.46251,0,3.46251,7.41967-.49465,4.94644-3.46251,5.44109-1.97858,0-1.97858,4.4518v8.9036c0,1.97858-.98929,0-.98929,5.93574v76.66991l-.98929,1.97858-1.48394-.98929s-.98928-24.23759-.98928-28.19474v-8.409c0-2.47323.49464-2.96787-.98929-4.4518s-.98929-2.96787-.98929-4.4518,0-3.46252,1.48393-3.95716.49465-6.925.49465-9.39825v-6.43038c0-1.48393,0-1.97858-1.48394-3.46251s-.98929-6.43038.49465-6.925.98929-1.97858.98929-5.93574V752.70332c0-1.97858-.49465-14.83934-.49465-16.32327Z"/><path class="cls-4" d="M930.3408,999.531c0,.49464-.654,6.39723-.98929,8.409-.49464,2.96787-.98929,1.97858-1.97858-3.46251-.821-4.51571-1.85593-12.22618-2.80218-20.13769-.05783-.48347,1.37534-1.14238,1.31825-1.62667-.06278-.53254-1.61575-.89049-1.67747-1.42229-.59245-5.1044-1.13188-10.13264-1.53711-14.28137-.055-.56269,1.78047-1.08057,1.73065-1.6089-.05374-.56983-1.7886-1.2086-2.03956-1.67217-.43367-.80105-.84777-5.27561-.92831-6.24214-.49465-5.93574-.49465-11.87147-.98929-12.86076s-1.48394-3.46251-2.96787,0a37.43472,37.43472,0,0,0-1.97858,4.94644c0,.49465-.49464,3.46252-.49464,4.4518v13.35541c0,1.48393-.49465,11.87147-.49465,14.83934s-.49464,9.89289-.49464,11.87147-.49465,9.39824-.49465,10.38753-.49464,6.43038-.49464,6.925c0,3.46251.98929,3.95715-.49464,5.93573s.49464,2.47322,1.48393,2.47322,1.48393,1.48394,1.48393,1.97858h24.73223c.98929,0,3.46251,0,3.46251-5.93573s-.49464-18.7965-.49464-22.259-1.48393-32.64654-1.48393-36.6037,0-7.41967-1.48394-10.38753a16.87181,16.87181,0,0,1-.79927-1.83273c-.27129-.7509-.24032-1.28353-.68466-1.62979a1.44568,1.44568,0,0,0-1.01018-.28234c-1.44137.22088-1.41136,3.65552-1.463,4.2395-.58637,6.62137-1.08307,11.89276-1.48394,16.32327-.05476.6052-2.42174,1.41136-2.47322,1.97858-.04544.5006,2.0215,1.0124,1.97858,1.48393-.83828,9.20936-1.41635,13.45473-1.48394,14.3447-.03488.4593-1.92624.85077-1.97858,1.48393-.0384.46463,1.53157.94576,1.48394,1.48393"/><path class="cls-5" d="M915.99611,989.14343c-1.48394.49464-1.48394,5.93573-1.97858,12.36611s-.49465,12.744-.49465,13.85005c0,.98929-1.8,2.83035-1.48393,3.46252.49465.98928,2.40384.9199,2.96787,1.48393.49464.49464.30009,1.48393.49464,1.48393h22.75365c2.47323,0,5.44109.98929,5.44109-6.925a175.86733,175.86733,0,0,0-1.97857-23.2483c-.49465-1.97858-2.96787-.98929-3.46252,0s-3.95715,12.86076-5.44109,16.32327-1.48393,4.45181-2.47322,5.93574-1.97858,4.4518-2.96787,1.48393-7.41967-19.78578-8.409-21.76436S917.42812,988.66609,915.99611,989.14343Z"/><path class="cls-6" d="M918.46933,1004.97206c-1.48393,0-3.46251,0-3.46251,2.47322,0,0-.49465,3.95716-.49465,5.44109s-.49464,1.97858,2.47323,1.97858h6.925a1.01613,1.01613,0,0,0,.98929-1.48394,64.90627,64.90627,0,0,0-2.47322-6.43037c-.49465-.98929,0-1.97858-1.97858-1.97858Z"/><path class="cls-6" d="M938.81979,1004.97206c1.48393,0,3.46251,0,3.46251,2.47322,0,0,.49465,3.95716.49465,5.44109s.49464,1.97858-2.47323,1.97858h-6.925a1.01613,1.01613,0,0,1-.98929-1.48394,64.90627,64.90627,0,0,1,2.47322-6.43037c.49465-.98929,0-1.97858,1.97858-1.97858Z"/><path class="cls-4" d="M989.6592,999.531c0,.49464.654,6.39723.98929,8.409.49464,2.96787.98929,1.97858,1.97858-3.46251.821-4.51571,1.85593-12.22618,2.80218-20.13769.05783-.48347-1.37534-1.14238-1.31825-1.62667.06278-.53254,1.61575-.89049,1.67747-1.42229.59245-5.1044,1.13188-10.13264,1.53711-14.28137.055-.56269-1.78047-1.08057-1.73065-1.6089.05374-.56983,1.7886-1.2086,2.03956-1.67217.43367-.80105.84777-5.27561.92831-6.24214.49465-5.93574.49465-11.87147.98929-12.86076s1.48394-3.46251,2.96787,0a37.43472,37.43472,0,0,1,1.97858,4.94644c0,.49465.49464,3.46252.49464,4.4518v13.35541c0,1.48393.49465,11.87147.49465,14.83934s.49464,9.89289.49464,11.87147.49465,9.39824.49465,10.38753.49464,6.43038.49464,6.925c0,3.46251-.98929,3.95715.49464,5.93573s-.49464,2.47322-1.48393,2.47322-1.48393,1.48394-1.48393,1.97858H979.76631c-.98929,0-3.46251,0-3.46251-5.93573s.49464-18.7965.49464-22.259,1.48393-32.64654,1.48393-36.6037,0-7.41967,1.48394-10.38753a16.87181,16.87181,0,0,0,.79927-1.83273c.27129-.7509.24032-1.28353.68466-1.62979a1.44568,1.44568,0,0,1,1.01018-.28234c1.44137.22088,1.41136,3.65552,1.463,4.2395.58637,6.62137,1.08307,11.89276,1.48394,16.32327.05476.6052,2.42174,1.41136,2.47322,1.97858.04544.5006-2.0215,1.0124-1.97858,1.48393.83828,9.20936,1.41635,13.45473,1.48394,14.3447.03488.4593,1.92624.85077,1.97858,1.48393.0384.46463-1.53157.94576-1.48394,1.48393"/><path class="cls-5" d="M1004.00389,989.14343c1.48394.49464,1.48394,5.93573,1.97858,12.36611s.49465,12.744.49465,13.85005c0,.98929,1.8,2.83035,1.48393,3.46252-.49465.98928-2.40384.9199-2.96787,1.48393-.49464.49464-.30009,1.48393-.49464,1.48393H981.74489c-2.47323,0-5.44109.98929-5.44109-6.925a175.86733,175.86733,0,0,1,1.97857-23.2483c.49465-1.97858,2.96787-.98929,3.46252,0s3.95715,12.86076,5.44109,16.32327,1.48393,4.45181,2.47322,5.93574,1.97858,4.4518,2.96787,1.48393,7.41967-19.78578,8.409-21.76436S1002.57188,988.66609,1004.00389,989.14343Z"/><path class="cls-6" d="M1001.53067,1004.97206c1.48393,0,3.46251,0,3.46251,2.47322,0,0,.49465,3.95716.49465,5.44109s.49464,1.97858-2.47323,1.97858h-6.925a1.01613,1.01613,0,0,1-.98929-1.48394,64.90627,64.90627,0,0,1,2.47322-6.43037c.49465-.98929,0-1.97858,1.97858-1.97858Z"/><path class="cls-6" d="M981.18021,1004.97206c-1.48393,0-3.46251,0-3.46251,2.47322,0,0-.49465,3.95716-.49465,5.44109s-.49464,1.97858,2.47323,1.97858h6.925a1.01613,1.01613,0,0,0,.98929-1.48394,64.90627,64.90627,0,0,0-2.47322-6.43037c-.49465-.98929,0-1.97858-1.97858-1.97858Z"/><path class="cls-4" d="M961.50341,999.531c0,.49464-.654,6.39723-.98929,8.409-.49464,2.96787-.98929,1.97858-1.97858-3.46251-.821-4.51571-1.85593-12.22618-2.80218-20.13769-.05783-.48347,1.37534-1.14238,1.31825-1.62667-.06279-.53254-1.61575-.89049-1.67748-1.42229-.59245-5.1044-1.13187-10.13264-1.5371-14.28137-.055-.56269,1.78047-1.08057,1.73064-1.6089-.05373-.56983-1.78859-1.2086-2.03955-1.67217-.43367-.80105-.84777-5.27561-.92831-6.24214-.49465-5.93574-.49465-11.87147-.98929-12.86076s-1.48394-3.46251-2.96787,0a37.43472,37.43472,0,0,0-1.97858,4.94644c0,.49465-.49464,3.46252-.49464,4.4518v13.35541c0,1.48393-.49465,11.87147-.49465,14.83934s-.49464,9.89289-.49464,11.87147-.49465,9.39824-.49465,10.38753-.49464,6.43038-.49464,6.925a24.39678,24.39678,0,0,0,.49464,6.43038c.49465,2.47322.98929,2.96786.98929,2.96786.49465.98929.98929.49465.98929.98929H971.3963c.98929,0,3.46251,0,3.46251-5.93573s-.49464-18.7965-.49464-22.259-1.48394-32.64654-1.48394-36.6037,0-7.41967-1.48393-10.38753a16.87181,16.87181,0,0,1-.79927-1.83273c-.27129-.7509-.24032-1.28353-.68466-1.62979a1.44568,1.44568,0,0,0-1.01018-.28234c-1.44137.22088-1.41136,3.65552-1.46305,4.2395-.58636,6.62137-1.08306,11.89276-1.48393,16.32327-.05476.6052-2.42174,1.41136-2.47322,1.97858-.04544.5006,2.0215,1.0124,1.97858,1.48393-.83828,9.20936-1.41635,13.45473-1.48394,14.3447-.03488.4593-1.92624.85077-1.97858,1.48393-.0384.46463,1.53157.94576,1.48394,1.48393"/><path class="cls-5" d="M947.15872,989.14343c-1.48394.49464-1.48394,5.93573-1.97858,12.36611s-.49465,12.744-.49465,13.85005a8.1694,8.1694,0,0,0,.49465,2.96787c.49464.98929.42526,1.41455.98929,1.97858.49464.49464.30009,1.48393.49464,1.48393h22.75365c2.47323,0,5.44109.98929,5.44109-6.925a175.86515,175.86515,0,0,0-1.97858-23.2483c-.49464-1.97858-2.96786-.98929-3.46251,0s-3.95715,12.86076-5.44109,16.32327-1.48393,4.45181-2.47322,5.93574-1.97858,4.4518-2.96787,1.48393-7.41967-19.78578-8.409-21.76436S948.59073,988.66609,947.15872,989.14343Z"/><path class="cls-6" d="M949.63194,1004.97206c-1.48393,0-3.46251,0-3.46251,2.47322,0,0-.49465,3.95716-.49465,5.44109s-.49464,1.97858,2.47323,1.97858h6.925a1.01613,1.01613,0,0,0,.98929-1.48394,64.90627,64.90627,0,0,0-2.47322-6.43037c-.49465-.98929,0-1.97858-1.97858-1.97858Z"/><path class="cls-6" d="M969.9824,1004.97206c1.48393,0,3.46251,0,3.46251,2.47322,0,0,.49465,3.95716.49465,5.44109s.49464,1.97858-2.47323,1.97858h-6.925a1.01613,1.01613,0,0,1-.98929-1.48394,64.90627,64.90627,0,0,1,2.47322-6.43037c.49465-.98929,0-1.97858,1.97858-1.97858Z"/><path class="cls-4" d="M917.47451,1029.06376c-.21738.55551-.21738,1.13517,1.32839,1.13517h4.4518c1.48393,0,1.42312.19058.98929-1.97858a10.84189,10.84189,0,0,0-1.48394-3.95715,6.12177,6.12177,0,0,0-.98928-1.48394,1.23662,1.23662,0,0,0-1.97858,0,17.34583,17.34583,0,0,0-1.48394,2.47322C918.01111,1026.05414,917.47451,1029.06376,917.47451,1029.06376Z"/><rect class="cls-4" x="918.71665" y="1021.78997" width="4.4518" height="0.98929"/><path class="cls-4" d="M924.89418,1029.06376c-.21738.55551-.21738,1.13517,1.32839,1.13517h4.4518c1.48393,0,1.42312.19058.98929-1.97858a10.84189,10.84189,0,0,0-1.48394-3.95715,6.12159,6.12159,0,0,0-.98929-1.48394,1.23661,1.23661,0,0,0-1.97857,0,17.34583,17.34583,0,0,0-1.48394,2.47322C925.43078,1026.05414,924.89418,1029.06376,924.89418,1029.06376Z"/><rect class="cls-4" x="926.13632" y="1021.78997" width="4.4518" height="0.98929"/><path class="cls-4" d="M932.31385,1029.06376c-.21738.55551-.21738,1.13517,1.32839,1.13517h4.4518c1.48393,0,1.42312.19058.98929-1.97858a10.84189,10.84189,0,0,0-1.48394-3.95715,6.12159,6.12159,0,0,0-.98929-1.48394,1.23662,1.23662,0,0,0-1.97858,0,17.34508,17.34508,0,0,0-1.48393,2.47322C932.85045,1026.05414,932.31385,1029.06376,932.31385,1029.06376Z"/><rect class="cls-4" x="933.55599" y="1021.78997" width="4.4518" height="0.98929"/><path class="cls-7" d="M914.012,1029.06376c-.21738.55551-.21738,1.13517,1.32839,1.13517h4.4518c1.48393,0,1.42312.19058.98929-1.97858a10.84189,10.84189,0,0,0-1.48394-3.95715,6.12159,6.12159,0,0,0-.98929-1.48394,1.23661,1.23661,0,0,0-1.97857,0,17.34583,17.34583,0,0,0-1.48394,2.47322C914.5486,1026.05414,914.012,1029.06376,914.012,1029.06376Z"/><rect class="cls-7" x="915.25414" y="1021.78997" width="4.4518" height="0.98929"/><path class="cls-7" d="M921.43166,1029.06376c-.21737.55551-.21737,1.13517,1.32839,1.13517h4.45181c1.48393,0,1.42312.19058.98929-1.97858a10.84189,10.84189,0,0,0-1.48394-3.95715,6.12159,6.12159,0,0,0-.98929-1.48394,1.23662,1.23662,0,0,0-1.97858,0,17.34508,17.34508,0,0,0-1.48393,2.47322C921.96827,1026.05414,921.43166,1029.06376,921.43166,1029.06376Z"/><rect class="cls-7" x="922.67381" y="1021.78997" width="4.4518" height="0.98929"/><path class="cls-7" d="M928.85133,1029.06376c-.21737.55551-.21737,1.13517,1.32839,1.13517h4.4518c1.48394,0,1.42313.19058.98929-1.97858a10.84193,10.84193,0,0,0-1.48393-3.95715,6.12159,6.12159,0,0,0-.98929-1.48394,1.23662,1.23662,0,0,0-1.97858,0,17.34508,17.34508,0,0,0-1.48393,2.47322C929.38793,1026.05414,928.85133,1029.06376,928.85133,1029.06376Z"/><rect class="cls-7" x="930.09348" y="1021.78997" width="4.4518" height="0.98929"/><path class="cls-7" d="M936.271,1029.06376c-.21737.55551-.21737,1.13517,1.32839,1.13517h4.4518c1.48394,0,1.42312.19058.98929-1.97858a10.84193,10.84193,0,0,0-1.48393-3.95715,6.12194,6.12194,0,0,0-.98929-1.48394,1.23662,1.23662,0,0,0-1.97858,0,17.34508,17.34508,0,0,0-1.48393,2.47322C936.8076,1026.05414,936.271,1029.06376,936.271,1029.06376Z"/><rect class="cls-7" x="937.51315" y="1021.78997" width="4.4518" height="0.98929"/><path class="cls-4" d="M948.63712,1029.06376c-.21738.55551-.21738,1.13517,1.32839,1.13517h4.4518c1.48393,0,1.42312.19058.98929-1.97858a10.84189,10.84189,0,0,0-1.48394-3.95715,6.12159,6.12159,0,0,0-.98929-1.48394,1.23661,1.23661,0,0,0-1.97857,0,17.34583,17.34583,0,0,0-1.48394,2.47322C949.17372,1026.05414,948.63712,1029.06376,948.63712,1029.06376Z"/><rect class="cls-4" x="949.87926" y="1021.78997" width="4.4518" height="0.98929"/><path class="cls-4" d="M956.05679,1029.06376c-.21738.55551-.21738,1.13517,1.32839,1.13517h4.4518c1.48393,0,1.42312.19058.98929-1.97858a10.84189,10.84189,0,0,0-1.48394-3.95715,6.12159,6.12159,0,0,0-.98929-1.48394,1.23661,1.23661,0,0,0-1.97857,0,17.34487,17.34487,0,0,0-1.48394,2.47322C956.59339,1026.05414,956.05679,1029.06376,956.05679,1029.06376Z"/><rect class="cls-4" x="957.29893" y="1021.78997" width="4.4518" height="0.98929"/><path class="cls-4" d="M963.47645,1029.06376c-.21737.55551-.21737,1.13517,1.32839,1.13517h4.45181c1.48393,0,1.42312.19058.98929-1.97858a10.84189,10.84189,0,0,0-1.48394-3.95715,6.12159,6.12159,0,0,0-.98929-1.48394,1.23662,1.23662,0,0,0-1.97858,0,17.34508,17.34508,0,0,0-1.48393,2.47322C964.01305,1026.05414,963.47645,1029.06376,963.47645,1029.06376Z"/><rect class="cls-4" x="964.7186" y="1021.78997" width="4.4518" height="0.98929"/><path class="cls-7" d="M945.1746,1029.06376c-.21737.55551-.21737,1.13517,1.32839,1.13517h4.45181c1.48393,0,1.42312.19058.98929-1.97858a10.84189,10.84189,0,0,0-1.48394-3.95715,6.12159,6.12159,0,0,0-.98929-1.48394,1.23662,1.23662,0,0,0-1.97858,0,17.34508,17.34508,0,0,0-1.48393,2.47322C945.71121,1026.05414,945.1746,1029.06376,945.1746,1029.06376Z"/><rect class="cls-7" x="946.41675" y="1021.78997" width="4.4518" height="0.98929"/><path class="cls-7" d="M952.59427,1029.06376c-.21737.55551-.21737,1.13517,1.32839,1.13517h4.45181c1.48393,0,1.42312.19058.98928-1.97858a10.84174,10.84174,0,0,0-1.48393-3.95715,6.12159,6.12159,0,0,0-.98929-1.48394,1.23662,1.23662,0,0,0-1.97858,0,17.34508,17.34508,0,0,0-1.48393,2.47322C953.13087,1026.05414,952.59427,1029.06376,952.59427,1029.06376Z"/><rect class="cls-7" x="953.83642" y="1021.78997" width="4.4518" height="0.98929"/><path class="cls-7" d="M960.01394,1029.06376c-.21737.55551-.21737,1.13517,1.32839,1.13517h4.4518c1.48394,0,1.42312.19058.98929-1.97858a10.84193,10.84193,0,0,0-1.48393-3.95715,6.12194,6.12194,0,0,0-.98929-1.48394,1.23662,1.23662,0,0,0-1.97858,0,17.34508,17.34508,0,0,0-1.48393,2.47322C960.55054,1026.05414,960.01394,1029.06376,960.01394,1029.06376Z"/><rect class="cls-7" x="961.25609" y="1021.78997" width="4.4518" height="0.98929"/><path class="cls-7" d="M967.43361,1029.06376c-.21737.55551-.21738,1.13517,1.32839,1.13517h4.4518c1.48394,0,1.42312.19058.98929-1.97858a10.84193,10.84193,0,0,0-1.48393-3.95715,6.12194,6.12194,0,0,0-.98929-1.48394,1.23662,1.23662,0,0,0-1.97858,0,17.34508,17.34508,0,0,0-1.48393,2.47322C967.97021,1026.05414,967.43361,1029.06376,967.43361,1029.06376Z"/><rect class="cls-7" x="968.67576" y="1021.78997" width="4.4518" height="0.98929"/><path class="cls-4" d="M980.29437,1029.06376c-.21737.55551-.21738,1.13517,1.32839,1.13517h4.4518c1.48394,0,1.42312.19058.98929-1.97858a10.84193,10.84193,0,0,0-1.48393-3.95715,6.12194,6.12194,0,0,0-.98929-1.48394,1.23662,1.23662,0,0,0-1.97858,0,17.34508,17.34508,0,0,0-1.48393,2.47322C980.831,1026.05414,980.29437,1029.06376,980.29437,1029.06376Z"/><rect class="cls-4" x="981.53651" y="1021.78997" width="4.4518" height="0.98929"/><path class="cls-4" d="M987.714,1029.06376c-.21738.55551-.21738,1.13517,1.32839,1.13517h4.4518c1.48393,0,1.42312.19058.98929-1.97858a10.84193,10.84193,0,0,0-1.48393-3.95715,6.12194,6.12194,0,0,0-.98929-1.48394,1.23662,1.23662,0,0,0-1.97858,0,17.34583,17.34583,0,0,0-1.48394,2.47322C988.25064,1026.05414,987.714,1029.06376,987.714,1029.06376Z"/><rect class="cls-4" x="988.95618" y="1021.78997" width="4.4518" height="0.98929"/><path class="cls-4" d="M995.13371,1029.06376c-.21738.55551-.21738,1.13517,1.32839,1.13517h4.4518c1.48393,0,1.42312.19058.98929-1.97858a10.84189,10.84189,0,0,0-1.48394-3.95715,6.12177,6.12177,0,0,0-.98928-1.48394,1.23662,1.23662,0,0,0-1.97858,0,17.34583,17.34583,0,0,0-1.48394,2.47322C995.67031,1026.05414,995.13371,1029.06376,995.13371,1029.06376Z"/><rect class="cls-4" x="996.37585" y="1021.78997" width="4.4518" height="0.98929"/><path class="cls-7" d="M976.83186,1029.06376c-.21738.55551-.21738,1.13517,1.32839,1.13517h4.4518c1.48393,0,1.42312.19058.98929-1.97858a10.84212,10.84212,0,0,0-1.48393-3.95715,6.12194,6.12194,0,0,0-.98929-1.48394,1.23662,1.23662,0,0,0-1.97858,0,17.34583,17.34583,0,0,0-1.48394,2.47322C977.36846,1026.05414,976.83186,1029.06376,976.83186,1029.06376Z"/><rect class="cls-7" x="978.074" y="1021.78997" width="4.4518" height="0.98929"/><path class="cls-7" d="M984.25153,1029.06376c-.21738.55551-.21738,1.13517,1.32839,1.13517h4.4518c1.48393,0,1.42312.19058.98929-1.97858a10.84189,10.84189,0,0,0-1.48394-3.95715,6.12159,6.12159,0,0,0-.98929-1.48394,1.23661,1.23661,0,0,0-1.97857,0,17.34583,17.34583,0,0,0-1.48394,2.47322C984.78813,1026.05414,984.25153,1029.06376,984.25153,1029.06376Z"/><rect class="cls-7" x="985.49367" y="1021.78997" width="4.4518" height="0.98929"/><path class="cls-7" d="M991.6712,1029.06376c-.21738.55551-.21738,1.13517,1.32839,1.13517h4.4518c1.48393,0,1.42312.19058.98929-1.97858a10.84189,10.84189,0,0,0-1.48394-3.95715,6.12159,6.12159,0,0,0-.98929-1.48394,1.23661,1.23661,0,0,0-1.97857,0,17.34487,17.34487,0,0,0-1.48394,2.47322C992.2078,1026.05414,991.6712,1029.06376,991.6712,1029.06376Z"/><rect class="cls-7" x="992.91334" y="1021.78997" width="4.4518" height="0.98929"/><path class="cls-7" d="M999.09086,1029.06376c-.21737.55551-.21737,1.13517,1.32839,1.13517h4.45181c1.48393,0,1.42312.19058.98929-1.97858a10.84189,10.84189,0,0,0-1.48394-3.95715,6.12159,6.12159,0,0,0-.98929-1.48394,1.23662,1.23662,0,0,0-1.97858,0,17.34508,17.34508,0,0,0-1.48393,2.47322C999.62747,1026.05414,999.09086,1029.06376,999.09086,1029.06376Z"/><rect class="cls-7" x="1000.33301" y="1021.78997" width="4.4518" height="0.98929"/><polygon class="cls-3" points="914.512 727.476 915.996 724.509 918.964 724.509 921.932 727.971 921.932 736.875 914.512 736.875 914.512 727.476"/><polygon class="cls-3" points="945.675 727.476 947.159 724.509 950.127 724.509 953.094 727.971 953.094 736.875 945.675 736.875 945.675 727.476"/><polygon class="cls-3" points="977.332 727.476 978.816 724.509 981.784 724.509 984.752 727.971 984.752 736.875 977.332 736.875 977.332 727.476"/><polygon class="cls-3" points="1005.527 727.476 1004.043 724.509 1001.075 724.509 998.107 727.971 998.107 736.875 1005.527 736.875 1005.527 727.476"/><polygon class="cls-3" points="973.87 727.476 972.386 724.509 969.418 724.509 966.45 727.971 966.45 736.875 973.87 736.875 973.87 727.476"/><polygon class="cls-3" points="942.707 727.476 941.223 724.509 938.255 724.509 935.287 727.971 935.287 736.875 942.707 736.875 942.707 727.476"/><path class="cls-8" d="M946.1945,719.09293c-2.4983,1.45849-2.00365,1.45849-5.46616,1.45849s-7.91432-.49464-9.39825-.49464-2.96787-2.47323-4.4518,0-1.48394,2.96786-.98929,2.96786h4.94644s-.49464-.49464.98929-.49464h4.94645c.49464,0,3.09588-.1838,5.5051-.0919s5.37708.0919,6.861.0919,4.45181.49464,5.44109,0a8.7029,8.7029,0,0,1,2.96787-.49465H963.482s0,.49465.98929.49465H985.741a7.18,7.18,0,0,1,2.96787.49464h4.94645s0-2.96786-1.97858-3.95715-.98929.98929-2.96787.98929H978.816c-1.97858,0-1.97858.49464-3.46251,0a7.95986,7.95986,0,0,1-2.25121-1.01742s-.71666.02813-3.68453.02813-5.819-.49465-6.925-.49465c-.98929,0-1.48394,1.48394-2.96787,1.48394s-.98929-1.48394-2.47322-1.48394S946.1945,719.09293,946.1945,719.09293Z"/></svg>