<svg id="Layer_1" data-name="Layer 1" xmlns="http://www.w3.org/2000/svg" width="750" height="1334" viewBox="0 0 750 1334"><defs><style>.cls-1{fill:#8e45ce;}.cls-2{fill:#999;}.cls-3{fill:#666;}.cls-4{fill:#fff;}</style></defs><title>maintain_mobile</title><rect class="cls-1" width="750" height="1334"/><polygon class="cls-2" points="459.595 905.622 433.419 912.626 414.264 893.459 421.286 867.288 447.463 860.283 466.617 879.45 459.595 905.622"/><circle class="cls-3" cx="440.37773" cy="886.3635" r="11.97324"/><polygon class="cls-2" points="460.129 800.935 433.953 807.94 414.798 788.773 421.82 762.601 447.997 755.596 467.151 774.763 460.129 800.935"/><circle class="cls-3" cx="440.91184" cy="781.67674" r="11.97324"/><polygon class="cls-2" points="459.595 696.248 433.419 703.253 414.264 684.086 421.286 657.914 447.463 650.91 466.617 670.077 459.595 696.248"/><circle class="cls-3" cx="440.37773" cy="676.98999" r="11.97324"/><polygon class="cls-2" points="460.129 1010.309 433.953 1017.313 414.798 998.146 421.82 971.975 447.997 964.97 467.151 984.137 460.129 1010.309"/><circle class="cls-3" cx="440.91184" cy="991.05025" r="11.97324"/><polygon class="cls-2" points="459.595 1114.995 433.419 1122 414.264 1102.833 421.286 1076.661 447.463 1069.657 466.617 1088.824 459.595 1114.995"/><circle class="cls-3" cx="440.37773" cy="1095.737" r="11.97324"/><path class="cls-4" d="M441.54486,920.79919,417.49,896.78351a2.21726,2.21726,0,0,1-.5849-1.87023l4.52144-24.77664a2.16742,2.16742,0,0,1,1.71157-1.70677l24.7892-4.39829a2.16629,2.16629,0,0,1,1.86858.59017l24.00153,23.96219a4.23862,4.23862,0,0,0,6.46355-.525,30.498,30.498,0,0,0,5.73894-16.97682,6.81064,6.81064,0,0,0-.05191-1.06831c-.36449-6.677-4.08316-20.99652-15.81814-32.06925-11.30815-10.75166-32.33652-21.9977-55.79816-12.09614-2.83247,1.17108-6.57316,2.50111-10.52-1.45692-3.94673-4.06485-100.42386-106.80441-100.42386-106.80441-8.26526-9.62572-23.59536-8.95294-32.52756-.09918A23.92548,23.92548,0,0,0,264,734.19608a20.55665,20.55665,0,0,0,6.97467,15.81966s101.93466,95.96395,106.57485,100.67072a8.26446,8.26446,0,0,1,2.71565,5.93251,10.07756,10.07756,0,0,1-1.28833,4.5916,37.59075,37.59075,0,0,0-3.9768,17.29978c-.02015,14.31429,6.58169,29.38567,15.75556,38.58538,13.01408,13.05075,25.61582,15.472,32.07809,15.855a28.56015,28.56015,0,0,0,18.27479-5.68934,4.34748,4.34748,0,0,0,.43639-6.4622ZM282.52608,739.72355a7.51577,7.51577,0,1,1,10.6289.015A7.60984,7.60984,0,0,1,282.52608,739.72355Z" transform="translate(0)"/></svg>