<svg id="Layer_1" data-name="Layer 1" xmlns="http://www.w3.org/2000/svg" width="750" height="1334" viewBox="0 0 750 1334"><defs><style>.cls-1{fill:#8e45ce;}.cls-2{fill:#999;}.cls-3{fill:#666;}.cls-4{fill:#fff;}</style></defs><title>maintain_medium</title><rect class="cls-1" width="750" height="1334"/><polygon class="cls-2" points="437.932 929.869 408.125 937.845 386.314 916.019 394.31 886.217 424.117 878.241 445.928 900.066 437.932 929.869"/><circle class="cls-3" cx="416.04927" cy="907.93881" r="13.6341"/><polygon class="cls-2" points="438.54 810.66 408.733 818.637 386.922 796.811 394.918 767.009 424.725 759.032 446.536 780.858 438.54 810.66"/><circle class="cls-3" cx="416.65747" cy="788.7305" r="13.6341"/><polygon class="cls-2" points="437.932 691.452 408.125 699.428 386.314 677.603 394.31 647.8 424.117 639.824 445.928 661.65 437.932 691.452"/><circle class="cls-3" cx="416.04927" cy="669.5222" r="13.6341"/><polygon class="cls-2" points="438.54 1049.077 408.733 1057.053 386.922 1035.227 394.918 1005.425 424.725 997.449 446.536 1019.275 438.54 1049.077"/><circle class="cls-3" cx="416.65747" cy="1027.14711" r="13.6341"/><polygon class="cls-2" points="437.932 1168.285 408.125 1176.261 386.314 1154.436 394.31 1124.634 424.117 1116.657 445.928 1138.483 437.932 1168.285"/><circle class="cls-3" cx="416.04927" cy="1146.35542" r="13.6341"/><path class="cls-4" d="M417.37829,947.15123l-27.39162-27.347a2.52484,2.52484,0,0,1-.666-2.12966l5.14862-28.21352a2.4681,2.4681,0,0,1,1.949-1.94352l28.22781-5.00839a2.46678,2.46678,0,0,1,2.12778.672l27.33089,27.28609a4.82655,4.82655,0,0,0,7.36013-.59785,34.72841,34.72841,0,0,0,6.535-19.33175,7.754,7.754,0,0,0-.05911-1.2165c-.415-7.60316-4.64954-23.909-18.01234-36.51772-12.87675-12.24306-36.822-25.04909-63.53816-13.774-3.22538,1.33352-7.48495,2.848-11.97933-1.659-4.4942-4.6287-114.35409-121.6197-114.35409-121.6197-9.41177-10.961-26.86838-10.19485-37.0396-.11294a27.24427,27.24427,0,0,0-7.8118,19.02586,23.40812,23.40812,0,0,0,7.94216,18.01408s116.07445,109.27552,121.3583,114.63518c2.36858,2.43616,3.09526,4.68755,3.09235,6.75544a11.47537,11.47537,0,0,1-1.467,5.22852,42.80527,42.80527,0,0,0-4.52845,19.6995c-.02293,16.29989,7.49467,33.46189,17.94109,43.93773,14.81932,14.86108,29.16911,17.6182,36.52778,18.0543a32.52178,32.52178,0,0,0,20.80977-6.47853,4.95054,4.95054,0,0,0,.49692-7.3586ZM236.30134,740.9578a8.55832,8.55832,0,1,1,12.10327.017A8.66543,8.66543,0,0,1,236.30134,740.9578Z" transform="translate(0)"/></svg>