<svg id="Layer_1" data-name="Layer 1" xmlns="http://www.w3.org/2000/svg" viewBox="0 0 1922 1080"><defs><style>.cls-1{fill:#8e45ce;}.cls-2{fill:#999;}.cls-3{fill:#666;}.cls-4{fill:#fff;}</style></defs><title>maintain</title><rect class="cls-1" width="1922" height="1080"/><polygon class="cls-2" points="1090.46 569.84 1050.28 580.59 1020.88 551.16 1031.66 510.99 1071.84 500.24 1101.24 529.66 1090.46 569.84"/><circle class="cls-3" cx="1060.96" cy="540.27" r="18.38"/><polygon class="cls-2" points="1091.29 409.13 1051.1 419.88 1021.7 390.46 1032.48 350.28 1072.66 339.53 1102.07 368.95 1091.29 409.13"/><circle class="cls-3" cx="1061.78" cy="379.57" r="18.38"/><polygon class="cls-2" points="1090.46 248.42 1050.28 259.18 1020.88 229.75 1031.66 189.58 1071.84 178.82 1101.24 208.25 1090.46 248.42"/><circle class="cls-3" cx="1060.96" cy="218.86" r="18.38"/><polygon class="cls-2" points="1091.29 730.54 1051.1 741.29 1021.7 711.87 1032.48 671.69 1072.66 660.94 1102.07 690.37 1091.29 730.54"/><circle class="cls-3" cx="1061.78" cy="700.98" r="18.38"/><polygon class="cls-2" points="1090.46 891.25 1050.28 902 1020.88 872.58 1031.66 832.4 1071.84 821.65 1101.24 851.07 1090.46 891.25"/><circle class="cls-3" cx="1060.96" cy="861.68" r="18.38"/><path class="cls-4" d="M1060.76,593.13l-36.93-36.86a3.41,3.41,0,0,1-.9-2.87l6.94-38a3.35,3.35,0,0,1,2.63-2.62l38-6.75a3.33,3.33,0,0,1,2.87.91l36.85,36.78a6.51,6.51,0,0,0,9.92-.81c5.92-8.27,8.8-18.1,8.81-26.06a10.79,10.79,0,0,0-.08-1.64c-.56-10.25-6.27-32.23-24.28-49.23-17.36-16.5-49.64-33.77-85.66-18.57-4.35,1.8-10.09,3.84-16.15-2.23-6.06-6.24-154.16-164-154.16-164C836,266.4,812.45,267.44,798.74,281a36.7,36.7,0,0,0-10.53,25.65A31.51,31.51,0,0,0,798.91,331S955.39,478.28,962.52,485.5c3.19,3.29,4.17,6.32,4.17,9.11a15.64,15.64,0,0,1-2,7.05,57.71,57.71,0,0,0-6.11,26.56c0,22,10.11,45.11,24.19,59.23,20,20,39.32,23.75,49.24,24.34a43.86,43.86,0,0,0,28.06-8.74,6.68,6.68,0,0,0,.67-9.92Zm-244.11-278a11.53,11.53,0,1,1,16.31,0A11.66,11.66,0,0,1,816.65,315.16Z" transform="translate(2)"/></svg>