<svg id="Layer_1" data-name="Layer 1" xmlns="http://www.w3.org/2000/svg" width="1922" height="1080" viewBox="0 0 1922 1080"><defs><style>.cls-1{fill:#8e45ce;}.cls-2{fill:#999;}.cls-3{fill:#666;}.cls-4{fill:#fff;}</style></defs><title>maintenance_large</title><rect class="cls-1" width="1922" height="1080"/><polygon class="cls-2" points="1228.465 569.836 1188.282 580.588 1158.878 551.165 1169.657 510.989 1209.841 500.236 1239.245 529.659 1228.465 569.836"/><circle class="cls-3" cx="1198.96476" cy="540.27188" r="18.38026"/><polygon class="cls-2" points="1229.285 409.13 1189.102 419.883 1159.698 390.459 1170.477 350.283 1210.661 339.53 1240.065 368.953 1229.285 409.13"/><circle class="cls-3" cx="1199.78469" cy="379.56612" r="18.38026"/><polygon class="cls-2" points="1228.465 248.424 1188.282 259.177 1158.878 229.753 1169.657 189.577 1209.841 178.824 1239.245 208.248 1228.465 248.424"/><circle class="cls-3" cx="1198.96476" cy="218.86037" r="18.38026"/><polygon class="cls-2" points="1229.285 730.541 1189.102 741.294 1159.698 711.871 1170.477 671.694 1210.661 660.941 1240.065 690.365 1229.285 730.541"/><circle class="cls-3" cx="1199.78469" cy="700.97764" r="18.38026"/><polygon class="cls-2" points="1228.465 891.247 1188.282 902 1158.878 872.577 1169.657 832.4 1209.841 821.647 1239.245 851.071 1228.465 891.247"/><circle class="cls-3" cx="1198.96476" cy="861.68339" r="18.38026"/><path class="cls-4" d="M1198.75644,593.13449l-36.92689-36.86673a3.40377,3.40377,0,0,1-.89789-2.871l6.94091-38.0349a3.32725,3.32725,0,0,1,2.62746-2.62008l38.05416-6.75185a3.32551,3.32551,0,0,1,2.86848.906l36.845,36.78461a6.50674,6.50674,0,0,0,9.92227-.806c5.91512-8.273,8.79871-18.108,8.8099-26.0613a10.45475,10.45475,0,0,0-.07968-1.64c-.55953-10.24989-6.2681-32.232-24.2826-49.22986-17.35926-16.505-49.64013-33.7689-85.65636-18.56891-4.34815,1.79774-10.09052,3.83948-16.14943-2.23654C1134.7731,438.898,986.67,281.18137,986.67,281.18137c-12.68809-14.77656-36.22149-13.74376-49.9334-.15225a36.72823,36.72823,0,0,0-10.53116,25.64893A31.55669,31.55669,0,0,0,936.91235,330.963s156.481,147.31528,163.60419,154.54068c3.1931,3.28421,4.17275,6.31933,4.16883,9.10708a15.47009,15.47009,0,0,1-1.97774,7.0486,57.70625,57.70625,0,0,0-6.10483,26.55708c-.03092,21.974,10.10363,45.11026,24.18653,59.23283,19.978,20.03435,39.32313,23.75125,49.24342,24.33916a43.84289,43.84289,0,0,0,28.05383-8.73376,6.67387,6.67387,0,0,0,.66991-9.9202ZM954.645,315.16333a11.53754,11.53754,0,1,1,16.31653.023A11.682,11.682,0,0,1,954.645,315.16333Z" transform="translate(2)"/></svg>