<?xml version="1.0" encoding="utf-8"?>
<!-- Generator: Adobe Illustrator 23.0.4, SVG Export Plug-In . SVG Version: 6.00 Build 0)  -->
<svg version="1.1" id="Layer_1" xmlns="http://www.w3.org/2000/svg" xmlns:xlink="http://www.w3.org/1999/xlink" x="0px" y="0px"
	 viewBox="0 0 302.3 248.4" style="enable-background:new 0 0 302.3 248.4;" xml:space="preserve">
<style type="text/css">
	.st0{fill:#0B72B9;}
</style>
<title>mobile</title>
<path class="st0" d="M298.5,3.9C296,1.4,292.6,0,289.1,0H138.2C130.9,0,125,5.9,125,13.2l0,0V235c0,7.3,5.9,13.2,13.2,13.2l0,0
	h150.8c7.3,0,13.2-5.9,13.2-13.2l0,0l0,0V13.2C302.4,9.7,301,6.4,298.5,3.9z M213.5,9.2c2.1,0,3.9,1.7,3.9,3.9s-1.7,3.9-3.9,3.9
	c-2.1,0-3.9-1.7-3.9-3.9C209.6,11,211.3,9.3,213.5,9.2L213.5,9.2z M213.7,242.8c-4.3,0-7.8-3.5-7.8-7.8s3.5-7.8,7.8-7.8
	c4.3,0,7.8,3.5,7.8,7.8C221.4,239.2,218,242.7,213.7,242.8z M293.5,221.7H133.9V26.6h159.6L293.5,221.7z"/>
<path class="st0" d="M108.7,109.2H55.6c-5.8,0-10.6,5.7-10.6,12.6v113.8c0,7,4.8,12.6,10.6,12.6h53.1c5.8,0,10.6-5.7,10.6-12.6
	V121.9C119.3,114.9,114.5,109.2,108.7,109.2z M110,231.2H54.3V127.1H110V231.2z"/>
<path class="st0" d="M54,202.4H5.6c-0.3,0-0.6-0.3-0.6-0.6V99.7C5,99.3,5.2,99,5.6,99H64c0.3,0,0.6,0.3,0.6,0.6V127h4.9V93.4
	c0.1-5.5-4.2-10.1-9.7-10.2h-0.3H10.3C4.6,83.2,0,87.7,0,93.3v118.4c0,5.7,4.5,10.5,10.3,10.6H54V202.4z M30.2,90.3
	C30.2,90.3,30.2,90.3,30.2,90.3h9.3c0.7,0,1.2,0.6,1.2,1.2c0,0.7-0.6,1.2-1.2,1.2h-9.3c-0.7,0-1.2-0.6-1.2-1.2S29.5,90.4,30.2,90.3z
	 M35,217.7c-3,0-5.4-2.4-5.4-5.4c0-3,2.4-5.4,5.4-5.4c3,0,5.4,2.4,5.4,5.4C40.4,215.2,38,217.7,35,217.7z"/>
</svg>
