<svg xmlns="http://www.w3.org/2000/svg" width="302.314" height="248.368" viewBox="0 0 302.314 248.368"><g transform="translate(-1501 -1167)"><path d="M203.531,32H154.279A10.218,10.218,0,0,0,144,42.217V160.534a10.52,10.52,0,0,0,10.279,10.589H203.5c5.683,0,10.031-4.876,10.031-10.589V42.217A9.965,9.965,0,0,0,203.531,32Zm-29.408,7.142h9.316a1.242,1.242,0,0,1,0,2.484h-9.316a1.242,1.242,0,1,1,0-2.484Zm4.813,127.322a5.4,5.4,0,1,1,5.4-5.4A5.407,5.407,0,0,1,178.936,166.465Zm29.036-15.217H149.59a.623.623,0,0,1-.621-.621V48.459a.623.623,0,0,1,.621-.621h58.382a.623.623,0,0,1,.621.621V150.627A.623.623,0,0,1,207.972,151.248Z" transform="translate(1357 1218.207)" fill="#0b72b9"/><path d="M269.488,35.88A13.26,13.26,0,0,0,260.121,32H109.247A13.247,13.247,0,0,0,96,45.247V267.013a13.247,13.247,0,0,0,13.247,13.247H260.066a13.247,13.247,0,0,0,13.247-13.247V45.247A12.978,12.978,0,0,0,269.488,35.88Zm-85.026,5.376a3.88,3.88,0,1,1-3.88,3.88A3.928,3.928,0,0,1,184.462,41.256Zm.222,233.516a7.788,7.788,0,1,1,7.815-7.815A7.952,7.952,0,0,1,184.684,274.773ZM264.5,253.71H104.868V58.605H264.5Z" transform="translate(1530 1135)" fill="#0b72b9"/><g transform="translate(-28 1)"><path d="M175.652,32H122.609C116.773,32,112,37.691,112,44.648V158.476c0,6.956,4.773,12.647,10.609,12.647h53.043c5.836,0,10.609-5.691,10.609-12.648V44.648C186.26,37.691,181.487,32,175.652,32Zm1.326,122.013h-55.7V49.845h55.7Z" transform="translate(1462 1243.245)" fill="#0b72b9"/><rect width="56" height="105" transform="translate(1583 1293)" fill="#fff"/></g></g></svg>