<svg id="Layer_1" data-name="Layer 1" xmlns="http://www.w3.org/2000/svg" viewBox="0 0 302.31 248.37"><defs><style>.cls-1{fill:#0b72b9;}.cls-2{fill:#fff;}</style></defs><title>mobile</title><path class="cls-1" d="M164.37,215H115.12a10.23,10.23,0,0,0-10.28,10.16V343.56a10.53,10.53,0,0,0,10.28,10.59h49.22c5.69,0,10-4.88,10-10.59V225.24A10,10,0,0,0,164.66,215ZM135,222.17h9.31a1.24,1.24,0,0,1,0,2.48H135a1.24,1.24,0,1,1,0-2.48Zm4.81,127.32a5.4,5.4,0,1,1,5.4-5.4h0a5.41,5.41,0,0,1-5.4,5.4Zm29-15.22H110.43a.62.62,0,0,1-.62-.62V231.48a.62.62,0,0,1,.62-.62h58.39a.63.63,0,0,1,.62.62V333.65a.63.63,0,0,1-.62.62Z" transform="translate(-104.84 -131.82)"/><path class="cls-1" d="M403.33,135.7a13.21,13.21,0,0,0-9.37-3.88H243.09a13.25,13.25,0,0,0-13.25,13.24h0V366.83a13.25,13.25,0,0,0,13.25,13.25H393.91a13.25,13.25,0,0,0,13.25-13.25h0V145.06A13,13,0,0,0,403.33,135.7Zm-85,5.37a3.88,3.88,0,1,1-3.88,3.88A3.92,3.92,0,0,1,318.31,141.07Zm.22,233.52a7.79,7.79,0,1,1,7.81-7.82,8,8,0,0,1-7.81,7.82Zm79.81-21.06H238.71V158.42H398.34Z" transform="translate(-104.84 -131.82)"/><path class="cls-1" d="M213.5,241.06H160.45c-5.83,0-10.61,5.69-10.61,12.65V367.54c0,6.95,4.78,12.64,10.61,12.64H213.5c5.83,0,10.6-5.69,10.6-12.64V253.71C224.1,246.75,219.33,241.06,213.5,241.06Zm1.32,122h-55.7V258.91h55.7Z" transform="translate(-104.84 -131.82)"/><rect class="cls-2" x="54" y="127" width="56" height="105"/></svg>