<?xml version="1.0" encoding="utf-8"?>
<!-- Generator: Adobe Illustrator 23.0.4, SVG Export Plug-In . SVG Version: 6.00 Build 0)  -->
<svg version="1.1" id="Layer_1" xmlns="http://www.w3.org/2000/svg" xmlns:xlink="http://www.w3.org/1999/xlink" x="0px" y="0px"
	 viewBox="0 0 302.3 248.4" style="enable-background:new 0 0 302.3 248.4;" xml:space="preserve">
<style type="text/css">
	.st0{fill:#0B72B9;}
	.st1{fill:#FFFFFF;}
</style>
<g transform="translate(-1501 -1167)">
	<path class="st0" d="M1560.5,1250.2h-49.3c-5.6,0-10.2,4.5-10.3,10.2c0,0,0,0,0,0.1v118.3c0,5.7,4.5,10.5,10.3,10.6h49.2
		c5.7,0,10-4.9,10-10.6v-118.3c0.1-5.5-4.2-10.1-9.7-10.2C1560.7,1250.2,1560.6,1250.2,1560.5,1250.2z M1531.1,1257.3h9.3
		c0.7,0,1.2,0.6,1.2,1.2c0,0.7-0.6,1.2-1.2,1.2h-9.3c-0.7,0-1.2-0.6-1.2-1.2C1529.9,1257.9,1530.4,1257.3,1531.1,1257.3z
		 M1535.9,1384.7c-3,0-5.4-2.4-5.4-5.4c0-3,2.4-5.4,5.4-5.4c3,0,5.4,2.4,5.4,5.4l0,0C1541.3,1382.3,1538.9,1384.7,1535.9,1384.7
		L1535.9,1384.7z M1565,1369.5h-58.4c-0.3,0-0.6-0.3-0.6-0.6v-102.2c0-0.3,0.3-0.6,0.6-0.6h58.4c0.3,0,0.6,0.3,0.6,0.6v102.2
		C1565.6,1369.2,1565.3,1369.5,1565,1369.5L1565,1369.5z"/>
	<path class="st0" d="M1799.5,1170.9c-2.5-2.5-5.9-3.9-9.4-3.9h-150.9c-7.3,0-13.2,5.9-13.2,13.2c0,0,0,0,0,0V1402
		c0,7.3,5.9,13.2,13.2,13.2c0,0,0,0,0,0h150.8c7.3,0,13.2-5.9,13.2-13.2c0,0,0,0,0,0v-221.8
		C1803.4,1176.7,1802,1173.4,1799.5,1170.9z M1714.5,1176.3c2.1,0,3.9,1.7,3.9,3.9s-1.7,3.9-3.9,3.9c-2.1,0-3.9-1.7-3.9-3.9
		C1710.6,1178,1712.3,1176.3,1714.5,1176.3z M1714.7,1409.8c-4.3,0-7.8-3.5-7.8-7.8c0-4.3,3.5-7.8,7.8-7.8c4.3,0,7.7,3.5,7.8,7.8
		C1722.4,1406.2,1719,1409.7,1714.7,1409.8L1714.7,1409.8z M1794.5,1388.7h-159.6v-195.1h159.6V1388.7z"/>
	<g transform="translate(-28 1)">
		<path class="st0" d="M1637.7,1275.2h-53c-5.8,0-10.6,5.7-10.6,12.6v113.8c0,7,4.8,12.6,10.6,12.6h53c5.8,0,10.6-5.7,10.6-12.6
			v-113.8C1648.3,1280.9,1643.5,1275.2,1637.7,1275.2z M1639,1397.3h-55.7v-104.2h55.7V1397.3z"/>
		<rect x="1583" y="1293" class="st1" width="56" height="105"/>
	</g>
</g>
</svg>
