<svg xmlns="http://www.w3.org/2000/svg" width="253.666" height="207.463" viewBox="0 0 253.666 207.463"><g transform="translate(-308.91 -938.607)"><g transform="matrix(0.978, -0.208, 0.208, 0.978, 304.04, 976.072)"><path d="M18.271,36.758A39.766,39.766,0,0,1,37.1,2.6,1.4,1.4,0,0,0,36.368,0C19.829,0,6.711,13.162,4.286,30.22,1.862,30.61,0,33.381,0,36.671c0,3.464,2.035,6.191,4.676,6.408C7.577,57.713,19.31,67.065,31.173,71a1.888,1.888,0,0,0,1.645-3.247c-8.486-7.663-14.547-19.18-14.547-31Z" transform="translate(0 23.423)" fill="#ffba60"/><path d="M144.477,23.726c-.433-1.169-.909-2.251-1.385-3.334a44.416,44.416,0,0,0-9.4-13.941C129.15,2.251,124.431,0,118.629,0a19.793,19.793,0,0,0-11.17,3.377C88.8,14.591,58.838,23.293,40.784,23.293s-17.058.087-17.058.087a40.595,40.595,0,0,0-4.5,71.437c5.239,4.373,10.218,3.81,9.135,9.612s-9.741,42.213-10.824,49.79-1.256,11.906,1.732,15.586c3.031,3.68,21.431,10.3,29.441,10.3s5.975-3.767,5.975-18.963-4.026-57.02,7.144-57.02c20.912,0,31.822,7.49,48.188,13.725,3.9,1.472,6.1,2.035,8.7,2.035s8.1-.823,15.024-7.88a44.865,44.865,0,0,0,9.4-13.941c.476-1.126.952-2.251,1.429-3.464,3.853-10.045,5.931-22.47,5.931-35.459-.043-12.9-2.121-25.371-6.018-35.416ZM132.96,91.7c-2.771,6.8-7.62,12.209-11.646,12.209S113.607,98.5,110.836,91.7c-3.247-7.923-5.325-19.483-5.325-32.342,0-12.9,2.078-24.505,5.325-32.428,2.771-6.754,6.451-10.824,10.434-10.824,4.026,0,8.789,4.113,11.6,10.824a87.229,87.229,0,0,1,.087,64.77Z" transform="translate(29.701 0)" fill="#ffba60"/></g><path d="M9.327,0,0,9.286A32.908,32.908,0,0,1,9.65,32.543,32.907,32.907,0,0,1,0,55.8l9.327,9.327A45.964,45.964,0,0,0,22.812,32.583,46.059,46.059,0,0,0,9.327,0Z" transform="translate(496.708 976.632) rotate(-8)" fill="#ffba60"/><path d="M12.614,0,0,12.559A44.507,44.507,0,0,1,13.051,44.012,44.506,44.506,0,0,1,0,75.465L12.614,88.079A62.164,62.164,0,0,0,30.852,44.067,62.293,62.293,0,0,0,12.614,0Z" transform="translate(519.766 958.06) rotate(-8)" fill="#ffba60"/></g></svg>