<svg id="Layer_1" data-name="Layer 1" xmlns="http://www.w3.org/2000/svg" xmlns:xlink="http://www.w3.org/1999/xlink" width="1233" height="1436" viewBox="0 0 1233 1436"><defs><style>.cls-1{fill:none;}.cls-2{clip-path:url(#clip-path);}.cls-3{fill:#39b54a;}</style><clipPath id="clip-path"><rect class="cls-1" width="1233" height="1436"/></clipPath></defs><title>review_mobile</title><g class="cls-2"><rect class="cls-3" y="786" width="375" height="650"/><rect x="640.59794" y="1029.06834" width="424.53313" height="278.15445" transform="translate(-503.04512 664.7064) rotate(-33.49719)"/><path class="cls-3" d="M698.06628,937.97431a108.50171,108.50171,0,1,0,16.41915,81.47267A108.00622,108.00622,0,0,0,698.06628,937.97431Z"/><path class="cls-3" d="M69,741.45856V1436H1233V741.45856Zm699.66327,497.38483a14.86225,14.86225,0,0,1-20.48041-4.58035l-75.45458-113.54125a139.319,139.319,0,1,1,24.57935-16.73206L773.261,1218.27424A14.96032,14.96032,0,0,1,768.66327,1238.84339Z"/><rect class="cls-3" width="1233" height="786"/></g></svg>