<svg id="Layer_1" data-name="Layer 1" xmlns="http://www.w3.org/2000/svg" width="1920" height="1080" viewBox="0 0 1920 1080"><defs><style>.cls-1{fill:#39b54a;}</style></defs><title>review_large</title><path d="M1266.15991,802.38a20.91672,20.91672,0,0,1-28.83984-6.45l-106.25-159.88c-.44007.23-.88013.46-1.32007.68l36.15-23.92,106.73,160.61A21.06114,21.06114,0,0,1,1266.15991,802.38Z"/><path class="cls-1" d="M1166.74735,378.71841A152.7838,152.7838,0,1,0,1189.86753,493.442,152.08607,152.08607,0,0,0,1166.74735,378.71841Z"/><path class="cls-1" d="M0,0V1080H1920V0ZM848.4,426.29c20.76-105.57,123.2-174.45,228.9-153.67C1183,293.41,1251.76,395.82,1231,501.4a194.48164,194.48164,0,0,1-65.32007,111.09l.22009.32,106.73,160.61a21.06114,21.06114,0,0,1-6.47009,28.96,20.91672,20.91672,0,0,1-28.83984-6.45l-106.25-159.88c-.44007.23-.88013.46-1.32007.68a194.12916,194.12916,0,0,1-127.65,18.34C896.4,634.28,827.64,531.87,848.4,426.29Z"/></svg>