<svg id="Layer_1" data-name="Layer 1" xmlns="http://www.w3.org/2000/svg" viewBox="0 0 1920 1080"><defs><style>.cls-1{fill:#39b54a;}</style></defs><title>review</title><rect x="998.82" y="447.23" width="660.14" height="432.53" transform="translate(-145.47 843.61) rotate(-33.5)"/><path class="cls-1" d="M1088.19,305.58a168.73,168.73,0,1,0,25.53,126.69A168,168,0,0,0,1088.19,305.58Z"/><path class="cls-1" d="M110,0V1080H1920V0ZM1198,773.42a23.09,23.09,0,0,1-31.84-7.12L1048.79,589.75a214.55,214.55,0,0,1-142.42,21c-116.73-23-192.66-136-169.73-252.63s136.05-192.65,252.77-169.7,192.65,136.05,169.73,252.64A214.81,214.81,0,0,1,1087,563.73l118.1,177.71A23.25,23.25,0,0,1,1198,773.42Z"/><rect class="cls-1" width="110" height="1080"/></svg>