<svg id="Layer_1" data-name="Layer 1" xmlns="http://www.w3.org/2000/svg" width="1098" height="1446.77002" viewBox="0 0 1098 1446.77002"><defs><style>.cls-1{fill:#39b54a;}</style></defs><title>review_mobile</title><path class="cls-1" d="M754.56006,772.37V-19.76H-15V1427.01H754.56006V1373.6499H1083V772.37ZM424.17,971.75a119.85424,119.85424,0,1,1,195.07,114.48l.12.19,65.63,98.73993a12.95086,12.95086,0,0,1-3.98,17.81006,12.71186,12.71186,0,0,1-9.36,1.75,12.84114,12.84114,0,0,1-8.37-5.71L597.96,1100.71c-.29.15-.55005.29-.84.43005a.00979.00979,0,0,1-.01.00995,119.887,119.887,0,0,1-172.94-129.4Z" transform="translate(15 19.76001)"/><path d="M681.01,1202.97a12.71186,12.71186,0,0,1-9.36,1.75,12.84114,12.84114,0,0,1-8.37-5.71L597.96,1100.71c-.29.15-.55005.29-.84.43005l22.24-14.72,65.63,98.73993A12.95086,12.95086,0,0,1,681.01,1202.97Z" transform="translate(15 19.76001)"/><path class="cls-1" d="M619.89548,942.49967A93.933,93.933,0,1,0,634.11,1013.03284,93.504,93.504,0,0,0,619.89548,942.49967Z" transform="translate(15 19.76001)"/></svg>