<svg xmlns="http://www.w3.org/2000/svg" xmlns:xlink="http://www.w3.org/1999/xlink" width="256.576" height="196.926" viewBox="0 0 256.576 196.926"><defs><clipPath id="a"><rect width="113.543" height="113.543" fill="none"/></clipPath></defs><g transform="translate(-378 -97)"><path d="M844.387,179.661v49.675a.89.89,0,0,1-.887.887H753.087a.89.89,0,0,1-.887-.887V179.661A2.669,2.669,0,0,1,754.861,177h86.865A2.669,2.669,0,0,1,844.387,179.661Z" transform="translate(-291.994 -62.259)" fill="#7fc4fd"/><g transform="translate(377 195.35)"><rect width="86.192" height="69.845" transform="translate(1 28.731)" fill="#ccc"/><rect width="86.192" height="98.576" transform="translate(86.192 0)" fill="#ccc"/><rect width="86.192" height="44.582" transform="translate(171.384 53.994)" fill="#ccc"/></g><g transform="translate(449.517 97)"><g clip-path="url(#a)"><g clip-path="url(#a)"><path d="M806.964,244.871a1.129,1.129,0,0,0-.932-.954l-4.945-.421c-2.617-.687-4.546-3.593-4.945-6.276l-.266-1.708h-20.4l-.266,1.685c-.421,2.683-2.329,5.588-4.945,6.276l-4.945.421a1.21,1.21,0,0,0-.931.954,1.137,1.137,0,0,0,1.131,1.286h40.317a1.121,1.121,0,0,0,1.131-1.264m26.811-82.319a5.357,5.357,0,0,0-3.77-1.552H741.367a5.318,5.318,0,0,0-3.77,1.552,5.4,5.4,0,0,0-1.6,3.77v60.32a5.361,5.361,0,0,0,1.6,3.77,5.254,5.254,0,0,0,3.726,1.552h88.705a5.216,5.216,0,0,0,3.725-1.552,5.4,5.4,0,0,0,1.6-3.77v-60.32a5.287,5.287,0,0,0-1.574-3.77m-48.1,64.09a1.774,1.774,0,1,1,1.774-1.774,1.779,1.779,0,0,1-1.774,1.774m45.218-8.871H740.48a.89.89,0,0,1-.887-.887V167.209a2.669,2.669,0,0,1,2.661-2.661h86.865a2.669,2.669,0,0,1,2.661,2.661v49.675a.89.89,0,0,1-.887.887" transform="translate(-728.904 -146.807)"/></g></g></g><path d="M959,371.624l9.762,8.268,40.134-53.347V321Z" transform="translate(-452.934 -174.325)" fill="#0071bc"/><g transform="translate(456.613 146.675)"><path d="M785.777,371.624l-9.762,8.268L736,326.544V321Z" transform="translate(-736 -321)" fill="#0071bc"/><circle cx="12.488" cy="12.488" r="12.488" transform="translate(37.341 46.431)" fill="#fcee21"/></g><path d="M948.141,567.507l-.052-.222H943.25v2.048h2.891a2.893,2.893,0,0,1-2.83,2.175,3.385,3.385,0,0,1-2.278-.907,3.252,3.252,0,0,1-.97-2.3,3.354,3.354,0,0,1,.953-2.293,3.24,3.24,0,0,1,2.263-.885,2.952,2.952,0,0,1,1.925.75l1.455-1.448a5.149,5.149,0,0,0-3.428-1.32,5.133,5.133,0,0,0-5.231,5.2,5.225,5.225,0,0,0,1.423,3.613,5.428,5.428,0,0,0,3.913,1.588,4.827,4.827,0,0,0,3.516-1.478,5.192,5.192,0,0,0,1.35-3.6,5.946,5.946,0,0,0-.06-.928Z" transform="translate(-436.591 -362.743)" fill="#d8c61e"/><rect width="57.395" height="38.143" rx="5" transform="translate(477.661 122.17)" fill="#fff" stroke="gray" stroke-miterlimit="10" stroke-width="2"/><path d="M5,0H52.395a5,5,0,0,1,5,5v.272a0,0,0,0,1,0,0H0a0,0,0,0,1,0,0V5A5,5,0,0,1,5,0Z" transform="translate(477.661 122.456)" fill="gray"/><ellipse cx="0.917" cy="0.917" rx="0.917" ry="0.917" transform="translate(479.309 123.831)" fill="red"/><ellipse cx="0.917" cy="0.917" rx="0.917" ry="0.917" transform="translate(481.601 123.831)" fill="#fcee21"/><ellipse cx="0.917" cy="0.917" rx="0.917" ry="0.917" transform="translate(483.893 123.831)" fill="#39b54a"/><g transform="translate(488.991 131.373)"><rect width="11.753" height="11.753" rx="3" transform="translate(0 -1)" fill="#39b54a"/><line x2="21.511" transform="translate(13.749 0.887)" fill="none" stroke="#b3b3b3" stroke-linecap="round" stroke-miterlimit="10" stroke-width="1"/><line x2="21.511" transform="translate(13.749 3.105)" fill="none" stroke="#b3b3b3" stroke-linecap="round" stroke-miterlimit="10" stroke-width="1"/><line x2="21.511" transform="translate(13.749 5.322)" fill="none" stroke="#b3b3b3" stroke-linecap="round" stroke-miterlimit="10" stroke-width="1"/><line x2="12.641" transform="translate(13.749 7.54)" fill="none" stroke="#b3b3b3" stroke-linecap="round" stroke-miterlimit="10" stroke-width="1"/></g><g transform="translate(488.991 146.231)"><rect width="11.753" height="11.753" rx="3" transform="translate(0 -1)" fill="#93278f"/><path d="M0,0H21.511" transform="translate(13.749 0.887)" fill="none" stroke="#b3b3b3" stroke-linecap="round" stroke-width="1"/><line x2="21.511" transform="translate(13.749 3.105)" fill="none" stroke="#b3b3b3" stroke-linecap="round" stroke-miterlimit="10" stroke-width="1"/><line x2="21.511" transform="translate(13.749 5.322)" fill="none" stroke="#b3b3b3" stroke-linecap="round" stroke-miterlimit="10" stroke-width="1"/><line x2="12.641" transform="translate(13.749 7.54)" fill="none" stroke="#b3b3b3" stroke-linecap="round" stroke-miterlimit="10" stroke-width="1"/></g></g></svg>