<svg id="Layer_1" data-name="Layer 1" xmlns="http://www.w3.org/2000/svg" viewBox="0 0 185.9 211.49"><defs><style>.cls-1{fill:#05436f;}.cls-2{fill:#0b72b9;}.cls-3{fill:#7fc4fd;}</style></defs><title>software</title><path class="cls-1" d="M296.81,344.4l-83.3,18.21a18.61,18.61,0,0,1-22.15-14.21h0L163.48,220.9a18.62,18.62,0,0,1,14.21-22.16,18.3,18.3,0,0,1,2.54-.37l73.14-5.67a18.61,18.61,0,0,1,19.11,12.71l38,115a18.62,18.62,0,0,1-11.83,23.52A19.05,19.05,0,0,1,296.81,344.4Z" transform="translate(-163.05 -151.55)"/><path class="cls-2" d="M315.21,324.4l-83.3,18.21a18.59,18.59,0,0,1-22.15-14.21h0L181.88,200.9a18.61,18.61,0,0,1,14.21-22.15,18.32,18.32,0,0,1,2.54-.38l73.14-5.67a18.61,18.61,0,0,1,19.11,12.72l38,115a18.62,18.62,0,0,1-11.83,23.51C316.47,324.09,315.84,324.26,315.21,324.4Z" transform="translate(-163.05 -151.55)"/><path class="cls-3" d="M334.3,305.31,251,321.51a18.6,18.6,0,0,1-22.15-14.2h0L201,179.8a18.61,18.61,0,0,1,14.21-22.15,18.32,18.32,0,0,1,2.54-.38l73.14-5.66A18.6,18.6,0,0,1,310,164.32l38,115C351.47,289.76,345.09,303,334.3,305.31Z" transform="translate(-163.05 -151.55)"/></svg>