<svg xmlns="http://www.w3.org/2000/svg" width="75.692" height="82" viewBox="0 0 75.692 82"><g transform="translate(-64 -48)"><path d="M139.126,103.215a1.582,1.582,0,0,0,2.227,0l2.227-2.227a1.582,1.582,0,0,0,0-2.227l-5.026-5.026a1.582,1.582,0,0,0-2.227,0L134.1,95.961a1.582,1.582,0,0,0,0,2.227l5.026,5.026Zm-65.265,0a1.582,1.582,0,0,0,2.227,0l5.026-5.026a1.582,1.582,0,0,0,0-2.227l-2.227-2.227a1.582,1.582,0,0,0-2.227,0L71.633,98.74a1.582,1.582,0,0,0,0,2.227Z" transform="translate(-5.761 -36.351)" fill="#ffba60"/><path d="M106.577,54.6v-3.45A3.163,3.163,0,0,0,103.423,48h-3.154a3.163,3.163,0,0,0-3.154,3.154V54.6a37.846,37.846,0,1,0,9.462,0Zm-1.971,43.227v3.785a2.76,2.76,0,1,1-5.519,0V97.831a6.316,6.316,0,0,1,0-11.354V66.923a2.76,2.76,0,0,1,5.519,0V86.477a6.316,6.316,0,0,1,0,11.354Z" fill="#ffba60"/></g></svg>