<svg xmlns="http://www.w3.org/2000/svg" width="225.008" height="224.017" viewBox="0 0 225.008 224.017"><g transform="translate(-625.588 -196.5)"><path d="M822.989,487.643c1.046-10.111,1.395-7.671,1.743-17.433s.349-18.479,0-26.15-.7-13.947-3.487-20.222c-1.981-4.459-4.484-6.453-7.489-1.359-1.225,2.076-4.417,6.282-6.109,11.471-5.23,16.039-4.184,23.709-4.881,32.077s-1.046,33.123,0,39.4S822.989,487.643,822.989,487.643Z" transform="translate(-114.973 -145.227)" fill="#999"/><g transform="translate(654.743 242.074)"><path d="M860.455,332.542H836.4c-4.184,0-33.82-2.092-40.794-2.441-4.554-.228-20.852-1.645-33.826-2.423a129.364,129.364,0,0,0-14.638-.367,99.842,99.842,0,0,0-20.4,4.184c-3.829,1.367-15.69,8.717-17.433,9.763s19.351,8.717,23.883,9.414,67.292,4.184,74.614,4.184h40.828l21.234-17.782Z" transform="translate(-709.207 -327.211)" fill="#999"/></g><path d="M1064.585,234.853c1.456,3.565-3.253,6.994-9.763,5.579-4.01-.872-5.927-6.973-6.973-7.671-1.479-.986-2.644,8.521,2.441,12.2a172.769,172.769,0,0,0,16.459,10.791l27.615-13.577c-12.52-10.289-22.631-18.308-28.21-23.189s-16.736-14.3-17.782-14.993-9.24-7.5-13.075-7.5c-2.092,0-5.531,2.9-6.276,4.881a34.351,34.351,0,0,0-1.046,13.6,18.709,18.709,0,0,0,4.01,6.45c3.138,3.487,2.789,6.276,7.671,1.743s5.056-7.148,14.121.523C1053.777,223.7,1063.136,231.3,1064.585,234.853Z" transform="translate(-261.907)" fill="#b3b3b3"/><path d="M626.429,538.574c4.352-3.384,5.927-4.533,7.322-5.23,1.68-.84,1.395-2.092,6.625,1.743s6.433,5.038,7.322,5.927a19.391,19.391,0,0,1,4.184,6.276c1.046,2.789,11.157,20.223,18.828,17.433s8.368-2.789,9.414-4.881-3.835-6.973,1.743-5.579,6.973,4.533,7.322,5.927-2.789,3.138-2.092,4.881c.509,1.273,3.346-1.178,5.23-.7.7.178,1.715,2.1,2.092,3.138,1.395,3.835-6.625,23.36-6.625,23.36s-5.927,6.276-7.322,6.625-36.261-32.426-40.1-36.261c-2.626-2.626-9.46-10.785-12.552-16.736C626.4,541.76,624.449,540.114,626.429,538.574Z" transform="translate(0 -218.822)" fill="#b3b3b3"/><path d="M963.035,402.98c-1.079,9.072-3.868,13.6-8.4,18.486s-31.031,30.682-33.123,33.123S862.4,507.8,855.962,513.165c-6.276,5.23-15.179,12.921-20.571,16.387-4.881,3.138-15.341,11.855-29.985-.7-7.139-6.119-6.276-10.809-4.184-22.315.844-4.642,1.273-7.359,5.23-15.69C819.7,462.957,963.035,402.98,963.035,402.98Z" transform="translate(-113.428 -134.488)" fill="#666"/><path d="M1060.3,579a96.464,96.464,0,0,1-.031,15.762c0,2.655.349,8.019,3.487,9.414s-5.17,5.76-3.487,10.809c1.395,4.184,5.23,5.927,4.184,8.019s-5.911,3.736-5.579,8.717c.349,5.23,6.973,7.322,4.184,9.414s-6.625,4.184-4.881,10.46c1.669,6.01,4.319,6.7,6.625,8.019,2.441,1.395,5.536,1.395,6.973,1.395,1.395,0,3.487,0,2.092-2.092s-10.111-2.441-11.157-9.065c-.872-5.521,11.157-7.322,12.552-9.065,3.8-4.755-9.763-3.487-10.111-8.717s10.809-4.881,10.809-8.368-6.625-4.184-9.763-8.368c-2.545-3.393,1.793-5.994,7.671-6.973,4.184-.7,6.445-3.9,3.487-4.881-4.184-1.395-2.789.349-8.368-3.835-3.794-2.845-3.835-10.111-.349-10.46a27.15,27.15,0,0,1,5.927,0l-.2-23.456Z" transform="translate(-281.478 -240.491)" fill="#999"/><path d="M860.218,387.171s6.276-5.23,11.506-9.763,34.866-29.636,36.61-31.031,20.223-16.039,21.966-16.736,11.855-4.881,19.525,0,9.065,6.625,10.46,11.506.7,12.2-2.789,16.039-11.506,11.855-12.9,12.9-15.69,15.341-17.433,17.085-24.755,24.058-26.15,25.452-63.108,57.53-67.292,60.668c-4.248,3.186-9.863,6.667-20.222,4.881-10.111-1.743-16.736-12.9-18.131-18.479-1.353-5.412,1.395-13.6,7.322-19.874S860.218,387.171,860.218,387.171Z" transform="translate(-110.362 -85.201)" fill="#63120f"/><path d="M1095.75,557.74c7.791,7.761,12.672,13.34,15.81,16.129s6.973,6.625,8.368,8.019,5.23,4.533,7.671,7.671,10.809,13.6,14.3,20.223,14.644,25.452,0,11.855-23.36-21.617-26.5-24.755-12.2-11.506-13.947-13.6-15.819-15.868-15.819-15.868Z" transform="translate(-299.642 -235.289)" fill="#b3b3b3"/><path d="M817.379,445.082c-3.835,4.881-13.6,13.249-3.138,20.92s20.389,5.87,24.755,2.092c18.13-15.69,101.81-92.745,101.81-92.745s16.736-14.993,21.966-20.92,3.487-13.6-7.322-18.131-16.736,2.789-20.92,5.579S849.457,414.4,841.437,422.07Z" transform="translate(-119.823 -90.114)" fill="#b02224"/></g></svg>