<svg xmlns="http://www.w3.org/2000/svg" width="240.511" height="206.099" viewBox="0 0 240.511 206.099"><path d="M203.793,267.037a2.734,2.734,0,0,0-2.255-2.308l-11.972-1.02c-6.335-1.664-11.005-8.7-11.972-15.193l-.644-4.134H127.56l-.644,4.08c-1.02,6.5-5.637,13.529-11.972,15.193l-11.972,1.02a2.929,2.929,0,0,0-2.255,2.308,2.754,2.754,0,0,0,2.738,3.114h97.6a2.712,2.712,0,0,0,2.738-3.06ZM268.7,67.758A12.968,12.968,0,0,0,259.572,64H44.992a12.875,12.875,0,0,0-9.126,3.758A13.075,13.075,0,0,0,32,76.884V222.908a12.978,12.978,0,0,0,3.865,9.126,12.719,12.719,0,0,0,9.019,3.758H259.625a12.627,12.627,0,0,0,9.019-3.758,13.075,13.075,0,0,0,3.865-9.126V76.884A12.8,12.8,0,0,0,268.7,67.758ZM152.255,222.908a4.295,4.295,0,1,1,4.295-4.295A4.307,4.307,0,0,1,152.255,222.908Zm109.464-21.474H42.844a2.154,2.154,0,0,1-2.147-2.147V79.032a6.461,6.461,0,0,1,6.442-6.442H257.424a6.461,6.461,0,0,1,6.442,6.442V199.287A2.154,2.154,0,0,1,261.719,201.434Z" transform="translate(-32 -64)" fill="#0b72b9"/></svg>