<svg id="Layer_1" data-name="Layer 1" xmlns="http://www.w3.org/2000/svg" viewBox="0 0 240.51 206.1"><defs><style>.cls-1{fill:#0b72b9;}</style></defs><title>website</title><path class="cls-1" d="M307.54,356a2.74,2.74,0,0,0-2.26-2.31l-12-1c-6.33-1.66-11-8.7-12-15.19l-.64-4.14H231.31l-.65,4.08c-1,6.5-5.64,13.53-12,15.2l-12,1a2.91,2.91,0,0,0-2.26,2.3,2.75,2.75,0,0,0,2.37,3.09,2.31,2.31,0,0,0,.37,0h97.6a2.71,2.71,0,0,0,2.76-2.66,2.61,2.61,0,0,0,0-.4Zm64.91-199.28a13,13,0,0,0-9.13-3.76H148.74a12.86,12.86,0,0,0-9.13,3.76,13.09,13.09,0,0,0-3.86,9.13v146a13,13,0,0,0,3.86,9.13,12.72,12.72,0,0,0,9,3.75H363.37a12.62,12.62,0,0,0,9-3.75,13.07,13.07,0,0,0,3.86-9.13v-146A12.78,12.78,0,0,0,372.45,156.71ZM256,311.86a4.3,4.3,0,1,1,4.3-4.3h0A4.32,4.32,0,0,1,256,311.86Zm109.46-21.47H146.59a2.17,2.17,0,0,1-2.15-2.15V168a6.46,6.46,0,0,1,6.44-6.44H361.17a6.46,6.46,0,0,1,6.44,6.44V288.24A2.16,2.16,0,0,1,365.46,290.39Z" transform="translate(-135.75 -152.95)"/></svg>